<svg width="836" height="389" viewBox="0 0 836 389" fill="none" xmlns="http://www.w3.org/2000/svg">
<path d="M403.804 404.179C403.804 408.421 403.684 412.663 403.384 416.904C401.283 445.341 386.577 459.32 358.366 459.619C307.525 460.156 257.225 460.097 208.905 459.619C192.518 459.44 180.993 455.736 173.791 448.268C166.528 440.741 163.166 429.031 163.526 412.424C164.907 351.667 150.381 307.101 117.728 272.332C93.778 246.882 66.3468 230.871 33.8136 223.344C15.8062 219.162 6.3824 215.04 0.5 208.528V-20.1591C5.48203 -20.2786 10.7042 -20.2786 16.1064 -20.0994C16.9467 -19.9799 17.8471 -19.9202 18.8075 -19.8604H19.4677C47.3191 -18.3669 75.2304 -13.8266 102.241 -6.41878L102.542 -6.29929H102.602C268.749 39.4621 391.499 189.292 401.223 358.06C401.523 363.018 401.883 367.917 402.244 372.875C403.024 383.151 403.804 393.665 403.804 404.179Z" fill="#4B3CE4"/>
<path d="M403.444 -184.506V-87.1883C403.444 -48.3568 371.691 -16.6942 332.615 -16.6942H234.835C195.82 -16.6942 164.007 -48.297 164.007 -87.1883V-184.506C164.007 -223.397 195.76 -255 234.835 -255H332.615C371.691 -255 403.444 -223.397 403.444 -184.506Z" fill="#4B3CE4"/>
<path d="M835.44 -3.55121V225.136C830.458 225.256 825.236 225.256 819.834 225.077C818.753 224.957 817.673 224.897 816.472 224.838C788.621 223.404 760.71 218.864 733.699 211.456L733.398 211.336C567.251 165.575 444.501 15.745 434.777 -153.023C434.477 -157.981 434.117 -162.88 433.756 -167.838C432.676 -182.296 431.535 -197.171 432.616 -211.867C434.717 -240.364 449.423 -254.343 477.634 -254.642C530.516 -255.119 579.436 -255.119 627.095 -254.642C643.482 -254.462 655.007 -250.758 662.209 -243.291C669.532 -235.763 672.834 -224.054 672.474 -207.446C671.093 -146.63 685.619 -102.123 718.272 -67.3543C742.222 -41.9048 769.653 -25.8943 802.186 -18.3669C819.954 -14.2448 829.618 -10.0032 835.5 -3.55121" fill="#4B3CE4"/>
</svg>
