<svg width="6" height="9" viewBox="0 0 6 9" fill="none" xmlns="http://www.w3.org/2000/svg">
<path fill-rule="evenodd" clip-rule="evenodd" d="M0.396625 0.198016C0.523188 0.0716108 0.694749 0.000610352 0.873625 0.000610352C1.0525 0.000610352 1.22406 0.0716108 1.35062 0.198016L5.17562 4.02302C5.30203 4.14958 5.37303 4.32114 5.37303 4.50002C5.37303 4.67889 5.30203 4.85045 5.17562 4.97702L1.35062 8.80202C1.22267 8.92125 1.05343 8.98616 0.878555 8.98307C0.703684 8.97999 0.536837 8.90915 0.413165 8.78548C0.289494 8.6618 0.218652 8.49496 0.215567 8.32009C0.212482 8.14522 0.277393 7.97597 0.396625 7.84802L3.74462 4.50002L0.396625 1.15202C0.27022 1.02545 0.199219 0.853892 0.199219 0.675016C0.199219 0.496141 0.27022 0.324579 0.396625 0.198016Z" fill="#05070B"/>
</svg>
