<svg width="20" height="20" viewBox="0 0 20 20" fill="none" xmlns="http://www.w3.org/2000/svg">
<path fill-rule="evenodd" clip-rule="evenodd" d="M8.21934 5.22001C8.35997 5.07956 8.55059 5.00067 8.74934 5.00067C8.94809 5.00067 9.13871 5.07956 9.27934 5.22001L13.5293 9.47001C13.6698 9.61064 13.7487 9.80126 13.7487 10C13.7487 10.1988 13.6698 10.3894 13.5293 10.53L9.27934 14.78C9.13716 14.9125 8.94912 14.9846 8.75482 14.9812C8.56052 14.9778 8.37513 14.899 8.23772 14.7616C8.10031 14.6242 8.02159 14.4388 8.01816 14.2445C8.01474 14.0502 8.08686 13.8622 8.21934 13.72L11.9393 10L8.21934 6.28001C8.07889 6.13939 8 5.94876 8 5.75001C8 5.55126 8.07889 5.36064 8.21934 5.22001Z" fill="#A1A1AA"/>
</svg>
