<svg width="20" height="20" viewBox="0 0 20 20" fill="none" xmlns="http://www.w3.org/2000/svg">
<path fill-rule="evenodd" clip-rule="evenodd" d="M16.7048 4.15254C16.7834 4.21217 16.8494 4.2867 16.8991 4.37187C16.9488 4.45704 16.9812 4.55117 16.9945 4.64889C17.0078 4.7466 17.0017 4.84598 16.9765 4.94132C16.9513 5.03667 16.9076 5.12612 16.8478 5.20455L8.84782 15.7045C8.78293 15.7896 8.70059 15.8598 8.60634 15.9104C8.51209 15.961 8.4081 15.9909 8.30135 15.998C8.19461 16.0051 8.08758 15.9892 7.98745 15.9516C7.88732 15.9139 7.79641 15.8552 7.72082 15.7795L3.22082 11.2795C3.08834 11.1374 3.01622 10.9493 3.01965 10.755C3.02308 10.5607 3.10179 10.3753 3.2392 10.2379C3.37661 10.1005 3.562 10.0218 3.7563 10.0184C3.9506 10.0149 4.13865 10.0871 4.28082 10.2195L8.17482 14.1125L15.6548 4.29555C15.7752 4.1375 15.9534 4.03367 16.1502 4.00686C16.3471 3.98005 16.5466 4.03245 16.7048 4.15254Z" fill="#4B3CE4"/>
</svg>
