<svg width="19" height="18" viewBox="0 0 19 18" fill="none" xmlns="http://www.w3.org/2000/svg">
<path d="M15.7303 3.14003C14.5902 2.60859 13.3559 2.22286 12.0702 2C12.0476 2.00032 12.026 2.00956 12.0102 2.02572C11.8559 2.30858 11.6759 2.67716 11.5559 2.96003C10.1921 2.75444 8.80524 2.75444 7.44147 2.96003C7.32147 2.66859 7.14147 2.30858 6.9786 2.02572C6.97003 2.00857 6.94432 2 6.9186 2C5.63285 2.22286 4.4071 2.60859 3.2585 3.14003C3.24993 3.14003 3.24136 3.1486 3.23279 3.15717C0.901295 6.64584 0.25842 10.0402 0.575571 13.4003C0.575571 13.4175 0.584143 13.4346 0.601286 13.4432C2.14419 14.5746 3.62708 15.2604 5.09284 15.7147C5.11855 15.7232 5.14427 15.7147 5.15284 15.6975C5.49571 15.2261 5.80429 14.7289 6.07001 14.206C6.08715 14.1718 6.07001 14.1375 6.03572 14.1289C5.54714 13.9403 5.08427 13.7175 4.62997 13.4603C4.59568 13.4432 4.59568 13.3917 4.6214 13.366C4.71568 13.2975 4.80997 13.2203 4.90426 13.1517C4.9214 13.1346 4.94712 13.1346 4.96426 13.1432C7.91292 14.4889 11.093 14.4889 14.0074 13.1432C14.0245 13.1346 14.0502 13.1346 14.0674 13.1517C14.1617 13.2289 14.2559 13.2975 14.3502 13.3746C14.3845 13.4003 14.3845 13.4517 14.3417 13.4689C13.8959 13.7346 13.4245 13.9489 12.9359 14.1375C12.9016 14.146 12.8931 14.1889 12.9016 14.2146C13.1759 14.7375 13.4845 15.2346 13.8188 15.7061C13.8445 15.7147 13.8702 15.7232 13.8959 15.7147C15.3703 15.2604 16.8532 14.5746 18.3961 13.4432C18.4132 13.4346 18.4218 13.4175 18.4218 13.4003C18.7989 9.51735 17.796 6.14868 15.7646 3.15717C15.756 3.1486 15.7474 3.14003 15.7303 3.14003ZM6.51573 11.3517C5.63285 11.3517 4.89569 10.5374 4.89569 9.53449C4.89569 8.53161 5.61571 7.7173 6.51573 7.7173C7.42433 7.7173 8.14435 8.54018 8.13578 9.53449C8.13578 10.5374 7.41576 11.3517 6.51573 11.3517ZM12.4902 11.3517C11.6073 11.3517 10.8701 10.5374 10.8701 9.53449C10.8701 8.53161 11.5902 7.7173 12.4902 7.7173C13.3988 7.7173 14.1188 8.54018 14.1102 9.53449C14.1102 10.5374 13.3988 11.3517 12.4902 11.3517Z" fill="#4B3CE4"/>
</svg>
