<svg width="20" height="21" viewBox="0 0 20 21" fill="none" xmlns="http://www.w3.org/2000/svg">
<path d="M1.25 7.72461V14.8746C1.25 15.5377 1.51339 16.1735 1.98223 16.6424C2.45107 17.1112 3.08696 17.3746 3.75 17.3746H16.25C16.913 17.3746 17.5489 17.1112 18.0178 16.6424C18.4866 16.1735 18.75 15.5377 18.75 14.8746V7.72461L11.31 12.3021C10.916 12.5445 10.4626 12.6728 10 12.6728C9.53745 12.6728 9.08396 12.5445 8.69 12.3021L1.25 7.72461Z" fill="#A1A1AA"/>
<path d="M18.75 6.25667V6.125C18.75 5.46196 18.4866 4.82607 18.0178 4.35723C17.5489 3.88839 16.913 3.625 16.25 3.625H3.75C3.08696 3.625 2.45107 3.88839 1.98223 4.35723C1.51339 4.82607 1.25 5.46196 1.25 6.125V6.25667L9.345 11.2383C9.54198 11.3595 9.76872 11.4237 10 11.4237C10.2313 11.4237 10.458 11.3595 10.655 11.2383L18.75 6.25667Z" fill="#A1A1AA"/>
</svg>
