<svg width="60" height="60" viewBox="0 0 60 60" fill="none" xmlns="http://www.w3.org/2000/svg">
<mask id="path-1-outside-1_9167_40" maskUnits="userSpaceOnUse" x="1.99609" y="5.36442e-07" width="56" height="60" fill="black">
<rect fill="white" x="1.99609" y="5.36442e-07" width="56" height="60"/>
<path d="M34.2912 11.1151C34.3717 10.7379 34.3252 10.3447 34.1592 9.99655C33.9931 9.64844 33.7167 9.36494 33.3729 9.19012C33.0291 9.01529 32.6372 8.95893 32.258 9.0298C31.8789 9.10067 31.5338 9.29479 31.2764 9.582L11.4418 31.7501C11.2165 32.0019 11.069 32.3135 11.017 32.6474C10.9649 32.9812 11.0107 33.3229 11.1486 33.6313C11.2865 33.9397 11.5107 34.2016 11.7942 34.3854C12.0777 34.5692 12.4083 34.667 12.7462 34.667H21.5338C24.904 34.667 27.4163 37.7743 26.7105 41.0698L25.0366 48.8849C24.9562 49.2621 25.0026 49.6553 25.1687 50.0034C25.3348 50.3516 25.6112 50.6351 25.955 50.8099C26.2988 50.9847 26.6907 51.0411 27.0698 50.9702C27.449 50.8993 27.7941 50.7052 28.0515 50.418L47.8861 28.2499C48.1113 27.9981 48.2589 27.6864 48.3109 27.3526C48.3629 27.0188 48.3172 26.6771 48.1793 26.3687C48.0414 26.0603 47.8171 25.7984 47.5337 25.6146C47.2502 25.4308 46.9195 25.333 46.5817 25.333H37.7941C34.4239 25.333 31.9116 22.2257 32.6174 18.9302L34.2912 11.1151Z"/>
</mask>
<path d="M34.2912 11.1151L42.9191 12.963L42.9207 12.9553L34.2912 11.1151ZM31.2764 9.582L24.7059 3.69274L24.7007 3.69852L31.2764 9.582ZM11.4418 31.7501L4.86609 25.8666L4.86508 25.8678L11.4418 31.7501ZM12.7462 34.667L12.746 43.4905H12.7462V34.667ZM25.0366 48.8849L16.4088 47.037L16.4071 47.0447L25.0366 48.8849ZM28.0515 50.418L34.622 56.3073L34.6272 56.3015L28.0515 50.418ZM47.8861 28.2499L54.4618 34.1334L54.4628 34.1322L47.8861 28.2499ZM46.5817 25.333L46.5819 16.5095H46.5817V25.333ZM26.7105 41.0698L18.0826 39.2219L26.7105 41.0698ZM42.9207 12.9553C43.4067 10.6762 43.1262 8.30051 42.1229 6.19733L26.1955 13.7958C25.5243 12.3888 25.3366 10.7995 25.6617 9.27495L42.9207 12.9553ZM42.1229 6.19733C41.1195 4.09415 39.4495 2.38132 37.3724 1.32508L29.3734 17.0552C27.9839 16.3486 26.8667 15.2027 26.1955 13.7958L42.1229 6.19733ZM37.3724 1.32508C35.2952 0.268834 32.9274 -0.0716729 30.6368 0.356493L33.8793 17.7031C32.347 17.9895 30.7629 17.7617 29.3734 17.0552L37.3724 1.32508ZM30.6368 0.356493C28.3462 0.784656 26.2612 1.9575 24.7059 3.69274L37.8469 15.4713C36.8064 16.6321 35.4116 17.4167 33.8793 17.7031L30.6368 0.356493ZM24.7007 3.69852L4.86609 25.8666L18.0174 37.6336L37.852 15.4655L24.7007 3.69852ZM4.86508 25.8678C3.50431 27.3891 2.61299 29.2719 2.29868 31.2886L19.7353 34.0061C19.525 35.3552 18.9287 36.6147 18.0184 37.6325L4.86508 25.8678ZM2.29868 31.2886C1.98437 33.3054 2.26052 35.3701 3.09379 37.2334L19.2034 30.0292C19.7608 31.2757 19.9455 32.6569 19.7353 34.0061L2.29868 31.2886ZM3.09379 37.2334C3.92706 39.0967 5.28183 40.679 6.99458 41.7893L16.5939 26.9815C17.7396 27.7242 18.6459 28.7827 19.2034 30.0292L3.09379 37.2334ZM6.99458 41.7893C8.70731 42.8996 10.7048 43.4904 12.746 43.4905L12.7464 25.8434C14.1118 25.8435 15.4481 26.2387 16.5939 26.9815L6.99458 41.7893ZM12.7462 43.4905H21.5338V25.8434H12.7462V43.4905ZM18.0826 39.2219L16.4088 47.037L33.6645 50.7328L35.3383 42.9177L18.0826 39.2219ZM16.4071 47.0447C15.9211 49.3238 16.2016 51.6995 17.205 53.8027L33.1324 46.2042C33.8036 47.6112 33.9912 49.2005 33.6661 50.725L16.4071 47.0447ZM17.205 53.8027C18.2083 55.9058 19.8784 57.6187 21.9555 58.6749L29.9545 42.9448C31.344 43.6514 32.4612 44.7973 33.1324 46.2042L17.205 53.8027ZM21.9555 58.6749C24.0326 59.7312 26.4005 60.0717 28.6911 59.6435L25.4486 42.2969C26.9809 42.0105 28.5649 42.2383 29.9545 42.9448L21.9555 58.6749ZM28.6911 59.6435C30.9817 59.2153 33.0667 58.0425 34.622 56.3073L21.481 44.5287C22.5215 43.3679 23.9162 42.5833 25.4486 42.2969L28.6911 59.6435ZM34.6272 56.3015L54.4618 34.1334L41.3105 22.3664L21.4758 44.5345L34.6272 56.3015ZM54.4628 34.1322C55.8236 32.6108 56.7149 30.7281 57.0292 28.7113L39.5926 25.9939C39.8029 24.6448 40.3991 23.3853 41.3095 22.3675L54.4628 34.1322ZM57.0292 28.7113C57.3435 26.6945 57.0673 24.6299 56.2341 22.7666L40.1245 29.9708C39.5671 28.7243 39.3823 27.3431 39.5926 25.9939L57.0292 28.7113ZM56.2341 22.7666C55.4008 20.9033 54.046 19.321 52.3333 18.2107L42.734 33.0185C41.5882 32.2758 40.6819 31.2173 40.1245 29.9708L56.2341 22.7666ZM52.3333 18.2107C50.6206 17.1004 48.6231 16.5095 46.5819 16.5095L46.5815 34.1566C45.216 34.1565 43.8798 33.7613 42.734 33.0185L52.3333 18.2107ZM46.5817 16.5095H37.7941V34.1566H46.5817V16.5095ZM41.2453 20.7781L42.9191 12.963L25.6634 9.26719L23.9896 17.0822L41.2453 20.7781ZM37.7941 16.5095C40.041 16.5095 41.7158 18.5811 41.2453 20.7781L23.9896 17.0822C22.1073 25.8703 28.8068 34.1566 37.7941 34.1566V16.5095ZM21.5338 43.4905C19.2869 43.4905 17.6121 41.4189 18.0826 39.2219L35.3383 42.9177C37.2205 34.1297 30.5211 25.8434 21.5338 25.8434V43.4905Z" fill="url(#paint0_linear_9167_40)" mask="url(#path-1-outside-1_9167_40)"/>
<path d="M47.5457 25.596L47.5337 25.6146L47.5457 25.596ZM47.5457 25.596L47.5576 25.5777L47.5457 25.596ZM36.8796 11.6695L36.8801 11.6672C37.0822 10.7194 36.9655 9.73141 36.5483 8.85679C36.131 7.98216 35.4365 7.26986 34.5727 6.83061L33.3729 9.19012L34.5727 6.8306C33.7089 6.39135 32.7242 6.24975 31.7717 6.42781C30.8191 6.60586 29.952 7.0936 29.3052 7.81522L29.3037 7.81696L9.46905 29.9851L9.46875 29.9854C8.90286 30.6181 8.53219 31.401 8.40148 32.2397C8.27077 33.0785 8.38561 33.9371 8.73214 34.7119C9.07866 35.4868 9.64206 36.1448 10.3543 36.6066L11.7942 34.3854L10.3543 36.6066C11.0666 37.0683 11.8973 37.314 12.7461 37.314H12.7462H24.8078L22.4483 48.3305L22.4478 48.3328C22.2457 49.2806 22.3623 50.2686 22.7796 51.1432C23.1968 52.0178 23.8913 52.7301 24.7552 53.1694C25.6189 53.6086 26.6036 53.7502 27.5562 53.5722C28.5088 53.3941 29.3758 52.9064 30.0226 52.1848L30.0242 52.183L49.8588 30.0149L49.8591 30.0146C50.425 29.3819 50.7957 28.599 50.9264 27.7603C51.0571 26.9215 50.9423 26.0629 50.5957 25.2881C50.2492 24.5132 49.6858 23.8552 48.9736 23.3934L48.9735 23.3934C48.2613 22.9317 47.4306 22.686 46.5818 22.686H46.5817H34.5201L36.8796 11.6695Z" fill="url(#paint1_linear_9167_40)" stroke="#F6F6F6" stroke-width="5.29412"/>
<defs>
<linearGradient id="paint0_linear_9167_40" x1="29.6639" y1="9" x2="29.6639" y2="51" gradientUnits="userSpaceOnUse">
<stop stop-color="#4B3CE4"/>
<stop offset="1" stop-color="#29217E"/>
</linearGradient>
<linearGradient id="paint1_linear_9167_40" x1="29.6639" y1="9" x2="29.6639" y2="51" gradientUnits="userSpaceOnUse">
<stop stop-color="#29217E"/>
<stop offset="1" stop-color="#4B3CE4"/>
</linearGradient>
</defs>
</svg>
