<svg width="41" height="40" viewBox="0 0 41 40" fill="none" xmlns="http://www.w3.org/2000/svg">
<mask id="path-1-outside-1_8682_18879" maskUnits="userSpaceOnUse" x="0.792969" y="-0.0400391" width="40" height="40" fill="black">
<rect fill="white" x="0.792969" y="-0.0400391" width="40" height="40"/>
<path d="M20.8344 15.788C19.7173 15.788 18.6459 16.2317 17.856 17.0216C17.0661 17.8115 16.6224 18.8829 16.6224 20C16.6224 21.1171 17.0661 22.1884 17.856 22.9783C18.6459 23.7682 19.7173 24.212 20.8344 24.212C21.9515 24.212 23.0228 23.7682 23.8127 22.9783C24.6026 22.1884 25.0464 21.1171 25.0464 20C25.0464 18.8829 24.6026 17.8115 23.8127 17.0216C23.0228 16.2317 21.9515 15.788 20.8344 15.788ZM20.8344 12.98C22.6962 12.98 24.4818 13.7196 25.7983 15.0361C27.1148 16.3526 27.8544 18.1381 27.8544 20C27.8544 21.8618 27.1148 23.6473 25.7983 24.9639C24.4818 26.2804 22.6962 27.02 20.8344 27.02C18.9726 27.02 17.187 26.2804 15.8705 24.9639C14.554 23.6473 13.8144 21.8618 13.8144 20C13.8144 18.1381 14.554 16.3526 15.8705 15.0361C17.187 13.7196 18.9726 12.98 20.8344 12.98ZM29.9604 12.629C29.9604 13.0944 29.7755 13.5408 29.4463 13.8699C29.1172 14.1991 28.6708 14.384 28.2054 14.384C27.7399 14.384 27.2935 14.1991 26.9644 13.8699C26.6353 13.5408 26.4504 13.0944 26.4504 12.629C26.4504 12.1635 26.6353 11.7171 26.9644 11.388C27.2935 11.0589 27.7399 10.874 28.2054 10.874C28.6708 10.874 29.1172 11.0589 29.4463 11.388C29.7755 11.7171 29.9604 12.1635 29.9604 12.629ZM20.8344 8.76796C17.3609 8.76796 16.7937 8.77779 15.1777 8.84939C14.0769 8.90134 13.3384 9.04876 12.6533 9.31552C12.0802 9.52664 11.562 9.86397 11.1369 10.3025C10.6979 10.7274 10.3601 11.2457 10.1485 11.8189C9.88177 12.5068 9.73435 13.2439 9.6838 14.3432C9.6108 15.8933 9.60097 16.4352 9.60097 20C9.60097 23.4749 9.6108 24.0407 9.6824 25.6567C9.73435 26.756 9.88177 27.4959 10.1471 28.1797C10.3858 28.7904 10.6666 29.2299 11.1327 29.696C11.6059 30.1677 12.0453 30.4499 12.6491 30.683C13.3426 30.9512 14.0811 31.1 15.1763 31.1505C16.7263 31.2235 17.2682 31.232 20.833 31.232C24.3079 31.232 24.8737 31.2221 26.4897 31.1505C27.5876 31.0986 28.3261 30.9512 29.0127 30.6858C29.5857 30.4747 30.104 30.1374 30.529 29.6988C31.0021 29.2271 31.2843 28.7876 31.5174 28.1825C31.7842 27.4917 31.933 26.7532 31.9835 25.6553C32.0565 24.1067 32.065 23.5633 32.065 20C32.065 16.5265 32.0551 15.9592 31.9835 14.3432C31.9316 13.2453 31.7828 12.504 31.5174 11.8189C31.3063 11.2458 30.969 10.7276 30.5304 10.3025C30.1055 9.86346 29.5873 9.52565 29.0141 9.31412C28.3261 9.04736 27.5876 8.89994 26.4897 8.84939C24.9411 8.77639 24.3991 8.76796 20.833 8.76796M20.833 5.95996C24.6476 5.95996 25.1236 5.974 26.6217 6.0442C28.1155 6.1144 29.1348 6.34887 30.0292 6.69706C30.9558 7.05368 31.7364 7.53665 32.5171 8.31587C33.2313 9.0175 33.7837 9.86655 34.1359 10.8038C34.4827 11.6981 34.7185 12.7174 34.7887 14.2127C34.8547 15.7093 34.873 16.1853 34.873 20C34.873 23.8146 34.8589 24.2906 34.7887 25.7872C34.7185 27.2839 34.4827 28.3004 34.1359 29.1962C33.7837 30.1334 33.2313 30.9824 32.5171 31.684C31.8154 32.3983 30.9664 32.9507 30.0292 33.3029C29.1348 33.6497 28.1155 33.8855 26.6217 33.9557C25.1236 34.0217 24.6476 34.04 20.833 34.04C17.0183 34.04 16.5423 34.0259 15.0443 33.9557C13.5504 33.8855 12.5325 33.6497 11.6368 33.3029C10.6996 32.9507 9.85051 32.3983 9.14888 31.684C8.43467 30.9824 7.88221 30.1334 7.53007 29.1962C7.18188 28.3018 6.94741 27.2825 6.87721 25.7872C6.80982 24.2906 6.79297 23.8146 6.79297 20C6.79297 16.1853 6.80701 15.7093 6.87721 14.2127C6.94741 12.716 7.18188 11.6995 7.53007 10.8038C7.88221 9.86655 8.43467 9.0175 9.14888 8.31587C9.85051 7.60167 10.6996 7.04921 11.6368 6.69706C12.5311 6.34887 13.549 6.1144 15.0443 6.0442C16.5437 5.97821 17.0197 5.95996 20.8344 5.95996"/>
</mask>
<path d="M20.8344 24.212V30.062V24.212ZM20.8344 12.98V7.12996V12.98ZM27.8544 20H22.0044H27.8544ZM20.8344 27.02V21.17V27.02ZM15.1777 8.84939L14.9187 3.00513L14.9103 3.0055L14.9019 3.0059L15.1777 8.84939ZM12.6533 9.31552L14.6756 14.8049L14.7258 14.7863L14.7757 14.7669L12.6533 9.31552ZM11.1369 10.3025L15.205 14.5065L15.2725 14.4412L15.3379 14.3737L11.1369 10.3025ZM10.1485 11.8189L15.6028 13.9338L15.6202 13.8891L15.6367 13.8442L10.1485 11.8189ZM9.6838 14.3432L15.5273 14.6185L15.5276 14.6119L9.6838 14.3432ZM9.6824 25.6567L3.83814 25.9156L3.83852 25.9242L3.83892 25.9328L9.6824 25.6567ZM10.1471 28.1797L4.69341 30.2962L4.69843 30.309L10.1471 28.1797ZM11.1327 29.696L6.99615 33.8326L7.00231 33.8387L11.1327 29.696ZM12.6491 30.683L14.7587 25.2266L14.7559 25.2255L12.6491 30.683ZM15.1763 31.1505L15.4515 25.307L15.446 25.3067L15.1763 31.1505ZM26.4897 31.1505L26.7486 36.9948L26.7574 36.9944L26.7662 36.994L26.4897 31.1505ZM29.0127 30.6858L26.9904 25.1965L26.9469 25.2125L26.9037 25.2292L29.0127 30.6858ZM30.529 29.6988L26.3986 25.5561L26.363 25.5915L26.3281 25.6276L30.529 29.6988ZM31.5174 28.1825L26.0602 26.075L26.0583 26.0799L31.5174 28.1825ZM31.9835 25.6553L26.14 25.3798L26.1397 25.3862L31.9835 25.6553ZM31.9835 14.3432L37.8278 14.0843L37.8274 14.0755L37.827 14.0668L31.9835 14.3432ZM31.5174 11.8189L26.0281 13.8411L26.0448 13.8865L26.0623 13.9316L31.5174 11.8189ZM30.5304 10.3025L26.3264 14.3706L26.3917 14.4381L26.4592 14.5034L30.5304 10.3025ZM29.0141 9.31412L26.8991 14.7684L26.9438 14.7857L26.9887 14.8023L29.0141 9.31412ZM26.4897 8.84939L26.2142 14.6929L26.2207 14.6932L26.4897 8.84939ZM26.6217 6.0442L26.8963 0.200649L26.8955 0.200613L26.6217 6.0442ZM30.0292 6.69706L27.9068 12.1485L27.9174 12.1526L27.928 12.1567L30.0292 6.69706ZM32.5171 8.31587L28.3842 12.4562L28.4007 12.4727L28.4174 12.489L32.5171 8.31587ZM34.1359 10.8038L28.6597 12.8614L28.6705 12.8901L28.6816 12.9187L34.1359 10.8038ZM34.7887 14.2127L40.6331 13.955L40.6327 13.9467L40.6323 13.9383L34.7887 14.2127ZM34.1359 29.1962L28.6804 27.0841L28.6699 27.1113L28.6597 27.1385L34.1359 29.1962ZM32.5171 31.684L28.4174 27.5109L28.3803 27.5473L28.3439 27.5844L32.5171 31.684ZM30.0292 33.3029L27.9715 27.8267L27.9428 27.8375L27.9142 27.8485L30.0292 33.3029ZM26.6217 33.9557L26.8791 39.8001L26.8877 39.7997L26.8963 39.7993L26.6217 33.9557ZM15.0443 33.9557L14.7697 39.7993L14.7704 39.7993L15.0443 33.9557ZM11.6368 33.3029L13.7488 27.8474L13.7217 27.8369L13.6944 27.8267L11.6368 33.3029ZM9.14888 31.684L13.322 27.5844L13.2856 27.5473L13.2485 27.5109L9.14888 31.684ZM7.53007 29.1962L13.0063 27.1385L12.9941 27.1061L12.9815 27.0738L7.53007 29.1962ZM6.87721 25.7872L1.03312 26.0504L1.03365 26.0616L6.87721 25.7872ZM7.53007 10.8038L12.9826 12.9232L12.9946 12.8924L13.0063 12.8614L7.53007 10.8038ZM9.14888 8.31587L13.2485 12.489L13.2856 12.4526L13.322 12.4155L9.14888 8.31587ZM11.6368 6.69706L13.6944 12.1733L13.7268 12.1611L13.7591 12.1485L11.6368 6.69706ZM15.0443 6.0442L14.7871 0.199857L14.7785 0.200235L14.7699 0.200637L15.0443 6.0442ZM20.8344 9.93796C18.1658 9.93796 15.6065 10.9981 13.7195 12.8851L21.9926 21.1582C21.6854 21.4654 21.2688 21.638 20.8344 21.638V9.93796ZM13.7195 12.8851C11.8325 14.772 10.7724 17.3314 10.7724 20H22.4724C22.4724 20.4344 22.2998 20.851 21.9926 21.1582L13.7195 12.8851ZM10.7724 20C10.7724 22.6686 11.8325 25.2279 13.7195 27.1149L21.9926 18.8417C22.2998 19.1489 22.4724 19.5655 22.4724 20H10.7724ZM13.7195 27.1149C15.6065 29.0019 18.1658 30.062 20.8344 30.062V18.362C21.2688 18.362 21.6854 18.5345 21.9926 18.8417L13.7195 27.1149ZM20.8344 30.062C23.503 30.062 26.0623 29.0019 27.9493 27.1149L19.6761 18.8417C19.9833 18.5345 20.4 18.362 20.8344 18.362V30.062ZM27.9493 27.1149C29.8363 25.2279 30.8964 22.6686 30.8964 20H19.1964C19.1964 19.5655 19.3689 19.1489 19.6761 18.8417L27.9493 27.1149ZM30.8964 20C30.8964 17.3314 29.8363 14.772 27.9493 12.8851L19.6761 21.1582C19.3689 20.851 19.1964 20.4344 19.1964 20H30.8964ZM27.9493 12.8851C26.0623 10.9981 23.503 9.93796 20.8344 9.93796V21.638C20.4 21.638 19.9833 21.4654 19.6761 21.1582L27.9493 12.8851ZM20.8344 18.83C21.1447 18.83 21.4423 18.9532 21.6617 19.1726L29.9348 10.8995C27.5212 8.4859 24.2477 7.12996 20.8344 7.12996V18.83ZM21.6617 19.1726C21.8811 19.3921 22.0044 19.6897 22.0044 20L33.7044 20C33.7044 16.5866 32.3484 13.3131 29.9348 10.8995L21.6617 19.1726ZM22.0044 20C22.0044 20.3103 21.8811 20.6079 21.6617 20.8273L29.9348 29.1004C32.3484 26.6868 33.7044 23.4133 33.7044 20L22.0044 20ZM21.6617 20.8273C21.4423 21.0467 21.1447 21.17 20.8344 21.17V32.87C24.2477 32.87 27.5212 31.514 29.9348 29.1004L21.6617 20.8273ZM20.8344 21.17C20.5241 21.17 20.2265 21.0467 20.0071 20.8273L11.7339 29.1004C14.1475 31.514 17.421 32.87 20.8344 32.87V21.17ZM20.0071 20.8273C19.7876 20.6079 19.6644 20.3103 19.6644 20H7.96437C7.96437 23.4133 9.32032 26.6868 11.7339 29.1004L20.0071 20.8273ZM19.6644 20C19.6644 19.6897 19.7876 19.3921 20.0071 19.1726L11.7339 10.8995C9.32032 13.3131 7.96437 16.5866 7.96437 20H19.6644ZM20.0071 19.1726C20.2265 18.9532 20.5241 18.83 20.8344 18.83V7.12996C17.421 7.12996 14.1475 8.4859 11.7339 10.8995L20.0071 19.1726ZM24.1104 12.629C24.1104 11.5429 24.5418 10.5013 25.3098 9.73336L33.5829 18.0065C35.0091 16.5803 35.8104 14.6459 35.8104 12.629H24.1104ZM25.3098 9.73336C26.0777 8.96539 27.1193 8.53396 28.2054 8.53396V20.234C30.2223 20.234 32.1567 19.4327 33.5829 18.0065L25.3098 9.73336ZM28.2054 8.53396C29.2914 8.53396 30.333 8.9654 31.101 9.73336L22.8278 18.0065C24.254 19.4327 26.1884 20.234 28.2054 20.234V8.53396ZM31.101 9.73336C31.8689 10.5013 32.3004 11.5429 32.3004 12.629H20.6004C20.6004 14.6459 21.4016 16.5803 22.8278 18.0065L31.101 9.73336ZM32.3004 12.629C32.3004 13.715 31.8689 14.7566 31.101 15.5246L22.8278 7.25141C21.4016 8.67762 20.6004 10.612 20.6004 12.629H32.3004ZM31.101 15.5246C30.333 16.2925 29.2914 16.724 28.2054 16.724V5.02396C26.1884 5.02396 24.254 5.8252 22.8278 7.25141L31.101 15.5246ZM28.2054 16.724C27.1193 16.724 26.0777 16.2925 25.3098 15.5246L33.5829 7.25141C32.1567 5.8252 30.2223 5.02396 28.2054 5.02396V16.724ZM25.3098 15.5246C24.5418 14.7566 24.1104 13.715 24.1104 12.629H35.8104C35.8104 10.612 35.0091 8.67764 33.5829 7.25141L25.3098 15.5246ZM20.8344 2.91796C17.3427 2.91796 16.6694 2.92755 14.9187 3.00513L15.4366 14.6937C16.9179 14.628 17.379 14.618 20.8344 14.618V2.91796ZM14.9019 3.0059C13.366 3.07838 11.9659 3.30537 10.5308 3.86413L14.7757 14.7669C14.7762 14.7667 14.7832 14.762 14.8407 14.7511C14.9168 14.7368 15.097 14.7097 15.4534 14.6929L14.9019 3.0059ZM10.631 3.82618C9.23453 4.34064 7.97171 5.16264 6.93603 6.23132L15.3379 14.3737C15.1522 14.5653 14.9259 14.7126 14.6756 14.8049L10.631 3.82618ZM7.06887 6.09858C5.99895 7.13391 5.17576 8.39676 4.66031 9.79352L15.6367 13.8442C15.5444 14.0946 15.3968 14.3209 15.205 14.5065L7.06887 6.09858ZM4.69422 9.70392C4.13897 11.1359 3.91091 12.5317 3.83998 14.0746L15.5276 14.6119C15.5439 14.2586 15.5707 14.0806 15.5847 14.0059C15.5952 13.9497 15.6003 13.9403 15.6028 13.9338L4.69422 9.70392ZM3.84028 14.068C3.76038 15.7644 3.75097 16.4226 3.75097 20H15.451C15.451 16.4478 15.4612 16.0221 15.5273 14.6185L3.84028 14.068ZM3.75097 20C3.75097 23.493 3.76056 24.1649 3.83814 25.9156L15.5267 25.3977C15.461 23.9164 15.451 23.4567 15.451 20H3.75097ZM3.83892 25.9328C3.91137 27.4659 4.13797 28.8649 4.69343 30.2962L15.6008 26.0631C15.6008 26.0631 15.5956 26.055 15.5844 25.9953C15.5698 25.9175 15.5427 25.7361 15.5259 25.3805L3.83892 25.9328ZM4.69843 30.309C5.21846 31.6397 5.93452 32.7709 6.99616 33.8326L15.2693 25.5594C15.2807 25.5708 15.3667 25.6605 15.4651 25.8124C15.5617 25.9616 15.6016 26.065 15.5958 26.0503L4.69843 30.309ZM7.00231 33.8387C8.05424 34.8875 9.18383 35.616 10.5422 36.1404L14.7559 25.2255C14.7529 25.2244 14.7832 25.236 14.8357 25.2622C14.89 25.2892 14.9557 25.3258 15.0265 25.3718C15.1789 25.4707 15.2632 25.5533 15.2632 25.5533L7.00231 33.8387ZM10.5394 36.1394C11.9661 36.691 13.3576 36.9228 14.9065 36.9943L15.446 25.3067C15.0984 25.2907 14.9222 25.264 14.847 25.2499C14.7896 25.239 14.7745 25.2327 14.7587 25.2266L10.5394 36.1394ZM14.901 36.9941C16.5996 37.0741 17.2605 37.082 20.833 37.082V25.382C17.2759 25.382 16.8529 25.373 15.4515 25.307L14.901 36.9941ZM20.833 37.082C24.3261 37.082 24.9979 37.0724 26.7486 36.9948L26.2307 25.3063C24.7494 25.3719 24.2897 25.382 20.833 25.382V37.082ZM26.7662 36.994C28.3017 36.9213 29.6946 36.694 31.1217 36.1424L26.9037 25.2292C26.8976 25.2315 26.8863 25.2373 26.8263 25.2486C26.7483 25.2632 26.5675 25.2903 26.2132 25.3071L26.7662 36.994ZM31.035 36.1751C32.4314 35.6607 33.6942 34.8387 34.7299 33.77L26.3281 25.6276C26.5137 25.436 26.7401 25.2887 26.9904 25.1965L31.035 36.1751ZM34.6594 33.8415C35.7199 32.7842 36.4517 31.6476 36.9765 30.285L26.0583 26.0799C26.0571 26.0829 26.0689 26.0521 26.0955 25.9987C26.1231 25.9434 26.1604 25.8762 26.2076 25.8036C26.2548 25.731 26.3008 25.6698 26.3399 25.6225C26.3778 25.5767 26.4009 25.5538 26.3986 25.5561L34.6594 33.8415ZM36.9746 30.2899C37.5247 28.8655 37.756 27.4741 37.8273 25.9243L26.1397 25.3862C26.1236 25.7357 26.0969 25.9132 26.0826 25.989C26.0717 26.047 26.0655 26.0613 26.0602 26.075L36.9746 30.2899ZM37.827 25.9308C37.9071 24.2334 37.915 23.5709 37.915 20H26.215C26.215 23.5557 26.206 23.98 26.14 25.3798L37.827 25.9308ZM37.915 20C37.915 16.5083 37.9054 15.835 37.8278 14.0843L26.1393 14.6022C26.2049 16.0835 26.215 16.5446 26.215 20H37.915ZM37.827 14.0668C37.7542 12.5276 37.5245 11.1313 36.9726 9.7061L26.0623 13.9316C26.0641 13.9364 26.0701 13.9479 26.0815 14.0088C26.0963 14.0873 26.1234 14.2679 26.1401 14.6197L37.827 14.0668ZM37.0067 9.79656C36.4923 8.40011 35.6703 7.13729 34.6016 6.10162L26.4592 14.5034C26.2676 14.3178 26.1203 14.0915 26.0281 13.8411L37.0067 9.79656ZM34.7344 6.23445C33.699 5.16454 32.4362 4.34135 31.0394 3.8259L26.9887 14.8023C26.7384 14.7099 26.512 14.5624 26.3264 14.3706L34.7344 6.23445ZM31.129 3.8598C29.6965 3.30433 28.2991 3.07649 26.7587 3.00558L26.2207 14.6932C26.5732 14.7094 26.7515 14.7362 26.8269 14.7504C26.8841 14.7611 26.8936 14.7663 26.8991 14.7684L31.129 3.8598ZM26.7652 3.00588C25.0678 2.92586 24.4067 2.91796 20.833 2.91796V14.618C24.3915 14.618 24.8144 14.6269 26.2142 14.6929L26.7652 3.00588ZM20.833 11.81C24.6265 11.81 24.9913 11.8242 26.3478 11.8878L26.8955 0.200613C25.2559 0.123783 24.6687 0.109961 20.833 0.109961V11.81ZM26.3471 11.8878C26.8507 11.9114 27.1815 11.9584 27.4005 12.0023C27.6083 12.0439 27.7616 12.092 27.9068 12.1485L32.1515 1.24564C30.5863 0.636244 28.931 0.296267 26.8963 0.20065L26.3471 11.8878ZM27.928 12.1567C28.07 12.2113 28.1328 12.2486 28.1638 12.2685C28.1944 12.2882 28.2634 12.3356 28.3842 12.4562L36.6499 4.17558C35.2666 2.79472 33.7852 1.8743 32.1303 1.23742L27.928 12.1567ZM28.4174 12.489C28.5243 12.594 28.607 12.7211 28.6597 12.8614L39.6121 8.74614C38.9605 7.01199 37.9382 5.44095 36.6167 4.1427L28.4174 12.489ZM28.6816 12.9187C28.7397 13.0688 28.7885 13.2251 28.8304 13.434C28.8745 13.6538 28.9216 13.9847 28.9452 14.487L40.6323 13.9383C40.5364 11.8968 40.1938 10.2455 39.5902 8.68882L28.6816 12.9187ZM28.9444 14.4703C29.0049 15.8427 29.023 16.2213 29.023 20H40.723C40.723 16.1493 40.7045 15.576 40.6331 13.955L28.9444 14.4703ZM29.023 20C29.023 23.7936 29.0087 24.1582 28.9452 25.5132L40.6323 26.0613C40.7092 24.423 40.723 23.8356 40.723 20H29.023ZM28.9452 25.5132C28.9216 26.0161 28.8745 26.3463 28.8305 26.5652C28.7888 26.7731 28.74 26.9303 28.6804 27.0841L39.5913 31.3082C40.1931 29.7537 40.5364 28.1067 40.6323 26.0613L28.9452 25.5132ZM28.6597 27.1385C28.607 27.2788 28.5243 27.4059 28.4174 27.5109L36.6167 35.8572C37.9382 34.559 38.9605 32.9879 39.6121 31.2538L28.6597 27.1385ZM28.3439 27.5844C28.2389 27.6913 28.1118 27.774 27.9715 27.8267L32.0868 38.7791C33.8209 38.1275 35.392 37.1052 36.6902 35.7837L28.3439 27.5844ZM27.9142 27.8485C27.7641 27.9068 27.6076 27.9555 27.3988 27.9975C27.1791 28.0416 26.8485 28.0886 26.3471 28.1122L26.8963 39.7993C28.9366 39.7034 30.5878 39.3606 32.1441 38.7572L27.9142 27.8485ZM26.3642 28.1114C24.9903 28.1719 24.6115 28.19 20.833 28.19V39.89C24.6837 39.89 25.2569 39.8715 26.8791 39.8001L26.3642 28.1114ZM20.833 28.19C17.0394 28.19 16.6747 28.1757 15.3181 28.1121L14.7704 39.7993C16.41 39.8761 16.9972 39.89 20.833 39.89V28.19ZM15.3189 28.1122C14.8176 28.0886 14.4875 28.0416 14.2681 27.9975C14.0594 27.9556 13.9019 27.9067 13.7488 27.8474L9.52471 38.7583C11.0793 39.3602 12.7276 39.7033 14.7697 39.7993L15.3189 28.1122ZM13.6944 27.8267C13.5541 27.774 13.4271 27.6913 13.322 27.5844L4.97571 35.7837C6.27396 37.1052 7.845 38.1275 9.57915 38.7791L13.6944 27.8267ZM13.2485 27.5109C13.1417 27.4059 13.059 27.2788 13.0063 27.1385L2.05387 31.2538C2.70546 32.9879 3.7277 34.559 5.04923 35.8572L13.2485 27.5109ZM12.9815 27.0738C12.925 26.9287 12.877 26.7754 12.8354 26.5677C12.7915 26.3486 12.7445 26.0174 12.7208 25.5129L1.03365 26.0616C1.12923 28.0975 1.46912 29.7529 2.07865 31.3185L12.9815 27.0738ZM12.7213 25.5241C12.6598 24.1577 12.643 23.7835 12.643 20H0.942969C0.942969 23.8457 0.959874 24.4235 1.03313 26.0504L12.7213 25.5241ZM12.643 20C12.643 16.2063 12.6572 15.8417 12.7208 14.4868L1.03363 13.9386C0.956788 15.5769 0.942969 16.1643 0.942969 20H12.643ZM12.7208 14.4868C12.7445 13.9817 12.7915 13.6512 12.8352 13.433C12.8767 13.2262 12.9248 13.072 12.9826 12.9232L2.07752 8.68428C1.46979 10.2477 1.12931 11.8988 1.03363 13.9386L12.7208 14.4868ZM13.0063 12.8614C13.059 12.7211 13.1416 12.594 13.2485 12.489L5.04923 4.1427C3.7277 5.44095 2.70546 7.01199 2.05387 8.74614L13.0063 12.8614ZM13.322 12.4155C13.4271 12.3086 13.5541 12.226 13.6944 12.1733L9.57915 1.22087C7.845 1.87246 6.27396 2.8947 4.97571 4.21622L13.322 12.4155ZM13.7591 12.1485C13.9051 12.0917 14.0582 12.0437 14.2653 12.0022C14.4836 11.9584 14.8142 11.9114 15.3186 11.8878L14.7699 0.200637C12.733 0.296268 11.0792 0.636435 9.51439 1.24564L13.7591 12.1485ZM15.3015 11.8885C16.677 11.828 17.0559 11.81 20.8344 11.81V0.109961C16.9835 0.109961 16.4105 0.128414 14.7871 0.199857L15.3015 11.8885Z" fill="url(#paint0_linear_8682_18879)" mask="url(#path-1-outside-1_8682_18879)"/>
<mask id="path-3-outside-2_8682_18879" maskUnits="userSpaceOnUse" x="2.79297" y="1.95996" width="36" height="36" fill="black">
<rect fill="white" x="2.79297" y="1.95996" width="36" height="36"/>
<path d="M20.8344 15.788C19.7173 15.788 18.6459 16.2317 17.856 17.0216C17.0661 17.8115 16.6224 18.8829 16.6224 20C16.6224 21.1171 17.0661 22.1884 17.856 22.9783C18.6459 23.7682 19.7173 24.212 20.8344 24.212C21.9515 24.212 23.0228 23.7682 23.8127 22.9783C24.6026 22.1884 25.0464 21.1171 25.0464 20C25.0464 18.8829 24.6026 17.8115 23.8127 17.0216C23.0228 16.2317 21.9515 15.788 20.8344 15.788ZM20.8344 12.98C22.6962 12.98 24.4818 13.7196 25.7983 15.0361C27.1148 16.3526 27.8544 18.1381 27.8544 20C27.8544 21.8618 27.1148 23.6473 25.7983 24.9639C24.4818 26.2804 22.6962 27.02 20.8344 27.02C18.9726 27.02 17.187 26.2804 15.8705 24.9639C14.554 23.6473 13.8144 21.8618 13.8144 20C13.8144 18.1381 14.554 16.3526 15.8705 15.0361C17.187 13.7196 18.9726 12.98 20.8344 12.98ZM29.9604 12.629C29.9604 13.0944 29.7755 13.5408 29.4463 13.8699C29.1172 14.1991 28.6708 14.384 28.2054 14.384C27.7399 14.384 27.2935 14.1991 26.9644 13.8699C26.6353 13.5408 26.4504 13.0944 26.4504 12.629C26.4504 12.1635 26.6353 11.7171 26.9644 11.388C27.2935 11.0589 27.7399 10.874 28.2054 10.874C28.6708 10.874 29.1172 11.0589 29.4463 11.388C29.7755 11.7171 29.9604 12.1635 29.9604 12.629ZM20.8344 8.76796C17.3609 8.76796 16.7937 8.77779 15.1777 8.84939C14.0769 8.90134 13.3384 9.04876 12.6533 9.31552C12.0802 9.52664 11.562 9.86397 11.1369 10.3025C10.6979 10.7274 10.3601 11.2457 10.1485 11.8189C9.88177 12.5068 9.73435 13.2439 9.6838 14.3432C9.6108 15.8933 9.60097 16.4352 9.60097 20C9.60097 23.4749 9.6108 24.0407 9.6824 25.6567C9.73435 26.756 9.88177 27.4959 10.1471 28.1797C10.3858 28.7904 10.6666 29.2299 11.1327 29.696C11.6059 30.1677 12.0453 30.4499 12.6491 30.683C13.3426 30.9512 14.0811 31.1 15.1763 31.1505C16.7263 31.2235 17.2682 31.232 20.833 31.232C24.3079 31.232 24.8737 31.2221 26.4897 31.1505C27.5876 31.0986 28.3261 30.9512 29.0127 30.6858C29.5857 30.4747 30.104 30.1374 30.529 29.6988C31.0021 29.2271 31.2843 28.7876 31.5174 28.1825C31.7842 27.4917 31.933 26.7532 31.9835 25.6553C32.0565 24.1067 32.065 23.5633 32.065 20C32.065 16.5265 32.0551 15.9592 31.9835 14.3432C31.9316 13.2453 31.7828 12.504 31.5174 11.8189C31.3063 11.2458 30.969 10.7276 30.5304 10.3025C30.1055 9.86346 29.5873 9.52565 29.0141 9.31412C28.3261 9.04736 27.5876 8.89994 26.4897 8.84939C24.9411 8.77639 24.3991 8.76796 20.833 8.76796M20.833 5.95996C24.6476 5.95996 25.1236 5.974 26.6217 6.0442C28.1155 6.1144 29.1348 6.34887 30.0292 6.69706C30.9558 7.05368 31.7364 7.53665 32.5171 8.31587C33.2313 9.0175 33.7837 9.86655 34.1359 10.8038C34.4827 11.6981 34.7185 12.7174 34.7887 14.2127C34.8547 15.7093 34.873 16.1853 34.873 20C34.873 23.8146 34.8589 24.2906 34.7887 25.7872C34.7185 27.2839 34.4827 28.3004 34.1359 29.1962C33.7837 30.1334 33.2313 30.9824 32.5171 31.684C31.8154 32.3983 30.9664 32.9507 30.0292 33.3029C29.1348 33.6497 28.1155 33.8855 26.6217 33.9557C25.1236 34.0217 24.6476 34.04 20.833 34.04C17.0183 34.04 16.5423 34.0259 15.0443 33.9557C13.5504 33.8855 12.5325 33.6497 11.6368 33.3029C10.6996 32.9507 9.85051 32.3983 9.14888 31.684C8.43467 30.9824 7.88221 30.1334 7.53007 29.1962C7.18188 28.3018 6.94741 27.2825 6.87721 25.7872C6.80982 24.2906 6.79297 23.8146 6.79297 20C6.79297 16.1853 6.80701 15.7093 6.87721 14.2127C6.94741 12.716 7.18188 11.6995 7.53007 10.8038C7.88221 9.86655 8.43467 9.0175 9.14888 8.31587C9.85051 7.60167 10.6996 7.04921 11.6368 6.69706C12.5311 6.34887 13.549 6.1144 15.0443 6.0442C16.5437 5.97821 17.0197 5.95996 20.8344 5.95996"/>
</mask>
<path d="M20.8344 15.788C19.7173 15.788 18.6459 16.2317 17.856 17.0216C17.0661 17.8115 16.6224 18.8829 16.6224 20C16.6224 21.1171 17.0661 22.1884 17.856 22.9783C18.6459 23.7682 19.7173 24.212 20.8344 24.212C21.9515 24.212 23.0228 23.7682 23.8127 22.9783C24.6026 22.1884 25.0464 21.1171 25.0464 20C25.0464 18.8829 24.6026 17.8115 23.8127 17.0216C23.0228 16.2317 21.9515 15.788 20.8344 15.788ZM20.8344 12.98C22.6962 12.98 24.4818 13.7196 25.7983 15.0361C27.1148 16.3526 27.8544 18.1381 27.8544 20C27.8544 21.8618 27.1148 23.6473 25.7983 24.9639C24.4818 26.2804 22.6962 27.02 20.8344 27.02C18.9726 27.02 17.187 26.2804 15.8705 24.9639C14.554 23.6473 13.8144 21.8618 13.8144 20C13.8144 18.1381 14.554 16.3526 15.8705 15.0361C17.187 13.7196 18.9726 12.98 20.8344 12.98ZM29.9604 12.629C29.9604 13.0944 29.7755 13.5408 29.4463 13.8699C29.1172 14.1991 28.6708 14.384 28.2054 14.384C27.7399 14.384 27.2935 14.1991 26.9644 13.8699C26.6353 13.5408 26.4504 13.0944 26.4504 12.629C26.4504 12.1635 26.6353 11.7171 26.9644 11.388C27.2935 11.0589 27.7399 10.874 28.2054 10.874C28.6708 10.874 29.1172 11.0589 29.4463 11.388C29.7755 11.7171 29.9604 12.1635 29.9604 12.629ZM20.8344 8.76796C17.3609 8.76796 16.7937 8.77779 15.1777 8.84939C14.0769 8.90134 13.3384 9.04876 12.6533 9.31552C12.0802 9.52664 11.562 9.86397 11.1369 10.3025C10.6979 10.7274 10.3601 11.2457 10.1485 11.8189C9.88177 12.5068 9.73435 13.2439 9.6838 14.3432C9.6108 15.8933 9.60097 16.4352 9.60097 20C9.60097 23.4749 9.6108 24.0407 9.6824 25.6567C9.73435 26.756 9.88177 27.4959 10.1471 28.1797C10.3858 28.7904 10.6666 29.2299 11.1327 29.696C11.6059 30.1677 12.0453 30.4499 12.6491 30.683C13.3426 30.9512 14.0811 31.1 15.1763 31.1505C16.7263 31.2235 17.2682 31.232 20.833 31.232C24.3079 31.232 24.8737 31.2221 26.4897 31.1505C27.5876 31.0986 28.3261 30.9512 29.0127 30.6858C29.5857 30.4747 30.104 30.1374 30.529 29.6988C31.0021 29.2271 31.2843 28.7876 31.5174 28.1825C31.7842 27.4917 31.933 26.7532 31.9835 25.6553C32.0565 24.1067 32.065 23.5633 32.065 20C32.065 16.5265 32.0551 15.9592 31.9835 14.3432C31.9316 13.2453 31.7828 12.504 31.5174 11.8189C31.3063 11.2458 30.969 10.7276 30.5304 10.3025C30.1055 9.86346 29.5873 9.52565 29.0141 9.31412C28.3261 9.04736 27.5876 8.89994 26.4897 8.84939C24.9411 8.77639 24.3991 8.76796 20.833 8.76796M20.833 5.95996C24.6476 5.95996 25.1236 5.974 26.6217 6.0442C28.1155 6.1144 29.1348 6.34887 30.0292 6.69706C30.9558 7.05368 31.7364 7.53665 32.5171 8.31587C33.2313 9.0175 33.7837 9.86655 34.1359 10.8038C34.4827 11.6981 34.7185 12.7174 34.7887 14.2127C34.8547 15.7093 34.873 16.1853 34.873 20C34.873 23.8146 34.8589 24.2906 34.7887 25.7872C34.7185 27.2839 34.4827 28.3004 34.1359 29.1962C33.7837 30.1334 33.2313 30.9824 32.5171 31.684C31.8154 32.3983 30.9664 32.9507 30.0292 33.3029C29.1348 33.6497 28.1155 33.8855 26.6217 33.9557C25.1236 34.0217 24.6476 34.04 20.833 34.04C17.0183 34.04 16.5423 34.0259 15.0443 33.9557C13.5504 33.8855 12.5325 33.6497 11.6368 33.3029C10.6996 32.9507 9.85051 32.3983 9.14888 31.684C8.43467 30.9824 7.88221 30.1334 7.53007 29.1962C7.18188 28.3018 6.94741 27.2825 6.87721 25.7872C6.80982 24.2906 6.79297 23.8146 6.79297 20C6.79297 16.1853 6.80701 15.7093 6.87721 14.2127C6.94741 12.716 7.18188 11.6995 7.53007 10.8038C7.88221 9.86655 8.43467 9.0175 9.14888 8.31587C9.85051 7.60167 10.6996 7.04921 11.6368 6.69706C12.5311 6.34887 13.549 6.1144 15.0443 6.0442C16.5437 5.97821 17.0197 5.95996 20.8344 5.95996" fill="url(#paint1_linear_8682_18879)"/>
<path d="M20.8344 24.212V28.112V24.212ZM20.8344 12.98V9.07996V12.98ZM27.8544 20H23.9544H27.8544ZM20.8344 27.02V23.12V27.02ZM15.1777 8.84939L15.005 4.9532L14.9938 4.95373L15.1777 8.84939ZM12.6533 9.31552L14.0015 12.9751L14.035 12.9627L14.0682 12.9498L12.6533 9.31552ZM11.1369 10.3025L13.849 13.1052L13.894 13.0616L13.9376 13.0167L11.1369 10.3025ZM10.1485 11.8189L13.7847 13.2288L13.7963 13.199L13.8073 13.1691L10.1485 11.8189ZM9.6838 14.3432L13.5795 14.5267L13.5797 14.5224L9.6838 14.3432ZM9.6824 25.6567L5.78621 25.8293L5.78675 25.8408L9.6824 25.6567ZM10.1471 28.1797L6.51132 29.5907L6.51466 29.5992L10.1471 28.1797ZM11.1327 29.696L8.37501 32.4537L8.37912 32.4578L11.1327 29.696ZM12.6491 30.683L14.0555 27.0454L14.0536 27.0447L12.6491 30.683ZM15.1763 31.1505L15.3597 27.2548L15.3561 27.2547L15.1763 31.1505ZM26.4897 31.1505L26.6623 35.0467L26.674 35.0462L26.4897 31.1505ZM29.0127 30.6858L27.6645 27.0262L27.6355 27.0369L27.6067 27.0481L29.0127 30.6858ZM30.529 29.6988L27.7754 26.937L27.7517 26.9606L27.7284 26.9847L30.529 29.6988ZM31.5174 28.1825L27.8793 26.7775L27.878 26.7808L31.5174 28.1825ZM31.9835 25.6553L28.0879 25.4716L28.0877 25.4759L31.9835 25.6553ZM31.9835 14.3432L35.8797 14.1706L35.8792 14.1589L31.9835 14.3432ZM31.5174 11.8189L27.8579 13.167L27.869 13.1973L27.8806 13.2274L31.5174 11.8189ZM30.5304 10.3025L27.7278 13.0146L27.7713 13.0596L27.8163 13.1031L30.5304 10.3025ZM29.0141 9.31412L27.6041 12.9503L27.6339 12.9619L27.6639 12.9729L29.0141 9.31412ZM26.4897 8.84939L26.306 12.7451L26.3103 12.7453L26.4897 8.84939ZM26.6217 6.0442L26.8047 2.1485L26.8042 2.14848L26.6217 6.0442ZM30.0292 6.69706L28.6143 10.3313L28.6213 10.3341L28.6284 10.3368L30.0292 6.69706ZM32.5171 8.31587L29.7618 11.0761L29.7728 11.0871L29.784 11.098L32.5171 8.31587ZM34.1359 10.8038L30.4851 12.1755L30.4923 12.1947L30.4997 12.2137L34.1359 10.8038ZM34.7887 14.2127L38.685 14.0409L38.6844 14.0298L34.7887 14.2127ZM34.1359 29.1962L30.4989 27.7881L30.4919 27.8062L30.4851 27.8244L34.1359 29.1962ZM32.5171 31.684L29.784 28.9019L29.7592 28.9262L29.7349 28.9509L32.5171 31.684ZM30.0292 33.3029L28.6574 29.6521L28.6383 29.6593L28.6192 29.6667L30.0292 33.3029ZM26.6217 33.9557L26.7933 37.852L26.8047 37.8514L26.6217 33.9557ZM15.0443 33.9557L14.8612 37.8514L14.8617 37.8514L15.0443 33.9557ZM11.6368 33.3029L13.0448 29.6659L13.0267 29.6589L13.0085 29.6521L11.6368 33.3029ZM9.14888 31.684L11.931 28.9509L11.9067 28.9262L11.882 28.9019L9.14888 31.684ZM7.53007 29.1962L11.1809 27.8244L11.1727 27.8028L11.1644 27.7812L7.53007 29.1962ZM6.87721 25.7872L2.98115 25.9627L2.9815 25.9701L6.87721 25.7872ZM7.53007 10.8038L11.1651 12.2168L11.1731 12.1962L11.1809 12.1755L7.53007 10.8038ZM9.14888 8.31587L11.882 11.098L11.9067 11.0737L11.931 11.049L9.14888 8.31587ZM11.6368 6.69706L13.0085 10.3479L13.0301 10.3397L13.0517 10.3313L11.6368 6.69706ZM15.0443 6.0442L14.8728 2.14796L14.8614 2.14849L15.0443 6.0442ZM20.8344 11.888C18.6829 11.888 16.6196 12.7426 15.0983 14.2639L20.6138 19.7793C20.6723 19.7208 20.7516 19.688 20.8344 19.688V11.888ZM15.0983 14.2639C13.577 15.7852 12.7224 17.8485 12.7224 20H20.5224C20.5224 19.9172 20.5552 19.8379 20.6138 19.7793L15.0983 14.2639ZM12.7224 20C12.7224 22.1514 13.577 24.2147 15.0983 25.736L20.6138 20.2206C20.5552 20.1621 20.5224 20.0827 20.5224 20H12.7224ZM15.0983 25.736C16.6196 27.2573 18.6829 28.112 20.8344 28.112V20.312C20.7516 20.312 20.6723 20.2791 20.6138 20.2206L15.0983 25.736ZM20.8344 28.112C22.9858 28.112 25.0491 27.2573 26.5704 25.736L21.055 20.2206C20.9965 20.2791 20.9171 20.312 20.8344 20.312V28.112ZM26.5704 25.736C28.0917 24.2147 28.9464 22.1514 28.9464 20H21.1464C21.1464 20.0827 21.1135 20.1621 21.055 20.2206L26.5704 25.736ZM28.9464 20C28.9464 17.8485 28.0917 15.7852 26.5704 14.2639L21.055 19.7793C21.1135 19.8379 21.1464 19.9172 21.1464 20H28.9464ZM26.5704 14.2639C25.0491 12.7426 22.9858 11.888 20.8344 11.888V19.688C20.9171 19.688 20.9965 19.7208 21.055 19.7793L26.5704 14.2639ZM20.8344 16.88C21.6618 16.88 22.4554 17.2087 23.0405 17.7938L28.556 12.2784C26.5081 10.2305 23.7305 9.07996 20.8344 9.07996V16.88ZM23.0405 17.7938C23.6257 18.3789 23.9544 19.1725 23.9544 20L31.7544 20C31.7544 17.1038 30.6039 14.3263 28.556 12.2784L23.0405 17.7938ZM23.9544 20C23.9544 20.8274 23.6257 21.621 23.0405 22.2061L28.556 27.7216C30.6039 25.6737 31.7544 22.8961 31.7544 20L23.9544 20ZM23.0405 22.2061C22.4554 22.7912 21.6618 23.12 20.8344 23.12V30.92C23.7305 30.92 26.5081 29.7695 28.556 27.7216L23.0405 22.2061ZM20.8344 23.12C20.0069 23.12 19.2133 22.7912 18.6282 22.2061L13.1128 27.7216C15.1607 29.7695 17.9382 30.92 20.8344 30.92V23.12ZM18.6282 22.2061C18.0431 21.621 17.7144 20.8274 17.7144 20H9.91437C9.91437 22.8961 11.0649 25.6737 13.1128 27.7216L18.6282 22.2061ZM17.7144 20C17.7144 19.1725 18.0431 18.3789 18.6282 17.7938L13.1128 12.2784C11.0649 14.3263 9.91437 17.1038 9.91437 20H17.7144ZM18.6282 17.7938C19.2133 17.2087 20.0069 16.88 20.8344 16.88V9.07996C17.9382 9.07996 15.1607 10.2305 13.1128 12.2784L18.6282 17.7938ZM26.0604 12.629C26.0604 12.0601 26.2864 11.5145 26.6886 11.1122L32.2041 16.6277C33.2646 15.5671 33.8604 14.1288 33.8604 12.629H26.0604ZM26.6886 11.1122C27.0909 10.7099 27.6365 10.484 28.2054 10.484V18.284C29.7052 18.284 31.1435 17.6882 32.2041 16.6277L26.6886 11.1122ZM28.2054 10.484C28.7743 10.484 29.3199 10.71 29.7221 11.1122L24.2067 16.6277C25.2672 17.6882 26.7056 18.284 28.2054 18.284V10.484ZM29.7221 11.1122C30.1244 11.5145 30.3504 12.0601 30.3504 12.629H22.5504C22.5504 14.1288 23.1462 15.5671 24.2067 16.6277L29.7221 11.1122ZM30.3504 12.629C30.3504 13.1979 30.1244 13.7434 29.7221 14.1457L24.2067 8.63027C23.1462 9.69079 22.5504 11.1292 22.5504 12.629H30.3504ZM29.7221 14.1457C29.3199 14.548 28.7743 14.774 28.2054 14.774V6.97396C26.7056 6.97396 25.2672 7.56976 24.2067 8.63027L29.7221 14.1457ZM28.2054 14.774C27.6365 14.774 27.0909 14.548 26.6886 14.1457L32.2041 8.63027C31.1435 7.56975 29.7052 6.97396 28.2054 6.97396V14.774ZM26.6886 14.1457C26.2864 13.7434 26.0604 13.1978 26.0604 12.629H33.8604C33.8604 11.1292 33.2646 9.6908 32.2041 8.63027L26.6886 14.1457ZM20.8344 4.86796C17.3488 4.86796 16.7108 4.87763 15.005 4.95322L15.3503 12.7456C16.8765 12.6779 17.373 12.668 20.8344 12.668V4.86796ZM14.9938 4.95373C13.6029 5.01937 12.4234 5.21983 11.2383 5.68126L14.0682 12.9498C14.2534 12.8777 14.5509 12.7833 15.3615 12.7451L14.9938 4.95373ZM11.3051 5.65596C10.1831 6.06931 9.16846 6.72975 8.33633 7.58839L13.9376 13.0167C13.9555 12.9982 13.9773 12.984 14.0015 12.9751L11.3051 5.65596ZM8.42489 7.4999C7.56526 8.33174 6.90386 9.34639 6.48972 10.4686L13.8073 13.1691C13.8163 13.1449 13.8305 13.1231 13.849 13.1052L8.42489 7.4999ZM6.51232 10.4089C6.05323 11.5929 5.85206 12.7691 5.78792 14.1641L13.5797 14.5224C13.6166 13.7187 13.7103 13.4208 13.7847 13.2288L6.51232 10.4089ZM5.78812 14.1598C5.71052 15.8074 5.70097 16.4268 5.70097 20H13.501C13.501 16.4436 13.5111 15.9792 13.5795 14.5267L5.78812 14.1598ZM5.70097 20C5.70097 23.487 5.71064 24.1235 5.78622 25.8293L13.5786 25.484C13.511 23.9578 13.501 23.4627 13.501 20H5.70097ZM5.78675 25.8408C5.85236 27.2293 6.05257 28.4086 6.51133 29.5907L13.7829 26.7686C13.711 26.5832 13.6163 26.2827 13.5781 25.4726L5.78675 25.8408ZM6.51466 29.5992C6.94091 30.6899 7.51188 31.5906 8.37502 32.4537L13.8904 26.9383C13.8525 26.9003 13.8343 26.8789 13.8283 26.8716C13.8231 26.8653 13.8245 26.8665 13.8283 26.8723C13.832 26.878 13.8309 26.8774 13.8246 26.8648C13.8177 26.8509 13.8026 26.8189 13.7796 26.7601L6.51466 29.5992ZM8.37912 32.4578C9.23812 33.3143 10.1377 33.894 11.2445 34.3213L14.0536 27.0447C14.0013 27.0245 13.9746 27.0118 13.9651 27.007C13.9568 27.0029 13.9585 27.0033 13.965 27.0075C13.9714 27.0117 13.9716 27.0125 13.9628 27.0052C13.953 26.9972 13.9284 26.9761 13.8863 26.9342L8.37912 32.4578ZM11.2426 34.3206C12.4249 34.7777 13.5988 34.9819 14.9964 35.0464L15.3561 27.2547C14.5635 27.2181 14.2603 27.1246 14.0555 27.0454L11.2426 34.3206ZM14.9928 35.0462C16.6418 35.1239 17.2631 35.132 20.833 35.132V27.332C17.2734 27.332 16.8107 27.3232 15.3597 27.2548L14.9928 35.0462ZM20.833 35.132C24.32 35.132 24.9565 35.1223 26.6623 35.0467L26.317 27.2544C24.7908 27.322 24.2957 27.332 20.833 27.332V35.132ZM26.674 35.0462C28.0637 34.9804 29.2384 34.7797 30.4187 34.3235L27.6067 27.0481C27.4138 27.1226 27.1116 27.2167 26.3054 27.2549L26.674 35.0462ZM30.3609 34.3454C31.4828 33.932 32.4975 33.2716 33.3296 32.4129L27.7284 26.9847C27.7105 27.0031 27.6886 27.0173 27.6645 27.0262L30.3609 34.3454ZM33.2826 32.4606C34.1473 31.5985 34.7293 30.6942 35.1568 29.5842L27.878 26.7808C27.8578 26.8332 27.8452 26.8597 27.8407 26.8686C27.8369 26.8763 27.8378 26.8736 27.8428 26.8659C27.8478 26.8583 27.8495 26.8568 27.8434 26.8643C27.8364 26.8728 27.8163 26.8961 27.7754 26.937L33.2826 32.4606ZM35.1555 29.5874C35.6112 28.4075 35.815 27.2338 35.8794 25.8346L28.0877 25.4759C28.051 26.2726 27.9571 26.5759 27.8793 26.7775L35.1555 29.5874ZM35.8792 25.8389C35.9569 24.1911 35.965 23.5684 35.965 20H28.165C28.165 23.5583 28.1562 24.0222 28.0879 25.4716L35.8792 25.8389ZM35.965 20C35.965 16.5144 35.9553 15.8764 35.8797 14.1706L28.0874 14.5159C28.155 16.0421 28.165 16.5386 28.165 20H35.965ZM35.8792 14.1589C35.8133 12.7669 35.6106 11.5889 35.1542 10.4103L27.8806 13.2274C27.9549 13.4192 28.0499 13.7238 28.0879 14.5276L35.8792 14.1589ZM35.177 10.4707C34.7636 9.34867 34.1032 8.33405 33.2445 7.50192L27.8163 13.1031C27.8347 13.1211 27.849 13.1429 27.8579 13.167L35.177 10.4707ZM33.333 7.59048C32.5012 6.73085 31.4865 6.06945 30.3643 5.65531L27.6639 12.9729C27.688 12.9818 27.7099 12.9961 27.7278 13.0146L33.333 7.59048ZM30.424 5.67791C29.2397 5.21867 28.0619 5.01764 26.669 4.95352L26.3103 12.7453C27.1133 12.7822 27.4125 12.876 27.6041 12.9503L30.424 5.67791ZM26.6733 4.95372C25.0255 4.87604 24.4042 4.86796 20.833 4.86796V12.668C24.3941 12.668 24.8566 12.6767 26.306 12.7451L26.6733 4.95372ZM20.833 9.85996C24.6336 9.85996 25.0354 9.87415 26.4391 9.93993L26.8042 2.14848C25.2118 2.07386 24.6617 2.05996 20.833 2.05996V9.85996ZM26.4386 9.9399C27.5719 9.99316 28.1672 10.1573 28.6143 10.3313L31.4441 3.06278C30.1025 2.54045 28.6592 2.23564 26.8047 2.1485L26.4386 9.9399ZM28.6284 10.3368C29.0695 10.5066 29.383 10.6979 29.7618 11.0761L35.2723 5.55568C34.0899 4.37536 32.8421 3.60076 31.4299 3.0573L28.6284 10.3368ZM29.784 11.098C30.0933 11.4019 30.3326 11.7696 30.4851 12.1755L37.7867 9.43202C37.2349 7.96351 36.3692 6.63313 35.2502 5.53376L29.784 11.098ZM30.4997 12.2137C30.6752 12.6665 30.8399 13.2645 30.893 14.3956L38.6844 14.0298C38.5971 12.1703 38.2901 10.7297 37.7721 9.3938L30.4997 12.2137ZM30.8925 14.3845C30.9548 15.7982 30.973 16.2093 30.973 20H38.773C38.773 16.1613 38.7546 15.6204 38.6849 14.0409L30.8925 14.3845ZM30.973 20C30.973 23.8006 30.9588 24.2023 30.893 25.6045L38.6844 25.97C38.7591 24.3789 38.773 23.8286 38.773 20H30.973ZM30.893 25.6045C30.84 26.7354 30.6757 27.3315 30.4989 27.7881L37.7728 30.6042C38.2896 29.2693 38.5971 27.8325 38.6844 25.97L30.893 25.6045ZM30.4851 27.8244C30.3326 28.2303 30.0933 28.5981 29.784 28.9019L35.2502 34.4662C36.3692 33.3668 37.2349 32.0364 37.7867 30.5679L30.4851 27.8244ZM29.7349 28.9509C29.4311 29.2603 29.0633 29.4995 28.6574 29.6521L31.4009 36.9537C32.8694 36.4019 34.1998 35.5362 35.2992 34.4172L29.7349 28.9509ZM28.6192 29.6667C28.1662 29.8423 27.5681 30.0069 26.4386 30.06L26.8047 37.8514C28.6629 37.7641 30.1035 37.457 31.4391 36.9391L28.6192 29.6667ZM26.45 30.0595C25.0347 30.1218 24.6236 30.14 20.833 30.14V37.94C24.6717 37.94 25.2124 37.9216 26.7933 37.8519L26.45 30.0595ZM20.833 30.14C17.0324 30.14 16.6306 30.1258 15.2268 30.06L14.8617 37.8514C16.4541 37.9261 17.0042 37.94 20.833 37.94V30.14ZM15.2273 30.06C14.099 30.007 13.5013 29.8426 13.0448 29.6659L10.2287 36.9398C11.5637 37.4567 13.0019 37.764 14.8612 37.8514L15.2273 30.06ZM13.0085 29.6521C12.6026 29.4995 12.2349 29.2603 11.931 28.9509L6.36677 34.4172C7.46614 35.5362 8.79652 36.4019 10.265 36.9537L13.0085 29.6521ZM11.882 28.9019C11.5727 28.5981 11.3334 28.2303 11.1809 27.8244L3.87927 30.5679C4.43105 32.0364 5.29669 33.3668 6.41578 34.4662L11.882 28.9019ZM11.1644 27.7812C10.9904 27.3344 10.8262 26.7392 10.7729 25.6044L2.9815 25.9701C3.06862 27.8258 3.37337 29.2692 3.89579 30.6111L11.1644 27.7812ZM10.7733 25.6118C10.7098 24.202 10.693 23.7939 10.693 20H2.89297C2.89297 23.8354 2.90986 24.3792 2.98116 25.9627L10.7733 25.6118ZM10.693 20C10.693 16.1993 10.7072 15.7976 10.7729 14.3954L2.98149 14.0299C2.90686 15.6211 2.89297 16.1713 2.89297 20H10.693ZM10.7729 14.3954C10.8261 13.2608 10.9899 12.6674 11.1651 12.2168L3.89504 9.39077C3.37382 10.7316 3.06868 12.1712 2.98149 14.0299L10.7729 14.3954ZM11.1809 12.1755C11.3334 11.7696 11.5727 11.4019 11.882 11.098L6.41578 5.53376C5.29669 6.63313 4.43105 7.96351 3.87927 9.43202L11.1809 12.1755ZM11.931 11.049C12.2349 10.7396 12.6026 10.5004 13.0085 10.3479L10.265 3.04626C8.79652 3.59804 7.46614 4.46369 6.36677 5.58277L11.931 11.049ZM13.0517 10.3313C13.4991 10.1572 14.093 9.99316 15.2272 9.93991L14.8614 2.14849C13.005 2.23565 11.5631 2.54058 10.2219 3.06278L13.0517 10.3313ZM15.2157 9.94043C16.6326 9.87808 17.0438 9.85996 20.8344 9.85996V2.05996C16.9956 2.05996 16.4549 2.07835 14.8728 2.14797L15.2157 9.94043Z" fill="#F6F6F6" mask="url(#path-3-outside-2_8682_18879)"/>
<defs>
<linearGradient id="paint0_linear_8682_18879" x1="20.833" y1="5.95996" x2="20.833" y2="34.04" gradientUnits="userSpaceOnUse">
<stop stop-color="#4B3CE4"/>
<stop offset="1" stop-color="#29217E"/>
</linearGradient>
<linearGradient id="paint1_linear_8682_18879" x1="20.833" y1="5.95996" x2="20.833" y2="34.04" gradientUnits="userSpaceOnUse">
<stop stop-color="#29217E"/>
<stop offset="1" stop-color="#4B3CE4"/>
</linearGradient>
</defs>
</svg>
