<svg width="19" height="18" viewBox="0 0 19 18" fill="none" xmlns="http://www.w3.org/2000/svg">
<path d="M9.5009 6.3C8.78482 6.3 8.09806 6.58446 7.59171 7.09081C7.08536 7.59716 6.8009 8.28392 6.8009 9C6.8009 9.71608 7.08536 10.4028 7.59171 10.9092C8.09806 11.4155 8.78482 11.7 9.5009 11.7C10.217 11.7 10.9037 11.4155 11.4101 10.9092C11.9164 10.4028 12.2009 9.71608 12.2009 9C12.2009 8.28392 11.9164 7.59716 11.4101 7.09081C10.9037 6.58446 10.217 6.3 9.5009 6.3ZM9.5009 4.5C10.6944 4.5 11.839 4.97411 12.6829 5.81802C13.5268 6.66193 14.0009 7.80653 14.0009 9C14.0009 10.1935 13.5268 11.3381 12.6829 12.182C11.839 13.0259 10.6944 13.5 9.5009 13.5C8.30743 13.5 7.16283 13.0259 6.31892 12.182C5.47501 11.3381 5.0009 10.1935 5.0009 9C5.0009 7.80653 5.47501 6.66193 6.31892 5.81802C7.16283 4.97411 8.30743 4.5 9.5009 4.5ZM15.3509 4.275C15.3509 4.57337 15.2324 4.85952 15.0214 5.0705C14.8104 5.28147 14.5243 5.4 14.2259 5.4C13.9275 5.4 13.6414 5.28147 13.4304 5.0705C13.2194 4.85952 13.1009 4.57337 13.1009 4.275C13.1009 3.97663 13.2194 3.69048 13.4304 3.4795C13.6414 3.26853 13.9275 3.15 14.2259 3.15C14.5243 3.15 14.8104 3.26853 15.0214 3.4795C15.2324 3.69048 15.3509 3.97663 15.3509 4.275ZM9.5009 1.8C7.2743 1.8 6.9107 1.8063 5.8748 1.8522C5.1692 1.8855 4.6958 1.98 4.2566 2.151C3.88925 2.28633 3.55705 2.50257 3.2846 2.7837C3.00315 3.05606 2.7866 3.38826 2.651 3.7557C2.48 4.1967 2.3855 4.6692 2.3531 5.3739C2.3063 6.3675 2.3 6.7149 2.3 9C2.3 11.2275 2.3063 11.5902 2.3522 12.6261C2.3855 13.3308 2.48 13.8051 2.6501 14.2434C2.8031 14.6349 2.9831 14.9166 3.2819 15.2154C3.5852 15.5178 3.8669 15.6987 4.2539 15.8481C4.6985 16.02 5.1719 16.1154 5.8739 16.1478C6.8675 16.1946 7.2149 16.2 9.5 16.2C11.7275 16.2 12.0902 16.1937 13.1261 16.1478C13.8299 16.1145 14.3033 16.02 14.7434 15.8499C15.1108 15.7146 15.443 15.4983 15.7154 15.2172C16.0187 14.9148 16.1996 14.6331 16.349 14.2452C16.52 13.8024 16.6154 13.329 16.6478 12.6252C16.6946 11.6325 16.7 11.2842 16.7 9C16.7 6.7734 16.6937 6.4098 16.6478 5.3739C16.6145 4.6701 16.5191 4.1949 16.349 3.7557C16.2137 3.38835 15.9974 3.05615 15.7163 2.7837C15.4439 2.50225 15.1117 2.2857 14.7443 2.1501C14.3033 1.9791 13.8299 1.8846 13.1261 1.8522C12.1334 1.8054 11.786 1.8 9.5 1.8M9.5 0C11.9453 0 12.2504 0.00899995 13.2107 0.0539999C14.1683 0.0989999 14.8217 0.2493 15.395 0.4725C15.989 0.7011 16.4894 1.0107 16.9898 1.5102C17.4476 1.95996 17.8018 2.50423 18.0275 3.105C18.2498 3.6783 18.401 4.3317 18.446 5.2902C18.4883 6.2496 18.5 6.5547 18.5 9C18.5 11.4453 18.491 11.7504 18.446 12.7098C18.401 13.6692 18.2498 14.3208 18.0275 14.895C17.8018 15.4958 17.4476 16.04 16.9898 16.4898C16.54 16.9476 15.9958 17.3018 15.395 17.5275C14.8217 17.7498 14.1683 17.901 13.2107 17.946C12.2504 17.9883 11.9453 18 9.5 18C7.0547 18 6.7496 17.991 5.7893 17.946C4.8317 17.901 4.1792 17.7498 3.605 17.5275C3.00423 17.3018 2.45996 16.9476 2.0102 16.4898C1.55238 16.04 1.19823 15.4958 0.9725 14.895C0.7493 14.3217 0.599 13.6683 0.554 12.7098C0.5108 11.7504 0.5 11.4453 0.5 9C0.5 6.5547 0.509 6.2496 0.554 5.2902C0.599 4.3308 0.7493 3.6792 0.9725 3.105C1.19823 2.50423 1.55238 1.95996 2.0102 1.5102C2.45996 1.05238 3.00423 0.698234 3.605 0.4725C4.1783 0.2493 4.8308 0.0989999 5.7893 0.0539999C6.7505 0.0116999 7.0556 0 9.5009 0" fill="#4B3CE4"/>
</svg>
