<svg width="60" height="60" viewBox="0 0 60 60" fill="none" xmlns="http://www.w3.org/2000/svg">
<mask id="path-1-outside-1_9167_17" maskUnits="userSpaceOnUse" x="0.00781304" y="5.36442e-07" width="60" height="60" fill="black">
<rect fill="white" x="0.00781304" y="5.36442e-07" width="60" height="60"/>
<path fill-rule="evenodd" clip-rule="evenodd" d="M30.0153 9C30.5376 9 31.0385 9.20747 31.4078 9.57676C31.777 9.94606 31.9845 10.4469 31.9845 10.9692C31.9845 11.3457 32.2853 11.653 32.6617 11.6644C38.3282 11.8356 43.965 12.5594 49.492 13.8258C49.9855 13.9571 50.4088 14.275 50.6724 14.7124C50.936 15.1498 51.0194 15.6725 50.9049 16.1702C50.7905 16.6679 50.4871 17.1017 50.0589 17.38C49.6307 17.6583 49.1111 17.7594 48.6098 17.6618C47.2484 17.3498 46.0576 18.5772 46.365 19.9397L50.1825 36.8628C50.2789 37.288 50.2314 37.7332 50.0475 38.1285C49.8636 38.5239 49.5537 38.847 49.1664 39.0473C47.3046 40.0094 45.2389 40.5101 43.1433 40.5071C40.9772 40.5071 38.9266 39.982 37.1202 39.0473C36.7329 38.847 36.423 38.5239 36.2391 38.1285C36.0552 37.7332 36.0077 37.288 36.1041 36.8628L39.75 20.6952C40.2873 18.3124 38.659 15.9746 36.2231 15.7938C33.9017 15.6216 31.9845 17.5038 31.9845 19.8317V40.6899C31.9845 43.5389 34.2456 45.8487 37.0692 46.2279C38.6945 46.4462 40.3097 46.7407 41.9093 47.1105C42.4183 47.2285 42.8596 47.5439 43.1361 47.9873C43.4125 48.4307 43.5016 48.9658 43.3835 49.4748C43.2655 49.9838 42.9501 50.4251 42.5067 50.7016C42.0633 50.9781 41.5282 51.0671 41.0192 50.9491C37.4107 50.1148 33.719 49.6946 30.0153 49.6967C26.2292 49.6967 22.5455 50.1299 19.0115 50.9491C18.5024 51.0668 17.9675 50.9774 17.5244 50.7007C17.0812 50.424 16.7661 49.9825 16.6484 49.4735C16.5308 48.9645 16.6201 48.4295 16.8968 47.9864C17.1736 47.5432 17.615 47.2281 18.124 47.1105C19.7229 46.7408 21.3372 46.4465 22.9617 46.2282C25.7852 45.8488 28.0461 43.5391 28.0461 40.6902V19.8325C28.0461 17.5041 26.1059 15.6223 23.7839 15.7952C21.3472 15.9767 19.7411 18.3133 20.2789 20.6968L23.9266 36.8654C24.0217 37.2899 23.9736 37.7339 23.7898 38.1281C23.6059 38.5224 23.2968 38.8446 22.9105 39.0446C21.049 40.0078 18.9833 40.5094 16.8874 40.5071C14.7917 40.5102 12.726 40.0095 10.8643 39.0473C10.4769 38.847 10.167 38.5239 9.98315 38.1285C9.79926 37.7332 9.75178 37.288 9.84816 36.8628L13.6634 19.9398C13.9709 18.5756 12.7811 17.3482 11.4183 17.6618C10.9092 17.7788 10.3746 17.6888 9.93191 17.4116C9.48925 17.1344 9.17484 16.6927 9.05785 16.1836C8.94087 15.6746 9.03088 15.1399 9.3081 14.6973C9.58532 14.2546 10.027 13.9402 10.5361 13.8232C16.062 12.5517 21.6994 11.8285 27.3663 11.6636C27.7426 11.6527 28.0435 11.3456 28.0435 10.9692C28.0435 10.7104 28.0945 10.4541 28.1937 10.215C28.2928 9.97593 28.4381 9.75873 28.6212 9.57584C28.8043 9.39295 29.0217 9.24795 29.2609 9.14914C29.5002 9.05034 29.7565 8.99966 30.0153 9ZM19.2391 33.9774C18.6735 31.4704 15.1013 31.4704 14.5357 33.9774C14.2615 35.1926 14.9619 36.4529 16.2042 36.5455C16.659 36.5794 17.1157 36.5794 17.5705 36.5455C18.8128 36.4529 19.5132 35.1926 19.2391 33.9774ZM45.495 33.9776C44.9294 31.4705 41.3571 31.4705 40.7915 33.9776C40.5174 35.1927 41.2177 36.4529 42.4599 36.5456C42.9149 36.5796 43.3717 36.5796 43.8266 36.5456C45.0689 36.4529 45.7692 35.1927 45.495 33.9776Z"/>
</mask>
<path d="M30.0153 9L30.0036 17.8235H30.0153V9ZM49.492 13.8258L51.7598 5.29873L51.6119 5.25939L51.4627 5.22521L49.492 13.8258ZM50.1825 36.8628L41.5752 38.8044L41.5772 38.8131L50.1825 36.8628ZM49.1664 39.0473L53.2174 46.8859L53.2187 46.8852L49.1664 39.0473ZM43.1433 40.5071L43.1559 31.6836H43.1433V40.5071ZM37.1202 39.0473L41.1751 31.2107L41.1725 31.2093L37.1202 39.0473ZM36.1041 36.8628L44.7094 38.8131L44.7115 38.8038L36.1041 36.8628ZM41.9093 47.1105L43.9023 38.515L43.8967 38.5137L41.9093 47.1105ZM41.0192 50.9491L43.0122 42.3536L43.0068 42.3523L41.0192 50.9491ZM30.0153 49.6967V58.5202L30.0203 58.5202L30.0153 49.6967ZM19.0115 50.9491L20.999 59.5458L21.0039 59.5447L19.0115 50.9491ZM18.124 47.1105L20.1115 55.7072L20.1116 55.7072L18.124 47.1105ZM23.9266 36.8654L32.5366 34.9362L32.5338 34.9236L23.9266 36.8654ZM22.9105 39.0446L26.9653 46.8813L26.9676 46.8801L22.9105 39.0446ZM16.8874 40.5071L16.897 31.6836L16.8857 31.6836L16.8743 31.6836L16.8874 40.5071ZM10.8643 39.0473L6.81191 46.8852L6.81283 46.8857L10.8643 39.0473ZM9.84816 36.8628L18.4535 38.8131L18.4557 38.8033L9.84816 36.8628ZM10.5361 13.8232L12.5124 22.4226L12.5146 22.4221L10.5361 13.8232ZM43.8266 36.5456L43.1702 27.7465L43.8266 36.5456ZM16.2042 36.5455L15.5481 45.3446L16.2042 36.5455ZM20.2789 20.6968L11.6717 22.6386L20.2789 20.6968ZM46.365 19.9397L37.7577 21.8813L46.365 19.9397ZM37.0692 46.2279L35.8946 54.9729L37.0692 46.2279ZM17.5705 36.5455L18.2266 45.3446L17.5705 36.5455ZM30.0153 17.8235C28.1974 17.8235 26.454 17.1014 25.1686 15.8159L37.6469 3.33759C35.6229 1.31356 32.8777 0.176472 30.0153 0.176472V17.8235ZM25.1686 15.8159C23.8831 14.5305 23.161 12.7871 23.161 10.9692H40.808C40.808 8.10678 39.671 5.36161 37.6469 3.33759L25.1686 15.8159ZM32.3953 20.4839C37.488 20.6378 42.554 21.2883 47.5212 22.4265L51.4627 5.22521C45.3761 3.83052 39.1684 3.03343 32.9281 2.84491L32.3953 20.4839ZM47.2241 22.353C45.5062 21.8961 44.0329 20.7896 43.1153 19.2671L58.2295 10.1577C56.7846 7.76034 54.4648 6.01814 51.7598 5.29873L47.2241 22.353ZM43.1153 19.2671C42.1977 17.7445 41.9075 15.925 42.3059 14.1926L59.504 18.1478C60.1313 15.42 59.6744 12.5551 58.2295 10.1577L43.1153 19.2671ZM42.3059 14.1926C42.7043 12.4602 43.7602 10.9503 45.2508 9.9816L54.867 24.7784C57.214 23.2532 58.8766 20.8757 59.504 18.1478L42.3059 14.1926ZM45.2508 9.9816C46.7413 9.01291 48.5499 8.6612 50.2949 9.0007L46.9246 26.3229C49.6722 26.8575 52.52 26.3037 54.867 24.7784L45.2508 9.9816ZM37.7577 21.8813L41.5752 38.8044L58.7897 34.9212L54.9722 17.9981L37.7577 21.8813ZM41.5772 38.8131C41.2417 37.3329 41.407 35.7833 42.0471 34.4072L58.0479 41.8499C59.0557 39.6831 59.316 37.2431 58.7878 34.9125L41.5772 38.8131ZM42.0471 34.4072C42.6872 33.0311 43.7658 31.9064 45.114 31.2093L53.2187 46.8852C55.3416 45.7877 57.04 44.0166 58.0479 41.8499L42.0471 34.4072ZM45.1153 31.2087C44.5097 31.5217 43.8377 31.6846 43.1559 31.6836L43.1307 49.3306C46.6402 49.3356 50.0996 48.4972 53.2174 46.8859L45.1153 31.2087ZM43.1433 31.6836C42.4163 31.6836 41.7533 31.5099 41.1751 31.2107L33.0652 46.8838C36.0998 48.4541 39.5381 49.3306 43.1433 49.3306V31.6836ZM41.1725 31.2093C42.5207 31.9064 43.5994 33.0311 44.2395 34.4072L28.2387 41.8499C29.2465 44.0167 30.945 45.7877 33.0678 46.8852L41.1725 31.2093ZM44.2395 34.4072C44.8796 35.7833 45.0448 37.333 44.7094 38.8131L27.4988 34.9125C26.9706 37.2431 27.2308 39.6831 28.2387 41.8499L44.2395 34.4072ZM44.7115 38.8038L48.3574 22.6362L31.1426 18.7541L27.4967 34.9218L44.7115 38.8038ZM23.161 19.8317V40.6899H40.808V19.8317H23.161ZM35.8946 54.9729C37.247 55.1546 38.5908 55.3995 39.9218 55.7072L43.8967 38.5137C42.0285 38.0818 40.1421 37.7379 38.2438 37.4829L35.8946 54.9729ZM39.9162 55.7059C38.1455 55.2954 36.6105 54.1983 35.6488 52.6559L50.6233 43.3187C49.1086 40.8895 46.691 39.1616 43.9023 38.515L39.9162 55.7059ZM35.6488 52.6559C34.6871 51.1136 34.3775 49.2524 34.788 47.4817L51.979 51.4679C52.6256 48.6792 52.138 45.7478 50.6233 43.3187L35.6488 52.6559ZM34.788 47.4817C35.1986 45.7111 36.2957 44.1761 37.8381 43.2144L47.1753 58.1888C49.6044 56.6742 51.3324 54.2566 51.979 51.4679L34.788 47.4817ZM37.8381 43.2144C39.3804 42.2526 41.2416 41.943 43.0122 42.3536L39.0261 59.5446C41.8148 60.1912 44.7461 59.7035 47.1753 58.1888L37.8381 43.2144ZM43.0068 42.3523C38.745 41.3669 34.3846 40.8707 30.0103 40.8731L30.0203 58.5202C33.0533 58.5185 36.0765 58.8626 39.0315 59.5458L43.0068 42.3523ZM30.0153 40.8731C25.5541 40.8731 21.202 41.3838 17.019 42.3534L21.0039 59.5447C23.889 58.8759 26.9043 58.5202 30.0153 58.5202V40.8731ZM17.024 42.3523C18.7949 41.9429 20.656 42.2537 22.1978 43.2165L12.8509 58.1849C15.279 59.7011 18.21 60.1906 20.999 59.5458L17.024 42.3523ZM22.1978 43.2165C23.7396 44.1792 24.8358 45.715 25.2452 47.486L8.05166 51.461C8.69646 54.25 10.4228 56.6687 12.8509 58.1849L22.1978 43.2165ZM25.2452 47.486C25.6546 49.257 25.3438 51.1181 24.381 52.6598L9.41262 43.3129C7.89642 45.741 7.40686 48.6719 8.05166 51.461L25.2452 47.486ZM24.381 52.6598C23.4183 54.2016 21.8825 55.2978 20.1115 55.7072L16.1365 38.5137C13.3475 39.1585 10.9288 40.8848 9.41262 43.3129L24.381 52.6598ZM20.1116 55.7072C21.4419 55.3997 22.7851 55.1548 24.1368 54.9731L21.7867 37.4833C19.8893 37.7382 18.0038 38.082 16.1365 38.5137L20.1116 55.7072ZM36.8697 40.6902V19.8325H19.2226V40.6902H36.8697ZM11.6717 22.6386L15.3194 38.8072L32.5338 34.9236L28.8861 18.755L11.6717 22.6386ZM15.3165 38.7946C14.9855 37.3172 15.153 35.7717 15.7928 34.3994L31.7867 41.8568C32.7942 39.6961 33.0579 37.2626 32.5366 34.9362L15.3165 38.7946ZM15.7928 34.3994C16.4326 33.0272 17.5088 31.9054 18.8534 31.2092L26.9676 46.8801C29.0847 45.7839 30.7792 44.0175 31.7867 41.8568L15.7928 34.3994ZM18.8556 31.208C18.2503 31.5212 17.5786 31.6843 16.897 31.6836L16.8777 49.3306C20.388 49.3345 23.8477 48.4944 26.9653 46.8813L18.8556 31.208ZM16.8743 31.6836C16.1928 31.6846 15.5211 31.5218 14.9157 31.2089L6.81283 46.8857C9.93084 48.4973 13.3905 49.3358 16.9004 49.3306L16.8743 31.6836ZM14.9166 31.2093C16.2648 31.9064 17.3435 33.0311 17.9835 34.4072L1.98276 41.8499C2.99062 44.0167 4.68912 45.7877 6.81191 46.8852L14.9166 31.2093ZM17.9835 34.4072C18.6236 35.7833 18.7889 37.3329 18.4534 38.8131L1.24287 34.9125C0.714657 37.2431 0.974892 39.6831 1.98276 41.8499L17.9835 34.4072ZM18.4557 38.8033L22.2709 21.8803L5.0559 17.9993L1.24066 34.9222L18.4557 38.8033ZM9.44194 9.06248C11.2136 8.65531 13.0744 8.9686 14.6151 9.93345L5.24872 24.8897C7.67472 26.409 10.6049 26.9023 13.3946 26.2612L9.44194 9.06248ZM14.6151 9.93345C16.1558 10.8983 17.25 12.4356 17.6572 14.2073L0.458504 18.1599C1.09964 20.9497 2.82274 23.3704 5.24872 24.8897L14.6151 9.93345ZM17.6572 14.2073C18.0644 15.979 17.7511 17.8398 16.7862 19.3805L1.82997 10.0141C0.310695 12.4401 -0.182636 15.3702 0.458504 18.1599L17.6572 14.2073ZM16.7862 19.3805C15.8214 20.9211 14.284 22.0154 12.5124 22.4226L8.55974 5.22386C5.77001 5.865 3.34925 7.5881 1.82997 10.0141L16.7862 19.3805ZM12.5146 22.4221C17.4752 21.2806 22.5358 20.6314 27.6228 20.4834L27.1098 2.84383C20.8631 3.02552 14.6489 3.82278 8.55752 5.22437L12.5146 22.4221ZM36.867 10.9692C36.867 11.8701 36.6894 12.7622 36.3444 13.5943L20.0429 6.83568C19.4996 8.14604 19.22 9.55066 19.22 10.9692L36.867 10.9692ZM36.3444 13.5943C35.9994 14.4266 35.4936 15.1826 34.8562 15.8192L22.3862 3.3325C21.3825 4.33487 20.5862 5.52528 20.0429 6.83568L36.3444 13.5943ZM34.8562 15.8192C34.2188 16.4558 33.4621 16.9605 32.6294 17.3044L25.8925 0.993893C24.5813 1.53544 23.3899 2.33014 22.3862 3.3325L34.8562 15.8192ZM32.6294 17.3044C31.7967 17.6483 30.9044 17.8247 30.0036 17.8235L30.0271 0.17648C28.6086 0.174589 27.2036 0.452348 25.8925 0.993893L32.6294 17.3044ZM15.5481 45.3446C16.4397 45.4111 17.335 45.4111 18.2266 45.3446L16.9145 27.7464C16.8964 27.7477 16.8783 27.7477 16.8603 27.7464L15.5481 45.3446ZM41.8035 45.3447C42.6954 45.4112 43.5911 45.4112 44.4831 45.3447L43.1702 27.7465C43.1523 27.7479 43.1343 27.7479 43.1164 27.7465L41.8035 45.3447ZM44.4831 45.3447C52.5378 44.7438 55.2214 36.9964 54.1022 32.0357L36.8878 35.9194C36.5369 34.3639 36.7575 32.6053 37.7261 31.0399C38.767 29.3576 40.7049 27.9305 43.1702 27.7465L44.4831 45.3447ZM5.92846 32.0355C4.80916 36.9967 7.49342 44.7441 15.5481 45.3446L16.8603 27.7464C19.3256 27.9302 21.2635 29.3572 22.3045 31.0395C23.2731 32.6049 23.4938 34.3636 23.1429 35.9193L5.92846 32.0355ZM32.1843 32.0357C31.0651 36.9964 33.7487 44.7438 41.8035 45.3447L43.1164 27.7465C45.5817 27.9305 47.5196 29.3576 48.5605 31.0399C49.529 32.6053 49.7497 34.3639 49.3987 35.9194L32.1843 32.0357ZM23.1287 6.99606C14.9178 7.60751 10.0376 15.3958 11.6717 22.6386L28.8861 18.755C29.4446 21.2307 27.7767 24.3459 24.4392 24.5944L23.1287 6.99606ZM49.3987 35.9194C47.8942 42.5879 38.3923 42.5879 36.8878 35.9194L54.1022 32.0357C51.4665 20.3531 34.8201 20.3531 32.1843 32.0357L49.3987 35.9194ZM50.5812 9.06135C42.6351 7.23991 36.0785 14.4371 37.7577 21.8813L54.9722 17.9981C56.0368 22.7173 51.8616 27.4596 46.6383 26.2623L50.5812 9.06135ZM36.8697 19.8325C36.8697 12.613 30.8042 6.42448 23.1287 6.99606L24.4392 24.5944C21.4077 24.8201 19.2226 22.3952 19.2226 19.8325H36.8697ZM48.3574 22.6362C50.0059 15.3257 45.0199 7.59887 36.8762 6.9945L35.5701 24.5932C32.2981 24.3503 30.5687 21.2992 31.1426 18.7541L48.3574 22.6362ZM23.1429 35.9193C21.6384 42.5878 12.1364 42.5878 10.6319 35.9193L27.8463 32.0355C25.2106 20.353 8.56417 20.353 5.92846 32.0355L23.1429 35.9193ZM36.8762 6.9945C29.1386 6.42028 23.161 12.679 23.161 19.8317H40.808C40.808 22.3287 38.6647 24.8228 35.5701 24.5932L36.8762 6.9945ZM22.2709 21.8803C23.9474 14.4442 17.4008 7.23085 9.43937 9.06307L13.3972 26.2606C8.16131 27.4655 3.99453 22.7071 5.0559 17.9993L22.2709 21.8803ZM23.161 40.6899C23.161 48.475 29.2237 54.0769 35.8946 54.9729L38.2438 37.4829C39.2675 37.6204 40.808 38.6028 40.808 40.6899H23.161ZM18.2266 45.3446C26.2813 44.7441 28.9656 36.9967 27.8463 32.0355L10.6319 35.9193C10.2809 34.3636 10.5016 32.6049 11.4703 31.0395C12.5113 29.3572 14.4492 27.9302 16.9145 27.7464L18.2266 45.3446ZM24.1368 54.9731C30.8074 54.0768 36.8697 48.475 36.8697 40.6902H19.2226C19.2226 38.6032 20.7631 37.6208 21.7867 37.4833L24.1368 54.9731ZM27.6228 20.4834C32.7255 20.335 36.867 16.1635 36.867 10.9692H19.22C19.22 6.52773 22.7596 2.97036 27.1098 2.84383L27.6228 20.4834ZM23.161 10.9692C23.161 16.1593 27.296 20.3299 32.3953 20.4839L32.9281 2.84491C37.2746 2.97622 40.808 6.53218 40.808 10.9692H23.161Z" fill="url(#paint0_linear_9167_17)" mask="url(#path-1-outside-1_9167_17)"/>
<mask id="path-3-outside-2_9167_17" maskUnits="userSpaceOnUse" x="2.99609" y="3" width="54" height="54" fill="black">
<rect fill="white" x="2.99609" y="3" width="54" height="54"/>
<path fill-rule="evenodd" clip-rule="evenodd" d="M30.0036 9C30.5259 9 31.0267 9.20747 31.396 9.57676C31.7653 9.94606 31.9728 10.4469 31.9728 10.9692V11.6466C37.8673 11.7788 43.7332 12.509 49.4802 13.8258C49.9738 13.9571 50.397 14.275 50.6607 14.7124C50.9243 15.1498 51.0077 15.6725 50.8932 16.1702C50.7787 16.6679 50.4754 17.1017 50.0472 17.38C49.6189 17.6583 49.0994 17.7594 48.598 17.6618C47.6364 17.4414 46.6709 17.2383 45.702 17.0527L50.1708 36.8628C50.2671 37.288 50.2197 37.7332 50.0358 38.1285C49.8519 38.5239 49.542 38.847 49.1547 39.0473C47.2929 40.0094 45.2272 40.5101 43.1316 40.5071C40.9654 40.5071 38.9149 39.982 37.1085 39.0473C36.7211 38.847 36.4112 38.5239 36.2273 38.1285C36.0435 37.7332 35.996 37.288 36.0924 36.8628L40.7396 16.2545C37.8311 15.8781 34.9048 15.6555 31.9728 15.5876V45.795C35.3154 45.9166 38.6387 46.3571 41.8975 47.1105C42.4066 47.2285 42.8479 47.5439 43.1243 47.9873C43.4008 48.4307 43.4898 48.9658 43.3718 49.4748C43.2538 49.9838 42.9384 50.4251 42.495 50.7016C42.0516 50.9781 41.5165 51.0671 41.0075 50.9491C37.399 50.1148 33.7072 49.6946 30.0036 49.6967C26.2175 49.6967 22.5338 50.1299 18.9998 50.9491C18.4907 51.0668 17.9558 50.9774 17.5126 50.7007C17.0695 50.424 16.7544 49.9825 16.6367 49.4735C16.519 48.9645 16.6084 48.4295 16.8851 47.9864C17.1618 47.5432 17.6033 47.2281 18.1123 47.1105C21.3703 46.3572 24.6927 45.9168 28.0344 45.795V15.5876C25.0701 15.6559 22.1452 15.8817 19.2649 16.2545L23.9149 36.8654C24.01 37.2899 23.9619 37.7339 23.778 38.1281C23.5942 38.5224 23.285 38.8446 22.8988 39.0446C21.0373 40.0078 18.9715 40.5094 16.8756 40.5071C14.78 40.5102 12.7142 40.0095 10.8525 39.0473C10.4652 38.847 10.1553 38.5239 9.97144 38.1285C9.78754 37.7332 9.74006 37.288 9.83644 36.8628L14.3026 17.0527C13.3311 17.2365 12.3649 17.4413 11.4065 17.6618C10.8975 17.7788 10.3629 17.6888 9.92019 17.4116C9.47753 17.1344 9.16312 16.6927 9.04614 16.1836C8.92915 15.6746 9.01917 15.1399 9.29638 14.6973C9.5736 14.2546 10.0153 13.9402 10.5243 13.8232C16.2704 12.5011 22.1369 11.7717 28.0318 11.6466V10.9692C28.0318 10.7104 28.0828 10.4541 28.1819 10.215C28.2811 9.97593 28.4263 9.75873 28.6095 9.57584C28.7926 9.39295 29.01 9.24795 29.2492 9.14914C29.4884 9.05034 29.7448 8.99966 30.0036 9ZM16.8756 23.5537L14.04 36.1224C15.8831 36.7205 17.8682 36.7205 19.7113 36.1224L16.8756 23.5537ZM43.1316 23.5537L40.2959 36.1224C42.139 36.7206 44.1241 36.7206 45.9672 36.1224L43.1316 23.5537Z"/>
</mask>
<path fill-rule="evenodd" clip-rule="evenodd" d="M30.0036 9C30.5259 9 31.0267 9.20747 31.396 9.57676C31.7653 9.94606 31.9728 10.4469 31.9728 10.9692V11.6466C37.8673 11.7788 43.7332 12.509 49.4802 13.8258C49.9738 13.9571 50.397 14.275 50.6607 14.7124C50.9243 15.1498 51.0077 15.6725 50.8932 16.1702C50.7787 16.6679 50.4754 17.1017 50.0472 17.38C49.6189 17.6583 49.0994 17.7594 48.598 17.6618C47.6364 17.4414 46.6709 17.2383 45.702 17.0527L50.1708 36.8628C50.2671 37.288 50.2197 37.7332 50.0358 38.1285C49.8519 38.5239 49.542 38.847 49.1547 39.0473C47.2929 40.0094 45.2272 40.5101 43.1316 40.5071C40.9654 40.5071 38.9149 39.982 37.1085 39.0473C36.7211 38.847 36.4112 38.5239 36.2273 38.1285C36.0435 37.7332 35.996 37.288 36.0924 36.8628L40.7396 16.2545C37.8311 15.8781 34.9048 15.6555 31.9728 15.5876V45.795C35.3154 45.9166 38.6387 46.3571 41.8975 47.1105C42.4066 47.2285 42.8479 47.5439 43.1243 47.9873C43.4008 48.4307 43.4898 48.9658 43.3718 49.4748C43.2538 49.9838 42.9384 50.4251 42.495 50.7016C42.0516 50.9781 41.5165 51.0671 41.0075 50.9491C37.399 50.1148 33.7072 49.6946 30.0036 49.6967C26.2175 49.6967 22.5338 50.1299 18.9998 50.9491C18.4907 51.0668 17.9558 50.9774 17.5126 50.7007C17.0695 50.424 16.7544 49.9825 16.6367 49.4735C16.519 48.9645 16.6084 48.4295 16.8851 47.9864C17.1618 47.5432 17.6033 47.2281 18.1123 47.1105C21.3703 46.3572 24.6927 45.9168 28.0344 45.795V15.5876C25.0701 15.6559 22.1452 15.8817 19.2649 16.2545L23.9149 36.8654C24.01 37.2899 23.9619 37.7339 23.778 38.1281C23.5942 38.5224 23.285 38.8446 22.8988 39.0446C21.0373 40.0078 18.9715 40.5094 16.8756 40.5071C14.78 40.5102 12.7142 40.0095 10.8525 39.0473C10.4652 38.847 10.1553 38.5239 9.97144 38.1285C9.78754 37.7332 9.74006 37.288 9.83644 36.8628L14.3026 17.0527C13.3311 17.2365 12.3649 17.4413 11.4065 17.6618C10.8975 17.7788 10.3629 17.6888 9.92019 17.4116C9.47753 17.1344 9.16312 16.6927 9.04614 16.1836C8.92915 15.6746 9.01917 15.1399 9.29638 14.6973C9.5736 14.2546 10.0153 13.9402 10.5243 13.8232C16.2704 12.5011 22.1369 11.7717 28.0318 11.6466V10.9692C28.0318 10.7104 28.0828 10.4541 28.1819 10.215C28.2811 9.97593 28.4263 9.75873 28.6095 9.57584C28.7926 9.39295 29.01 9.24795 29.2492 9.14914C29.4884 9.05034 29.7448 8.99966 30.0036 9ZM16.8756 23.5537L14.04 36.1224C15.8831 36.7205 17.8682 36.7205 19.7113 36.1224L16.8756 23.5537ZM43.1316 23.5537L40.2959 36.1224C42.139 36.7206 44.1241 36.7206 45.9672 36.1224L43.1316 23.5537Z" fill="url(#paint1_linear_9167_17)"/>
<path d="M30.0036 9L29.9965 14.2941H30.0036V9ZM31.9728 11.6466H26.6787V16.8233L31.8541 16.9394L31.9728 11.6466ZM49.4802 13.8258L50.8409 8.70957L50.7522 8.68597L50.6627 8.66546L49.4802 13.8258ZM48.598 17.6618L47.4152 22.8221L47.5008 22.8417L47.587 22.8585L48.598 17.6618ZM45.702 17.0527L46.6982 11.8531L38.7588 10.332L40.5377 18.2177L45.702 17.0527ZM50.1708 36.8628L45.0064 38.0278L45.0076 38.033L50.1708 36.8628ZM49.1547 39.0473L51.5853 43.7504L51.5861 43.75L49.1547 39.0473ZM43.1316 40.5071L43.1391 35.213H43.1316V40.5071ZM37.1085 39.0473L39.5414 34.3453L39.5399 34.3445L37.1085 39.0473ZM36.0924 36.8628L41.2555 38.033L41.2568 38.0274L36.0924 36.8628ZM40.7396 16.2545L45.9041 17.4191L47.1825 11.75L41.4191 11.0042L40.7396 16.2545ZM31.9728 15.5876L32.0954 10.2949L26.6787 10.1695V15.5876H31.9728ZM31.9728 45.795H26.6787V50.9001L31.7804 51.0857L31.9728 45.795ZM41.8975 47.1105L43.0934 41.9532L43.09 41.9524L41.8975 47.1105ZM41.0075 50.9491L42.2033 45.7918L42.2001 45.791L41.0075 50.9491ZM30.0036 49.6967V54.9908L30.0066 54.9908L30.0036 49.6967ZM18.9998 50.9491L20.1922 56.1071L20.1952 56.1064L18.9998 50.9491ZM18.1123 47.1105L19.3048 52.2685L19.3048 52.2685L18.1123 47.1105ZM28.0344 45.795L28.2271 51.0856L33.3285 50.8998V45.795H28.0344ZM28.0344 15.5876H33.3285V10.1702L27.9125 10.2949L28.0344 15.5876ZM19.2649 16.2545L18.5853 11.0042L12.8216 11.7503L14.1006 17.4196L19.2649 16.2545ZM23.9149 36.8654L29.0809 35.7079L29.0792 35.7003L23.9149 36.8654ZM22.8988 39.0446L25.3317 43.7466L25.333 43.7459L22.8988 39.0446ZM16.8756 40.5071L16.8814 35.213L16.8678 35.213L16.8756 40.5071ZM10.8525 39.0473L8.42113 43.75L8.42168 43.7503L10.8525 39.0473ZM9.83644 36.8628L14.9996 38.033L15.0009 38.0271L9.83644 36.8628ZM14.3026 17.0527L19.4671 18.217L21.2402 10.3521L13.3184 11.8508L14.3026 17.0527ZM11.4065 17.6618L12.5923 22.8214L12.5939 22.8211L11.4065 17.6618ZM10.5243 13.8232L11.7101 18.9828L11.7115 18.9825L10.5243 13.8232ZM28.0318 11.6466L28.1441 16.9395L33.3259 16.8295V11.6466H28.0318ZM28.0318 10.9692H33.3259V10.9692L28.0318 10.9692ZM16.8756 23.5537L22.04 22.3885H11.7113L16.8756 23.5537ZM14.04 36.1224L8.87569 34.9572L7.81299 39.6676L12.4059 41.158L14.04 36.1224ZM19.7113 36.1224L21.3454 41.158L25.9383 39.6676L24.8756 34.9572L19.7113 36.1224ZM43.1316 23.5537L48.2959 22.3885H37.9672L43.1316 23.5537ZM40.2959 36.1224L35.1316 34.9572L34.069 39.6671L38.6614 41.1578L40.2959 36.1224ZM45.9672 36.1224L47.6017 41.1578L52.1941 39.6671L51.1315 34.9572L45.9672 36.1224ZM30.0036 14.2941C29.1218 14.2941 28.2761 13.9438 27.6525 13.3203L35.1395 5.83326C33.7774 4.47112 31.93 3.70588 30.0036 3.70588V14.2941ZM27.6525 13.3203C27.029 12.6967 26.6787 11.851 26.6787 10.9692H37.2669C37.2669 9.04284 36.5017 7.19539 35.1395 5.83326L27.6525 13.3203ZM26.6787 10.9692V11.6466H37.2669V10.9692H26.6787ZM31.8541 16.9394C37.3905 17.0636 42.8999 17.7494 48.2978 18.9862L50.6627 8.66546C44.5664 7.26857 38.3442 6.49405 32.0915 6.35381L31.8541 16.9394ZM48.1195 18.9421C47.2862 18.7205 46.5716 18.1838 46.1264 17.4452L55.1949 11.9796C54.2225 10.3662 52.6614 9.19373 50.8409 8.70957L48.1195 18.9421ZM46.1264 17.4452C45.6813 16.7066 45.5405 15.824 45.7338 14.9837L56.0526 17.3568C56.4748 15.521 56.1673 13.593 55.1949 11.9796L46.1264 17.4452ZM45.7338 14.9837C45.927 14.1433 46.4393 13.4109 47.1623 12.941L52.932 21.8191C54.5115 20.7926 55.6304 19.1926 56.0526 17.3568L45.7338 14.9837ZM47.1623 12.941C47.8853 12.4711 48.7627 12.3005 49.6091 12.4652L47.587 22.8585C49.436 23.2183 51.3525 22.8456 52.932 21.8191L47.1623 12.941ZM49.7809 12.5015C48.7573 12.2669 47.7296 12.0507 46.6982 11.8531L44.7058 22.2522C45.6123 22.4259 46.5156 22.6159 47.4152 22.8221L49.7809 12.5015ZM40.5377 18.2177L45.0064 38.0278L55.3351 35.6978L50.8664 15.8877L40.5377 18.2177ZM45.0076 38.033C44.8449 37.315 44.925 36.5633 45.2355 35.8957L54.836 40.3613C55.5143 38.9032 55.6894 37.2611 55.3339 35.6926L45.0076 38.033ZM45.2355 35.8957C45.546 35.2282 46.0693 34.6826 46.7233 34.3445L51.5861 43.75C53.0147 43.0114 54.1577 41.8195 54.836 40.3613L45.2355 35.8957ZM46.724 34.3441C45.6159 34.9168 44.3865 35.2148 43.1391 35.213L43.124 45.8012C46.068 45.8054 48.9699 45.1021 51.5853 43.7504L46.724 34.3441ZM43.1316 35.213C41.8289 35.213 40.6109 34.8987 39.5414 34.3453L34.6755 43.7492C37.2188 45.0652 40.102 45.8012 43.1316 45.8012V35.213ZM39.5399 34.3445C40.1938 34.6826 40.7171 35.2282 41.0276 35.8957L31.4271 40.3613C32.1054 41.8196 33.2485 43.0114 34.677 43.75L39.5399 34.3445ZM41.0276 35.8957C41.3381 36.5633 41.4182 37.315 41.2555 38.033L30.9292 35.6926C30.5737 37.261 30.7488 38.9031 31.4271 40.3613L41.0276 35.8957ZM41.2568 38.0274L45.9041 17.4191L35.5752 15.0899L30.9279 35.6982L41.2568 38.0274ZM41.4191 11.0042C38.3258 10.6039 35.2136 10.3671 32.0954 10.2949L31.8502 20.8803C34.596 20.9439 37.3364 21.1524 40.0602 21.5048L41.4191 11.0042ZM26.6787 15.5876V45.795H37.2669V15.5876H26.6787ZM31.7804 51.0857C34.7862 51.195 37.7746 51.591 40.7051 52.2685L43.09 41.9524C39.5028 41.1231 35.8446 40.6382 32.1652 40.5044L31.7804 51.0857ZM40.7017 52.2677C39.8429 52.0686 39.0984 51.5365 38.632 50.7885L47.6167 45.1861C46.5973 43.5513 44.9702 42.3884 43.0934 41.9532L40.7017 52.2677ZM38.632 50.7885C38.1656 50.0404 38.0154 49.1377 38.2145 48.279L48.5291 50.6706C48.9643 48.7938 48.6361 46.821 47.6167 45.1861L38.632 50.7885ZM38.2145 48.279C38.4136 47.4202 38.9458 46.6757 39.6938 46.2093L45.2961 55.194C46.931 54.1746 48.0939 52.5475 48.5291 50.6706L38.2145 48.279ZM39.6938 46.2093C40.4418 45.7428 41.3445 45.5927 42.2033 45.7918L39.8116 56.1064C41.6884 56.5415 43.6613 56.2134 45.2961 55.194L39.6938 46.2093ZM42.2001 45.791C38.1996 44.8661 34.1067 44.4002 30.0006 44.4025L30.0066 54.9908C33.3078 54.9889 36.5985 55.3635 39.8149 56.1071L42.2001 45.791ZM30.0036 44.4025C25.8124 44.4025 21.7277 44.8823 17.8043 45.7917L20.1952 56.1064C23.3399 55.3775 26.6226 54.9908 30.0036 54.9908V44.4025ZM17.8073 45.791C18.6662 45.5924 19.5689 45.7432 20.3167 46.2102L14.7085 55.1912C16.3427 56.2116 18.3152 56.5411 20.1922 56.1071L17.8073 45.791ZM20.3167 46.2102C21.0645 46.6771 21.5962 47.422 21.7948 48.281L11.4787 50.666C11.9126 52.543 13.0744 54.1708 14.7085 55.1912L20.3167 46.2102ZM21.7948 48.281C21.9934 49.14 21.8426 50.0426 21.3756 50.7905L12.3946 45.1823C11.3742 46.8164 11.0447 48.7889 11.4787 50.666L21.7948 48.281ZM21.3756 50.7905C20.9087 51.5383 20.1638 52.0699 19.3048 52.2685L16.9198 41.9524C15.0428 42.3863 13.415 43.5482 12.3946 45.1823L21.3756 50.7905ZM19.3048 52.2685C22.2345 51.5912 25.2221 51.1951 28.2271 51.0856L27.8417 40.5044C24.1633 40.6384 20.506 41.1233 16.9198 41.9524L19.3048 52.2685ZM33.3285 45.795V15.5876H22.7403V45.795H33.3285ZM27.9125 10.2949C24.7595 10.3675 21.6484 10.6077 18.5853 11.0042L19.9446 21.5048C22.642 21.1557 25.3807 20.9442 28.1563 20.8803L27.9125 10.2949ZM14.1006 17.4196L18.7505 38.0305L29.0792 35.7003L24.4293 15.0894L14.1006 17.4196ZM18.7488 38.0229C18.5882 37.3062 18.6695 36.5565 18.9799 35.8909L28.5762 40.3653C29.2542 38.9112 29.4317 37.2735 29.0809 35.7079L18.7488 38.0229ZM18.9799 35.8909C19.2902 35.2252 19.8123 34.6811 20.4645 34.3434L25.333 43.7459C26.7578 43.0082 27.8982 41.8195 28.5762 40.3653L18.9799 35.8909ZM20.4658 34.3427C19.3581 34.9159 18.1287 35.2143 16.8814 35.213L16.8699 45.8012C19.8144 45.8044 22.7165 45.0998 25.3317 43.7466L20.4658 34.3427ZM16.8678 35.213C15.6207 35.2148 14.3913 34.9169 13.2834 34.3442L8.42168 43.7503C11.0372 45.1022 13.9393 45.8056 16.8835 45.8012L16.8678 35.213ZM13.284 34.3445C13.9379 34.6826 14.4612 35.2282 14.7717 35.8957L5.1712 40.3613C5.84947 41.8196 6.99253 43.0114 8.42113 43.75L13.284 34.3445ZM14.7717 35.8957C15.0822 36.5633 15.1623 37.315 14.9996 38.033L4.67327 35.6926C4.31779 37.2611 4.49292 38.9031 5.1712 40.3613L14.7717 35.8957ZM15.0009 38.0271L19.4671 18.217L9.13807 15.8884L4.67194 35.6985L15.0009 38.0271ZM13.3184 11.8508C12.2715 12.0489 11.2371 12.2683 10.2192 12.5026L12.5939 22.8211C13.4926 22.6142 14.3907 22.424 15.2867 22.2545L13.3184 11.8508ZM10.2207 12.5022C11.0801 12.3047 11.9828 12.4567 12.7301 12.9247L7.11028 21.8985C8.74294 22.9209 10.7149 23.2529 12.5923 22.8214L10.2207 12.5022ZM12.7301 12.9247C13.4774 13.3927 14.0082 14.1384 14.2057 14.9978L3.88653 17.3694C4.318 19.2469 5.47762 20.876 7.11028 21.8985L12.7301 12.9247ZM14.2057 14.9978C14.4033 15.8572 14.2513 16.7598 13.7833 17.5072L4.80951 11.8874C3.78705 13.52 3.45505 15.492 3.88653 17.3694L14.2057 14.9978ZM13.7833 17.5072C13.3152 18.2545 12.5695 18.7853 11.7101 18.9828L9.33855 8.6636C7.4611 9.09508 5.83196 10.2547 4.80951 11.8874L13.7833 17.5072ZM11.7115 18.9825C17.1048 17.7415 22.6111 17.057 28.1441 16.9395L27.9194 6.35367C21.6627 6.48648 15.436 7.26061 9.33722 8.66391L11.7115 18.9825ZM33.3259 11.6466V10.9692H22.7377V11.6466H33.3259ZM33.3259 10.9692C33.3259 11.4062 33.2398 11.8389 33.0724 12.2426L23.2915 8.18741C22.9259 9.06926 22.7377 10.0145 22.7377 10.9692L33.3259 10.9692ZM33.0724 12.2426C32.905 12.6463 32.6597 13.013 32.3505 13.3218L24.8685 5.82984C24.193 6.50441 23.6571 7.30554 23.2915 8.18741L33.0724 12.2426ZM32.3505 13.3218C32.0413 13.6306 31.6742 13.8755 31.2703 14.0423L27.2281 4.25599C26.3458 4.62045 25.5439 5.15526 24.8685 5.82984L32.3505 13.3218ZM31.2703 14.0423C30.8664 14.2091 30.4335 14.2947 29.9965 14.2941L30.0107 3.70589C29.056 3.70462 28.1105 3.89154 27.2281 4.25599L31.2703 14.0423ZM11.7113 22.3885L8.87569 34.9572L19.2043 37.2875L22.04 24.7188L11.7113 22.3885ZM12.4059 41.158C15.3112 42.1007 18.4401 42.1007 21.3454 41.158L18.0772 31.0867C17.2962 31.3402 16.4551 31.3402 15.6741 31.0867L12.4059 41.158ZM24.8756 34.9572L22.04 22.3885L11.7113 24.7188L14.547 37.2875L24.8756 34.9572ZM37.9672 22.3885L35.1316 34.9572L45.4602 37.2875L48.2959 24.7188L37.9672 22.3885ZM38.6614 41.1578C41.5669 42.101 44.6962 42.101 47.6017 41.1578L44.3327 31.0869C43.552 31.3403 42.7111 31.3403 41.9305 31.0869L38.6614 41.1578ZM51.1315 34.9572L48.2959 22.3885L37.9672 24.7188L40.8029 37.2875L51.1315 34.9572Z" fill="#F6F6F6" mask="url(#path-3-outside-2_9167_17)"/>
<defs>
<linearGradient id="paint0_linear_9167_17" x1="29.9814" y1="9" x2="29.9814" y2="51" gradientUnits="userSpaceOnUse">
<stop stop-color="#4B3CE4"/>
<stop offset="1" stop-color="#29217E"/>
</linearGradient>
<linearGradient id="paint1_linear_9167_17" x1="29.9697" y1="9" x2="29.9697" y2="51" gradientUnits="userSpaceOnUse">
<stop stop-color="#29217E"/>
<stop offset="1" stop-color="#4B3CE4"/>
</linearGradient>
</defs>
</svg>
