<svg width="39" height="40" viewBox="0 0 39 40" fill="none" xmlns="http://www.w3.org/2000/svg">
<path d="M35.2655 35.7665L33.7667 34.2677L35.2655 35.7665C36.299 34.733 36.8796 33.3313 36.8796 31.8697V8.13056C36.8796 6.66899 36.299 5.26728 35.2655 4.23379C34.232 3.2003 32.8303 2.61969 31.3687 2.61969H7.62959C6.16801 2.61969 4.7663 3.2003 3.73281 4.23379C2.69932 5.26728 2.11872 6.66899 2.11872 8.13056V31.8697C2.11872 33.3313 2.69932 34.733 3.73281 35.7665C4.7663 36.8 6.16801 37.3806 7.62959 37.3806H31.3687C32.8303 37.3806 34.232 36.8 35.2655 35.7665ZM28.4013 22.0349V28.9023H27.9096V22.6623C27.9096 21.4706 27.4362 20.3276 26.5935 19.4849C26.2567 19.1481 25.8719 18.8703 25.4552 18.6581C26.1884 18.7584 26.8738 19.0957 27.4031 19.6249C28.0422 20.2641 28.4013 21.131 28.4013 22.0349ZM19.603 18.9488C19.8097 19.1714 20.0414 19.345 20.2622 19.4739C19.4431 20.2919 18.9396 21.4238 18.9396 22.6623V28.9023H18.4478V18.9488H19.603ZM11.333 11.834C11.1962 11.9707 11.0108 12.0475 10.8174 12.0475C10.3946 12.0475 10.0713 11.7084 10.0713 11.3184C10.0713 11.1205 10.1499 10.9307 10.2898 10.7908C10.4298 10.6509 10.6195 10.5723 10.8174 10.5723C11.2074 10.5723 11.5465 10.8956 11.5465 11.3184C11.5465 11.5118 11.4697 11.6972 11.333 11.834ZM11.0548 18.9488V28.9023H10.597V18.9488H11.0548Z" stroke="url(#paint0_linear_8682_18863)" stroke-width="4.23913"/>
<path d="M34.666 35.167L33.7667 34.2677L34.666 35.167C35.5405 34.2925 36.0318 33.1064 36.0318 31.8697V8.13056C36.0318 6.89385 35.5405 5.70778 34.666 4.83329L33.774 5.72527L34.666 4.83329C33.7915 3.9588 32.6054 3.46752 31.3687 3.46752H7.62959C6.39287 3.46752 5.20681 3.9588 4.33232 4.83329C3.45783 5.70778 2.96654 6.89385 2.96654 8.13056V31.8697C2.96654 33.1064 3.45783 34.2925 4.33232 35.167L5.22844 34.2708L4.33232 35.167C5.20681 36.0415 6.39287 36.5327 7.62959 36.5327H31.3687C32.6054 36.5327 33.7915 36.0415 34.666 35.167ZM17.6 18.101H19.7874V18.7114V22.6623V23.2045V29.7501H17.6V18.101ZM23.4161 19.0167C23.0102 19.0167 22.6209 19.0833 22.2579 19.2059C22.8745 18.3623 24.0433 17.7788 24.9931 17.7788C26.1218 17.7788 27.2044 18.2272 28.0026 19.0254C28.8007 19.8236 29.2492 20.9061 29.2492 22.0349V29.7501H27.0618V22.6623C27.0618 21.6954 26.6777 20.7681 25.994 20.0844C25.3103 19.4007 24.383 19.0167 23.4161 19.0167ZM11.9325 12.4335C11.6368 12.7292 11.2356 12.8953 10.8174 12.8953C9.93297 12.8953 9.2235 12.1832 9.2235 11.3184C9.2235 10.8957 9.39143 10.4902 9.69034 10.1913C9.98926 9.89241 10.3947 9.72448 10.8174 9.72448C11.6822 9.72448 12.3944 10.4339 12.3944 11.3184C12.3944 11.7366 12.2282 12.1377 11.9325 12.4335ZM9.74915 18.101H11.9026V29.7501H9.74915V18.101Z" fill="url(#paint1_linear_8682_18863)" stroke="#F6F6F6" stroke-width="2.54348"/>
<defs>
<linearGradient id="paint0_linear_8682_18863" x1="19.4992" y1="4.73926" x2="19.4992" y2="35.261" gradientUnits="userSpaceOnUse">
<stop stop-color="#4B3CE4"/>
<stop offset="1" stop-color="#29217E"/>
</linearGradient>
<linearGradient id="paint1_linear_8682_18863" x1="19.4992" y1="4.73926" x2="19.4992" y2="35.261" gradientUnits="userSpaceOnUse">
<stop stop-color="#29217E"/>
<stop offset="1" stop-color="#4B3CE4"/>
</linearGradient>
</defs>
</svg>
