<svg width="60" height="60" viewBox="0 0 60 60" fill="none" xmlns="http://www.w3.org/2000/svg">
<path d="M40.4873 8.80512L40.4873 8.80512C37.6743 5.99207 33.859 4.41172 29.8807 4.41172C25.9025 4.41172 22.0872 5.99207 19.2741 8.80512C16.4611 11.6182 14.8807 15.4335 14.8807 19.4117V23.8286C13.6866 24.2818 12.5895 24.9852 11.6689 25.9057C9.959 27.6156 8.99839 29.9347 8.99839 32.3529V46.4705C8.99839 48.8887 9.959 51.2078 11.6689 52.9177C13.3788 54.6276 15.6979 55.5882 18.116 55.5882H41.6454C44.0636 55.5882 46.3827 54.6276 48.0926 52.9177C49.8025 51.2078 50.7631 48.8887 50.7631 46.4705V32.3529C50.7631 29.9347 49.8025 27.6156 48.0926 25.9057C47.172 24.9852 46.0749 24.2818 44.8807 23.8286V19.4117C44.8807 15.4335 43.3004 11.6182 40.4873 8.80512ZM32.5278 22.3529C32.5278 22.8402 32.1328 23.2352 31.6454 23.2352H28.116C27.6287 23.2352 27.2337 22.8402 27.2337 22.3529V19.4117C27.2337 18.7097 27.5126 18.0364 28.009 17.54C28.5054 17.0435 29.1787 16.7647 29.8807 16.7647C30.5828 16.7647 31.2561 17.0435 31.7525 17.54C32.2489 18.0364 32.5278 18.7097 32.5278 19.4117V22.3529Z" stroke="url(#paint0_linear_9167_25)" stroke-width="8.82353"/>
<path d="M29.8807 6.17643C26.3705 6.17643 23.0041 7.57086 20.522 10.053C18.0399 12.5351 16.6455 15.9015 16.6455 19.4117V25.1485C15.2433 25.4347 13.9438 26.1266 12.9167 27.1536C11.5378 28.5325 10.7631 30.4028 10.7631 32.3529V46.4705C10.7631 48.4207 11.5378 50.2909 12.9167 51.6699C14.2957 53.0488 16.1659 53.8235 18.116 53.8235H41.6454C43.5956 53.8235 45.4658 53.0488 46.8448 51.6699C48.2237 50.2909 48.9984 48.4207 48.9984 46.4705V32.3529C48.9984 30.4028 48.2237 28.5325 46.8448 27.1536C45.8177 26.1266 44.5182 25.4347 43.116 25.1485V19.4117C43.116 15.9015 41.7216 12.5351 39.2395 10.053C36.7574 7.57086 33.391 6.17643 29.8807 6.17643ZM34.2925 19.4117V25H25.469V19.4117C25.469 18.2416 25.9338 17.1195 26.7612 16.2921C27.5885 15.4648 28.7107 15 29.8807 15C31.0508 15 32.173 15.4648 33.0003 16.2921C33.8277 17.1195 34.2925 18.2416 34.2925 19.4117Z" fill="url(#paint1_linear_9167_25)" stroke="#F6F6F6" stroke-width="5.29412"/>
<rect x="27.5273" y="17.647" width="5.29412" height="5.29412" fill="#F6F6F6"/>
<defs>
<linearGradient id="paint0_linear_9167_25" x1="29.8807" y1="8.82349" x2="29.8807" y2="51.1764" gradientUnits="userSpaceOnUse">
<stop stop-color="#4B3CE4"/>
<stop offset="1" stop-color="#29217E"/>
</linearGradient>
<linearGradient id="paint1_linear_9167_25" x1="29.8807" y1="8.82349" x2="29.8807" y2="51.1764" gradientUnits="userSpaceOnUse">
<stop stop-color="#29217E"/>
<stop offset="1" stop-color="#4B3CE4"/>
</linearGradient>
</defs>
</svg>
