<svg width="60" height="61" viewBox="0 0 60 61" fill="none" xmlns="http://www.w3.org/2000/svg">
<path d="M25.9832 19.9886L25.9829 19.9872L24.1036 11.5277C24.1035 11.5274 24.1035 11.5271 24.1034 11.5268C23.6915 9.67162 22.659 8.01249 21.1765 6.8235C19.6943 5.6347 17.851 4.98703 15.951 4.98741C15.9509 4.98741 15.9507 4.98741 15.9506 4.98741C15.9501 4.98741 15.9496 4.98741 15.9491 4.98741L12.9375 4.98741C10.7231 4.98741 8.59947 5.86706 7.03368 7.43285C5.46789 8.99864 4.58824 11.1223 4.58824 13.3367V17.2733C4.58824 17.2736 4.58824 17.2739 4.58824 17.2742C4.58651 20.6004 5.01488 23.913 5.8627 27.1294L5.86475 27.1371C7.61097 33.7136 11.0648 39.7115 15.8762 44.5229C20.6877 49.3343 26.6856 52.7882 33.262 54.5344L33.2705 54.5367C36.4212 55.3666 39.723 55.8109 43.125 55.8109H47.0625C49.2769 55.8109 51.4005 54.9313 52.9663 53.3655C54.5321 51.7997 55.4118 49.676 55.4118 47.4617V44.45C55.4118 44.4494 55.4118 44.4488 55.4118 44.4482C55.4121 42.5482 54.7645 40.7048 53.5757 39.2226L50.1341 41.9829L53.5757 39.2226C52.3867 37.7402 50.7276 36.7077 48.8724 36.2958C48.8721 36.2957 48.8718 36.2956 48.8715 36.2956L40.412 34.4163L40.4106 34.416C38.3337 33.9553 36.1594 34.3048 34.3315 35.393L36.4935 39.0245L34.3315 35.393C32.6261 36.4084 31.3423 37.9953 30.7029 39.8644C28.5769 38.6921 26.6221 37.2241 24.8986 35.5006C23.1751 33.7771 21.7071 31.8223 20.5348 29.6963C22.4039 29.0569 23.9908 27.7731 25.0061 26.0677C26.0944 24.2398 26.4439 22.0654 25.9832 19.9886Z" stroke="url(#paint0_linear_8682_19478)" stroke-width="8.82353"/>
<path d="M24.2604 20.3707L24.2602 20.3699L22.3808 11.91C22.3808 11.9098 22.3807 11.9097 22.3807 11.9095C22.0558 10.4464 21.2416 9.13785 20.0724 8.20013C18.9034 7.26252 17.4495 6.75173 15.951 6.75211C15.9508 6.75211 15.9507 6.75211 15.9505 6.75211C15.9503 6.75211 15.9501 6.75211 15.9499 6.75211L12.9375 6.75211C11.1912 6.75211 9.51636 7.44584 8.28152 8.68068C7.04668 9.91553 6.35295 11.5903 6.35295 13.3367V17.2734C6.35295 17.2737 6.35295 17.2739 6.35295 17.2742C6.35122 20.4486 6.76 23.61 7.56912 26.6796L7.57035 26.6842C9.23673 32.96 12.5327 38.6837 17.1241 43.2751C21.7155 47.8665 27.4392 51.1624 33.7149 52.8288L33.72 52.8302C36.7266 53.6221 39.8773 54.0462 43.125 54.0462H47.0625C48.8088 54.0462 50.4837 53.3525 51.7185 52.1177C52.9533 50.8828 53.6471 49.208 53.6471 47.4617V44.4493C53.6471 44.4489 53.6471 44.4485 53.6471 44.4482C53.6474 42.9496 53.1367 41.4958 52.1991 40.3268L50.288 41.8595L52.199 40.3268C51.2613 39.1576 49.9528 38.3433 48.4897 38.0185C48.4895 38.0184 48.4893 38.0184 48.4892 38.0184L40.0293 36.139L40.0284 36.1388C38.3906 35.7755 36.6758 36.0511 35.2342 36.9094L36.5884 39.1838L35.2342 36.9094C33.7928 37.7675 32.7333 39.1434 32.272 40.7563C32.2719 40.7564 32.2719 40.7566 32.2718 40.7568L31.8048 42.3886C28.7715 41.0162 26.0085 39.1062 23.6508 36.7484C21.293 34.3907 19.3829 31.6277 18.0105 28.5943L19.6424 28.1273C19.6426 28.1273 19.6427 28.1272 19.6429 28.1272C21.2557 27.6659 22.6317 26.6063 23.4898 25.1649C24.3481 23.7234 24.6237 22.0086 24.2604 20.3707Z" fill="url(#paint1_linear_8682_19478)" stroke="#F6F6F6" stroke-width="5.29412"/>
<defs>
<linearGradient id="paint0_linear_8682_19478" x1="30" y1="9.39917" x2="30" y2="51.3992" gradientUnits="userSpaceOnUse">
<stop stop-color="#4B3CE4"/>
<stop offset="1" stop-color="#29217E"/>
</linearGradient>
<linearGradient id="paint1_linear_8682_19478" x1="30" y1="9.39917" x2="30" y2="51.3992" gradientUnits="userSpaceOnUse">
<stop stop-color="#29217E"/>
<stop offset="1" stop-color="#4B3CE4"/>
</linearGradient>
</defs>
</svg>
