<svg width="62" height="60" viewBox="0 0 62 60" fill="none" xmlns="http://www.w3.org/2000/svg">
<mask id="path-1-outside-1_9167_58" maskUnits="userSpaceOnUse" x="-0.00390571" y="5.36442e-07" width="60" height="60" fill="black">
<rect fill="white" x="-0.00390571" y="5.36442e-07" width="60" height="60"/>
<path d="M43.9567 10.8692C43.956 10.8692 43.9554 10.8688 43.9553 10.8681C43.848 10.341 43.5619 9.86718 43.1454 9.52676C42.7286 9.1861 42.2069 9 41.6686 9C41.1303 9 40.6085 9.1861 40.1917 9.52676C39.7749 9.86743 39.4887 10.3417 39.3816 10.8692L38.8215 13.6509C38.7315 14.1028 38.5097 14.5179 38.1841 14.8439C37.8585 15.1699 37.4437 15.3922 36.992 15.4828L34.2103 16.0382C33.6802 16.1431 33.203 16.4286 32.8599 16.8461C32.5169 17.2636 32.3294 17.7872 32.3294 18.3275C32.3294 18.8679 32.5169 19.3915 32.8599 19.809C33.203 20.2265 33.6802 20.512 34.2103 20.6168L36.992 21.1722C37.4442 21.2624 37.8595 21.4846 38.1855 21.8106C38.5115 22.1366 38.7337 22.5519 38.8239 23.0041L39.3793 25.7858C39.4841 26.3159 39.7696 26.7931 40.1871 27.1362C40.6046 27.4792 41.1282 27.6667 41.6686 27.6667C42.2089 27.6667 42.7325 27.4792 43.15 27.1362C43.5675 26.7931 43.853 26.3159 43.9579 25.7858L44.5133 23.0041C44.6035 22.5519 44.8256 22.1366 45.1517 21.8106C45.4777 21.4846 45.893 21.2624 46.3452 21.1722L49.1269 20.6168C49.6569 20.512 50.1342 20.2265 50.4772 19.809C50.8202 19.3915 51.0077 18.8679 51.0077 18.3275C51.0077 17.7872 50.8202 17.2636 50.4772 16.8461C50.1342 16.4286 49.6569 16.1431 49.1269 16.0382L46.3452 15.4828C45.893 15.3926 45.4777 15.1705 45.1517 14.8444C44.8256 14.5184 44.6035 14.1031 44.5133 13.6509L43.9581 10.8704C43.958 10.8697 43.9574 10.8692 43.9567 10.8692ZM22.8805 19.9237C22.726 19.4585 22.4289 19.0538 22.0314 18.767C21.6339 18.4802 21.1561 18.3258 20.6659 18.3258C20.1757 18.3258 19.698 18.4802 19.3005 18.767C18.903 19.0538 18.6059 19.4585 18.4513 19.9237L16.8574 24.71C16.7429 25.0541 16.5498 25.3667 16.2934 25.6231C16.037 25.8795 15.7243 26.0727 15.3803 26.1872L10.594 27.781C10.1288 27.9356 9.72409 28.2327 9.43727 28.6302C9.15045 29.0277 8.99609 29.5055 8.99609 29.9957C8.99609 30.4858 9.15045 30.9636 9.43727 31.3611C9.72409 31.7586 10.1288 32.0557 10.594 32.2103L15.3803 33.8065C15.7241 33.9208 16.0365 34.1135 16.2929 34.3695C16.5493 34.6255 16.7426 34.9377 16.8574 35.2813L18.4513 40.0676C18.6059 40.5328 18.903 40.9375 19.3005 41.2243C19.698 41.5111 20.1757 41.6655 20.6659 41.6655C21.1561 41.6655 21.6339 41.5111 22.0314 41.2243C22.4289 40.9375 22.726 40.5328 22.8805 40.0676L24.4744 35.2813C24.5889 34.9373 24.7821 34.6246 25.0385 34.3682C25.2949 34.1118 25.6075 33.9187 25.9516 33.8041L30.7379 32.2103C31.203 32.0557 31.6078 31.7586 31.8946 31.3611C32.1814 30.9636 32.3358 30.4858 32.3358 29.9957C32.3358 29.5055 32.1814 29.0277 31.8946 28.6302C31.6078 28.2327 31.203 27.9356 30.7379 27.781L25.9516 26.1872C25.6075 26.0727 25.2949 25.8795 25.0385 25.6231C24.7821 25.3667 24.5889 25.0541 24.4744 24.71L22.8805 19.9237ZM39.2159 38.5927C39.0614 38.1276 38.7643 37.7228 38.3668 37.436C37.9692 37.1492 37.4915 36.9949 37.0013 36.9949C36.5111 36.9949 36.0334 37.1492 35.6359 37.436C35.2384 37.7228 34.9413 38.1276 34.7867 38.5927L34.3573 39.8786C34.243 40.2224 34.0503 40.5349 33.7943 40.7913C33.5383 41.0477 33.2261 41.2409 32.8825 41.3558L31.5966 41.7828C31.1314 41.9374 30.7267 42.2345 30.4399 42.632C30.1531 43.0295 29.9987 43.5072 29.9987 43.9974C29.9987 44.4876 30.1531 44.9654 30.4399 45.3629C30.7267 45.7604 31.1314 46.0575 31.5966 46.212L32.8825 46.6391C33.2265 46.7536 33.5392 46.9467 33.7956 47.2032C34.052 47.4596 34.2451 47.7722 34.3597 48.1163L34.7867 49.4021C34.9413 49.8673 35.2384 50.272 35.6359 50.5588C36.0334 50.8456 36.5111 51 37.0013 51C37.4915 51 37.9692 50.8456 38.3668 50.5588C38.7643 50.272 39.0614 49.8673 39.2159 49.4021L39.6453 48.1163C39.7596 47.7725 39.9524 47.46 40.2084 47.2036C40.4644 46.9472 40.7765 46.7539 41.1202 46.6391L42.406 46.212C42.8712 46.0575 43.2759 45.7604 43.5627 45.3629C43.8495 44.9654 44.0039 44.4876 44.0039 43.9974C44.0039 43.5072 43.8495 43.0295 43.5627 42.632C43.2759 42.2345 42.8712 41.9374 42.406 41.7828L41.1202 41.3534C40.7764 41.2391 40.4639 41.0464 40.2075 40.7904C39.9511 40.5344 39.7578 40.2222 39.643 39.8786L39.2159 38.5927Z"/>
</mask>
<path d="M43.1454 9.52676L37.5614 16.3586L43.1454 9.52676ZM41.6686 9V0.17647V9ZM39.3816 10.8692L30.7346 9.11338L30.7331 9.12051L30.7317 9.12764L39.3816 10.8692ZM38.8215 13.6509L30.1716 11.9093L30.1699 11.9178L30.1682 11.9263L38.8215 13.6509ZM36.992 15.4828L38.7196 24.1356L38.7277 24.134L36.992 15.4828ZM34.2103 16.0382L35.9221 24.6941L35.93 24.6925L35.9379 24.691L34.2103 16.0382ZM34.2103 20.6168L35.9379 11.9641L35.93 11.9625L35.9221 11.9609L34.2103 20.6168ZM36.992 21.1722L35.2643 29.8249L35.2655 29.8252L36.992 21.1722ZM38.8239 23.0041L30.1709 24.7306L30.1711 24.7318L38.8239 23.0041ZM39.3793 25.7858L48.0352 24.074L48.0336 24.0661L48.032 24.0581L39.3793 25.7858ZM43.9579 25.7858L35.3051 24.0581L35.3035 24.0661L35.302 24.074L43.9579 25.7858ZM44.5133 23.0041L53.166 24.7318L53.1662 24.7306L44.5133 23.0041ZM46.3452 21.1722L48.0717 29.8252L48.0728 29.8249L46.3452 21.1722ZM49.1269 20.6168L47.415 11.9609L47.4071 11.9625L47.3992 11.9641L49.1269 20.6168ZM49.1269 16.0382L47.3992 24.691L47.4071 24.6925L47.415 24.6941L49.1269 16.0382ZM46.3452 15.4828L48.0728 6.83008L48.0717 6.82985L46.3452 15.4828ZM44.5133 13.6509L53.1662 11.9244L53.166 11.9233L44.5133 13.6509ZM22.8805 19.9237L14.507 22.7056L14.509 22.7115L22.8805 19.9237ZM18.4513 19.9237L26.8229 22.7115L26.8248 22.7056L18.4513 19.9237ZM16.8574 24.71L8.48589 21.9222L8.48551 21.9233L16.8574 24.71ZM15.3803 26.1872L12.5936 17.8152L12.5925 17.8156L15.3803 26.1872ZM10.594 27.781L13.3758 36.1546L13.3818 36.1526L10.594 27.781ZM8.99609 29.9957H17.8196H8.99609ZM10.594 32.2103L13.3855 23.8399L13.3758 23.8367L10.594 32.2103ZM15.3803 33.8065L12.5888 42.1768L12.5969 42.1795L15.3803 33.8065ZM16.8574 35.2813L25.229 32.4935L25.2261 32.4848L16.8574 35.2813ZM18.4513 40.0676L26.8248 37.2857L26.8229 37.2798L18.4513 40.0676ZM19.3005 41.2243L14.1377 48.3797L19.3005 41.2243ZM22.0314 41.2243L27.1942 48.3797L22.0314 41.2243ZM22.8805 40.0676L14.509 37.2798L14.507 37.2857L22.8805 40.0676ZM24.4744 35.2813L32.846 38.0691L32.8463 38.068L24.4744 35.2813ZM25.9516 33.8041L28.7382 42.1761L28.7394 42.1757L25.9516 33.8041ZM30.7379 32.2103L27.956 23.8367L27.9501 23.8387L30.7379 32.2103ZM30.7379 27.781L27.9501 36.1526L27.956 36.1546L30.7379 27.781ZM25.9516 26.1872L28.7394 17.8156L28.7382 17.8152L25.9516 26.1872ZM24.4744 24.71L32.8463 21.9233L32.846 21.9222L24.4744 24.71ZM39.2159 38.5927L47.5897 35.8116L47.5895 35.8109L39.2159 38.5927ZM34.7867 38.5927L43.1559 41.3875L43.1602 41.3746L34.7867 38.5927ZM34.3573 39.8786L25.9881 37.0838L25.9843 37.0952L34.3573 39.8786ZM32.8825 41.3558L35.6636 49.7295L35.6713 49.727L35.679 49.7244L32.8825 41.3558ZM31.5966 41.7828L28.8155 33.409L28.8148 33.4093L31.5966 41.7828ZM31.5966 46.212L28.8148 54.5856L28.8155 54.5858L31.5966 46.212ZM32.8825 46.6391L35.6691 38.2672L35.6636 38.2653L32.8825 46.6391ZM34.3597 48.1163L42.7334 45.3352L42.7316 45.3296L34.3597 48.1163ZM34.7867 49.4021L26.4129 52.1832L26.4132 52.184L34.7867 49.4021ZM39.2159 49.4021L30.8467 46.6073L30.8424 46.6203L39.2159 49.4021ZM39.6453 48.1163L48.0145 50.9111L48.0184 50.8996L39.6453 48.1163ZM41.1202 46.6391L38.3391 38.2653L38.3313 38.2679L38.3236 38.2705L41.1202 46.6391ZM42.406 46.212L45.1871 54.5858L45.1878 54.5856L42.406 46.212ZM42.406 41.7828L39.6112 50.152L39.6242 50.1563L42.406 41.7828ZM41.1202 41.3534L43.915 32.9842L43.9035 32.9804L41.1202 41.3534ZM39.643 39.8786L31.2692 42.6597L31.2718 42.6674L31.2744 42.6751L39.643 39.8786ZM43.9581 10.8704L35.3054 12.598L43.9581 10.8704ZM43.9553 10.8681L35.3091 12.6283L43.9553 10.8681ZM52.6015 9.10792C52.0885 6.58795 50.7207 4.3225 48.7294 2.69494L37.5614 16.3586C36.4031 15.4119 35.6075 14.0941 35.3091 12.6283L52.6015 9.10792ZM48.7294 2.69494C46.7367 1.06621 44.2422 0.17647 41.6686 0.17647V17.8235C40.1715 17.8235 38.7205 17.306 37.5614 16.3586L48.7294 2.69494ZM41.6686 0.17647C39.0949 0.17647 36.6004 1.06621 34.6078 2.69494L45.7757 16.3586C44.6166 17.306 43.1656 17.8235 41.6686 17.8235V0.17647ZM34.6078 2.69494C32.615 4.32368 31.2467 6.59123 30.7346 9.11338L48.0287 12.6251C47.7308 14.0922 46.9348 15.4112 45.7757 16.3586L34.6078 2.69494ZM30.7317 9.12764L30.1716 11.9093L47.4715 15.3925L48.0316 12.6108L30.7317 9.12764ZM30.1682 11.9263C30.4187 10.6696 31.0355 9.51528 31.941 8.60866L44.4273 21.0791C45.9839 19.5204 47.0443 17.5359 47.4749 15.3756L30.1682 11.9263ZM31.941 8.60866C32.8464 7.70205 34 7.08375 35.2563 6.83169L38.7277 24.134C40.8875 23.7006 42.8706 22.6377 44.4273 21.0791L31.941 8.60866ZM35.2643 6.83008L32.4827 7.38549L35.9379 24.691L38.7196 24.1356L35.2643 6.83008ZM32.4985 7.38235C29.9642 7.88354 27.6823 9.24865 26.0423 11.2447L39.6775 22.4474C38.7236 23.6085 37.3963 24.4026 35.9221 24.6941L32.4985 7.38235ZM26.0423 11.2447C24.4024 13.2408 23.5059 15.7441 23.5059 18.3275H41.1529C41.1529 19.8302 40.6315 21.2864 39.6775 22.4474L26.0423 11.2447ZM23.5059 18.3275C23.5059 20.9109 24.4024 23.4142 26.0423 25.4103L39.6775 14.2076C40.6315 15.3687 41.1529 16.8248 41.1529 18.3275H23.5059ZM26.0423 25.4103C27.6823 27.4064 29.9642 28.7715 32.4985 29.2727L35.9221 11.9609C37.3963 12.2525 38.7236 13.0465 39.6775 14.2076L26.0423 25.4103ZM32.4827 29.2695L35.2643 29.8249L38.7196 12.5195L35.9379 11.9641L32.4827 29.2695ZM35.2655 29.8252C34.008 29.5743 32.853 28.9565 31.9463 28.0498L44.4247 15.5714C42.8659 14.0127 40.8803 12.9506 38.7185 12.5192L35.2655 29.8252ZM31.9463 28.0498C31.0396 27.1431 30.4218 25.9881 30.1709 24.7306L47.4769 21.2776C47.0455 19.1158 45.9834 17.1302 44.4247 15.5714L31.9463 28.0498ZM30.1711 24.7318L30.7265 27.5134L48.032 24.0581L47.4766 21.2765L30.1711 24.7318ZM30.7234 27.4976C31.2246 30.0319 32.5897 32.3138 34.5858 33.9537L45.7885 20.3186C46.9496 21.2725 47.7436 22.5998 48.0352 24.074L30.7234 27.4976ZM34.5858 33.9537C36.5819 35.5937 39.0852 36.4902 41.6686 36.4902V18.8431C43.1713 18.8431 44.6274 19.3646 45.7885 20.3186L34.5858 33.9537ZM41.6686 36.4902C44.252 36.4902 46.7553 35.5937 48.7514 33.9537L37.5487 20.3186C38.7097 19.3646 40.1659 18.8431 41.6686 18.8431V36.4902ZM48.7514 33.9537C50.7474 32.3138 52.1126 30.0319 52.6137 27.4976L35.302 24.074C35.5935 22.5998 36.3876 21.2725 37.5487 20.3186L48.7514 33.9537ZM52.6106 27.5134L53.166 24.7318L35.8605 21.2765L35.3051 24.0581L52.6106 27.5134ZM53.1662 24.7306C52.9153 25.9881 52.2975 27.1431 51.3908 28.0498L38.9125 15.5714C37.3537 17.1302 36.2916 19.1158 35.8603 21.2776L53.1662 24.7306ZM51.3908 28.0498C50.4841 28.9565 49.3292 29.5743 48.0717 29.8252L44.6187 12.5192C42.4568 12.9506 40.4713 14.0127 38.9125 15.5714L51.3908 28.0498ZM48.0728 29.8249L50.8545 29.2695L47.3992 11.9641L44.6175 12.5195L48.0728 29.8249ZM50.8387 29.2727C53.373 28.7715 55.6548 27.4064 57.2948 25.4103L43.6596 14.2076C44.6136 13.0465 45.9409 12.2525 47.415 11.9609L50.8387 29.2727ZM57.2948 25.4103C58.9348 23.4142 59.8313 20.9109 59.8313 18.3275H42.1842C42.1842 16.8248 42.7057 15.3687 43.6596 14.2076L57.2948 25.4103ZM59.8313 18.3275C59.8313 15.7441 58.9348 13.2408 57.2948 11.2447L43.6596 22.4474C42.7057 21.2864 42.1842 19.8302 42.1842 18.3275H59.8313ZM57.2948 11.2447C55.6548 9.24864 53.373 7.88354 50.8387 7.38235L47.415 24.6941C45.9409 24.4026 44.6136 23.6085 43.6596 22.4474L57.2948 11.2447ZM50.8545 7.38549L48.0728 6.83008L44.6175 24.1356L47.3992 24.691L50.8545 7.38549ZM48.0717 6.82985C49.3291 7.08075 50.4841 7.69854 51.3908 8.60525L38.9125 21.0836C40.4713 22.6424 42.4569 23.7045 44.6187 24.1358L48.0717 6.82985ZM51.3908 8.60525C52.2975 9.51195 52.9153 10.6669 53.1662 11.9244L35.8603 15.3774C36.2916 17.5393 37.3537 19.5248 38.9125 21.0836L51.3908 8.60525ZM53.166 11.9233L52.6108 9.14274L35.3054 12.598L35.8605 15.3786L53.166 11.9233ZM31.2541 17.1419C30.5152 14.9178 29.0947 12.9829 27.1942 11.6116L16.8686 25.9224C15.7631 25.1248 14.9368 23.9993 14.507 22.7056L31.2541 17.1419ZM27.1942 11.6116C25.2936 10.2403 23.0095 9.5023 20.6659 9.5023V27.1494C19.3027 27.1494 17.9741 26.7201 16.8686 25.9224L27.1942 11.6116ZM20.6659 9.5023C18.3223 9.5023 16.0382 10.2403 14.1377 11.6116L24.4633 25.9224C23.3578 26.7201 22.0292 27.1494 20.6659 27.1494V9.5023ZM14.1377 11.6116C12.2371 12.9829 10.8167 14.9178 10.0778 17.1419L26.8248 22.7056C26.395 23.9993 25.5688 25.1248 24.4633 25.9224L14.1377 11.6116ZM10.0798 17.1359L8.48589 21.9222L25.229 27.4978L26.8229 22.7115L10.0798 17.1359ZM8.48551 21.9233C8.804 20.9665 9.3411 20.097 10.0542 19.3839L22.5326 31.8623C23.7585 30.6364 24.6818 29.1416 25.2294 27.4966L8.48551 21.9233ZM10.0542 19.3839C10.7673 18.6708 11.6368 18.1337 12.5936 17.8152L18.1669 34.5591C19.8119 34.0116 21.3066 33.0882 22.5326 31.8623L10.0542 19.3839ZM12.5925 17.8156L7.80619 19.4095L13.3818 36.1526L18.1681 34.5587L12.5925 17.8156ZM7.81214 19.4075C5.58806 20.1464 3.65312 21.5669 2.28184 23.4674L16.5927 33.793C15.7951 34.8985 14.6695 35.7248 13.3758 36.1546L7.81214 19.4075ZM2.28184 23.4674C0.910553 25.368 0.172564 27.6521 0.172564 29.9957H17.8196C17.8196 31.3589 17.3903 32.6875 16.5927 33.793L2.28184 23.4674ZM0.172564 29.9957C0.172564 32.3393 0.910553 34.6234 2.28184 36.5239L16.5927 26.1983C17.3903 27.3038 17.8196 28.6324 17.8196 29.9957H0.172564ZM2.28184 36.5239C3.65312 38.4244 5.58806 39.8449 7.81214 40.5838L13.3758 23.8367C14.6695 24.2665 15.7951 25.0928 16.5927 26.1983L2.28184 36.5239ZM7.80252 40.5806L12.5888 42.1768L18.1717 25.4361L13.3855 23.8399L7.80252 40.5806ZM12.5969 42.1795C11.6408 41.8617 10.7717 41.3256 10.0587 40.6136L22.5272 28.1254C21.3014 26.9015 19.8074 25.9799 18.1636 25.4334L12.5969 42.1795ZM10.0587 40.6136C9.34566 39.9017 8.80817 39.0335 8.48882 38.0779L25.2261 32.4848C24.677 30.8418 23.753 29.3493 22.5272 28.1254L10.0587 40.6136ZM8.48589 38.0691L10.0798 42.8554L26.8229 37.2798L25.229 32.4935L8.48589 38.0691ZM10.0778 42.8494C10.8167 45.0735 12.2371 47.0085 14.1377 48.3797L24.4633 34.0689C25.5688 34.8665 26.395 35.9921 26.8248 37.2857L10.0778 42.8494ZM14.1377 48.3797C16.0382 49.751 18.3223 50.489 20.6659 50.489V32.842C22.0291 32.842 23.3578 33.2712 24.4633 34.0689L14.1377 48.3797ZM20.6659 50.489C23.0095 50.489 25.2936 49.751 27.1942 48.3797L16.8686 34.0689C17.9741 33.2712 19.3027 32.842 20.6659 32.842V50.489ZM27.1942 48.3797C29.0947 47.0085 30.5152 45.0735 31.2541 42.8494L14.507 37.2857C14.9368 35.9921 15.7631 34.8665 16.8686 34.0689L27.1942 48.3797ZM31.2521 42.8554L32.846 38.0691L16.1029 32.4935L14.509 37.2798L31.2521 42.8554ZM32.8463 38.068C32.5278 39.0248 31.9907 39.8943 31.2776 40.6074L18.7993 28.129C17.5734 29.355 16.65 30.8497 16.1025 32.4947L32.8463 38.068ZM31.2776 40.6074C30.5645 41.3205 29.6951 41.8576 28.7382 42.1761L23.1649 25.4322C21.52 25.9797 20.0252 26.9031 18.7993 28.129L31.2776 40.6074ZM28.7394 42.1757L33.5257 40.5818L27.9501 23.8387L23.1638 25.4326L28.7394 42.1757ZM33.5197 40.5838C35.7438 39.8449 37.6787 38.4244 39.05 36.5239L24.7391 26.1983C25.5368 25.0928 26.6623 24.2665 27.956 23.8367L33.5197 40.5838ZM39.05 36.5239C40.4213 34.6233 41.1593 32.3392 41.1593 29.9957H23.5122C23.5122 28.6324 23.9415 27.3038 24.7391 26.1983L39.05 36.5239ZM41.1593 29.9957C41.1593 27.6521 40.4213 25.368 39.05 23.4674L24.7391 33.793C23.9415 32.6875 23.5122 31.3589 23.5122 29.9957H41.1593ZM39.05 23.4674C37.6787 21.5669 35.7438 20.1464 33.5197 19.4075L27.956 36.1546C26.6623 35.7248 25.5368 34.8985 24.7391 33.793L39.05 23.4674ZM33.5257 19.4095L28.7394 17.8156L23.1638 34.5587L27.9501 36.1526L33.5257 19.4095ZM28.7382 17.8152C29.6951 18.1337 30.5645 18.6708 31.2776 19.3839L18.7993 31.8623C20.0252 33.0882 21.52 34.0116 23.1649 34.5591L28.7382 17.8152ZM31.2776 19.3839C31.9907 20.097 32.5278 20.9665 32.8463 21.9233L16.1025 27.4966C16.65 29.1416 17.5734 30.6364 18.7993 31.8623L31.2776 19.3839ZM32.846 21.9222L31.2521 17.1359L14.509 22.7115L16.1029 27.4978L32.846 21.9222ZM47.5895 35.8109C46.8506 33.5868 45.4301 31.6519 43.5296 30.2806L33.204 44.5915C32.0985 43.7938 31.2722 42.6683 30.8424 41.3746L47.5895 35.8109ZM43.5296 30.2806C41.629 28.9093 39.3449 28.1713 37.0013 28.1713V45.8184C35.6381 45.8184 34.3095 45.3891 33.204 44.5915L43.5296 30.2806ZM37.0013 28.1713C34.6577 28.1713 32.3736 28.9093 30.4731 30.2806L40.7987 44.5915C39.6931 45.3891 38.3645 45.8184 37.0013 45.8184V28.1713ZM30.4731 30.2806C28.5725 31.6519 27.1521 33.5868 26.4132 35.8109L43.1602 41.3746C42.7304 42.6683 41.9042 43.7938 40.7987 44.5915L30.4731 30.2806ZM26.4175 35.7979L25.9881 37.0838L42.7265 42.6734L43.1559 41.3875L26.4175 35.7979ZM25.9843 37.0952C26.3021 36.1391 26.8382 35.2701 27.5502 34.557L40.0384 47.0255C41.2623 45.7997 42.1839 44.3057 42.7304 42.6619L25.9843 37.0952ZM27.5502 34.557C28.2621 33.844 29.1302 33.3065 30.0859 32.9871L35.679 49.7244C37.322 49.1754 38.8145 48.2513 40.0384 47.0255L27.5502 34.557ZM30.1013 32.982L28.8155 33.409L34.3778 50.1566L35.6636 49.7295L30.1013 32.982ZM28.8148 33.4093C26.5907 34.1482 24.6558 35.5686 23.2845 37.4692L37.5954 47.7948C36.7977 48.9003 35.6722 49.7265 34.3785 50.1563L28.8148 33.4093ZM23.2845 37.4692C21.9132 39.3697 21.1752 41.6538 21.1752 43.9974H38.8223C38.8223 45.3606 38.393 46.6893 37.5954 47.7948L23.2845 37.4692ZM21.1752 43.9974C21.1752 46.341 21.9132 48.6251 23.2845 50.5257L37.5954 40.2001C38.393 41.3056 38.8223 42.6342 38.8223 43.9974H21.1752ZM23.2845 50.5257C24.6558 52.4262 26.5907 53.8467 28.8148 54.5856L34.3785 37.8385C35.6722 38.2683 36.7977 39.0945 37.5954 40.2001L23.2845 50.5257ZM28.8155 54.5858L30.1013 55.0129L35.6636 38.2653L34.3778 37.8383L28.8155 54.5858ZM30.0958 55.011C29.139 54.6925 28.2695 54.1554 27.5564 53.4423L40.0348 40.964C38.8088 39.7381 37.3141 38.8147 35.6691 38.2672L30.0958 55.011ZM27.5564 53.4423C26.8433 52.7292 26.3062 51.8598 25.9877 50.9029L42.7316 45.3296C42.184 43.6846 41.2607 42.1899 40.0348 40.964L27.5564 53.4423ZM25.9859 50.8974L26.4129 52.1832L43.1605 46.621L42.7334 45.3352L25.9859 50.8974ZM26.4132 52.184C27.1521 54.408 28.5725 56.343 30.4731 57.7143L40.7987 43.4034C41.9042 44.201 42.7304 45.3265 43.1602 46.6203L26.4132 52.184ZM30.4731 57.7143C32.3736 59.0855 34.6577 59.8235 37.0013 59.8235V42.1765C38.3646 42.1765 39.6932 42.6058 40.7987 43.4034L30.4731 57.7143ZM37.0013 59.8235C39.345 59.8235 41.6291 59.0855 43.5296 57.7143L33.204 43.4034C34.3094 42.6058 35.6381 42.1765 37.0013 42.1765V59.8235ZM43.5296 57.7143C45.4301 56.343 46.8506 54.408 47.5895 52.184L30.8424 46.6203C31.2722 45.3265 32.0985 44.201 33.204 43.4034L43.5296 57.7143ZM47.5851 52.1969L48.0145 50.9111L31.2761 45.3215L30.8467 46.6073L47.5851 52.1969ZM48.0184 50.8996C47.7005 51.8558 47.1644 52.7248 46.4525 53.4378L33.9643 40.9693C32.7404 42.1952 31.8187 43.6891 31.2723 45.3329L48.0184 50.8996ZM46.4525 53.4378C45.7406 54.1509 44.8724 54.6884 43.9167 55.0077L38.3236 38.2705C36.6807 38.8195 35.1881 39.7435 33.9643 40.9693L46.4525 53.4378ZM43.9013 55.0129L45.1871 54.5858L39.6249 37.8383L38.3391 38.2653L43.9013 55.0129ZM45.1878 54.5856C47.4119 53.8467 49.3469 52.4262 50.7181 50.5257L36.4073 40.2001C37.205 39.0945 38.3305 38.2683 39.6242 37.8385L45.1878 54.5856ZM50.7181 50.5257C52.0894 48.6251 52.8274 46.341 52.8274 43.9974H35.1804C35.1804 42.6342 35.6096 41.3056 36.4073 40.2001L50.7181 50.5257ZM52.8274 43.9974C52.8274 41.6538 52.0894 39.3697 50.7181 37.4692L36.4073 47.7948C35.6096 46.6893 35.1804 45.3607 35.1804 43.9974H52.8274ZM50.7181 37.4692C49.3469 35.5686 47.4119 34.1482 45.1878 33.4093L39.6242 50.1563C38.3305 49.7265 37.2049 48.9003 36.4073 47.7948L50.7181 37.4692ZM45.2008 33.4136L43.915 32.9842L38.3254 49.7226L39.6112 50.152L45.2008 33.4136ZM43.9035 32.9804C44.8597 33.2982 45.7287 33.8343 46.4417 34.5463L33.9732 47.0345C35.1991 48.2584 36.6931 49.18 38.3368 49.7265L43.9035 32.9804ZM46.4417 34.5463C47.1548 35.2582 47.6923 36.1263 48.0116 37.082L31.2744 42.6751C31.8234 44.3181 32.7474 45.8106 33.9732 47.0345L46.4417 34.5463ZM48.0168 37.0975L47.5897 35.8116L30.8422 41.3739L31.2692 42.6597L48.0168 37.0975ZM52.6108 9.14274C51.7868 5.01583 48.1638 2.04571 43.9567 2.04571V19.6928C39.7509 19.6928 36.1291 16.7236 35.3054 12.598L52.6108 9.14274ZM35.3091 12.6283C36.1439 16.7286 39.7506 19.6928 43.9567 19.6928V2.04571C48.1615 2.04571 51.767 5.00893 52.6015 9.10792L35.3091 12.6283Z" fill="url(#paint0_linear_9167_58)" mask="url(#path-1-outside-1_9167_58)"/>
<mask id="path-3-outside-2_9167_58" maskUnits="userSpaceOnUse" x="2.98438" y="3" width="54" height="54" fill="black">
<rect fill="white" x="2.98438" y="3" width="54" height="54"/>
<path d="M43.9439 10.8692C43.8368 10.3417 43.5506 9.86743 43.1338 9.52676C42.717 9.1861 42.1952 9 41.6569 9C41.1186 9 40.5969 9.1861 40.1801 9.52676C39.7633 9.86743 39.4771 10.3417 39.37 10.8692L38.8099 13.6509C38.7198 14.1028 38.498 14.5179 38.1725 14.8439C37.8469 15.1699 37.4321 15.3922 36.9803 15.4828L34.1987 16.0382C33.6686 16.1431 33.1913 16.4286 32.8483 16.8461C32.5053 17.2636 32.3178 17.7872 32.3178 18.3275C32.3178 18.8679 32.5053 19.3915 32.8483 19.809C33.1913 20.2264 33.6686 20.512 34.1987 20.6168L36.9803 21.1722C37.4325 21.2624 37.8478 21.4846 38.1738 21.8106C38.4999 22.1366 38.722 22.5519 38.8122 23.0041L39.3676 25.7858C39.4725 26.3159 39.758 26.7931 40.1755 27.1362C40.593 27.4792 41.1166 27.6667 41.6569 27.6667C42.1973 27.6667 42.7209 27.4792 43.1384 27.1362C43.5559 26.7931 43.8414 26.3159 43.9462 25.7858L44.5016 23.0041C44.5918 22.5519 44.814 22.1366 45.14 21.8106C45.466 21.4846 45.8814 21.2624 46.3335 21.1722L49.1152 20.6168C49.6453 20.512 50.1225 20.2264 50.4656 19.809C50.8086 19.3915 50.9961 18.8679 50.9961 18.3275C50.9961 17.7872 50.8086 17.2636 50.4656 16.8461C50.1225 16.4286 49.6453 16.1431 49.1152 16.0382L46.3335 15.4828C45.8814 15.3926 45.466 15.1705 45.14 14.8444C44.814 14.5184 44.5918 14.1031 44.5016 13.6509L43.9439 10.8692ZM22.8689 19.9237C22.7143 19.4585 22.4172 19.0538 22.0197 18.767C21.6222 18.4802 21.1445 18.3258 20.6543 18.3258C20.1641 18.3258 19.6863 18.4802 19.2888 18.767C18.8913 19.0538 18.5942 19.4585 18.4397 19.9237L16.8458 24.71C16.7313 25.0541 16.5381 25.3667 16.2817 25.6231C16.0253 25.8795 15.7127 26.0727 15.3686 26.1872L10.5823 27.781C10.1171 27.9356 9.71244 28.2327 9.42562 28.6302C9.1388 29.0277 8.98445 29.5055 8.98445 29.9957C8.98445 30.4858 9.1388 30.9636 9.42562 31.3611C9.71244 31.7586 10.1171 32.0557 10.5823 32.2103L15.3686 33.8065C15.7124 33.9208 16.0249 34.1135 16.2813 34.3695C16.5377 34.6255 16.731 34.9377 16.8458 35.2813L18.4397 40.0676C18.5942 40.5328 18.8913 40.9375 19.2888 41.2243C19.6863 41.5111 20.1641 41.6655 20.6543 41.6655C21.1445 41.6655 21.6222 41.5111 22.0197 41.2243C22.4172 40.9375 22.7143 40.5328 22.8689 40.0676L24.4628 35.2813C24.5773 34.9373 24.7704 34.6246 25.0268 34.3682C25.2832 34.1118 25.5959 33.9187 25.9399 33.8041L30.7262 32.2103C31.1914 32.0557 31.5961 31.7586 31.8829 31.3611C32.1697 30.9636 32.3241 30.4858 32.3241 29.9957C32.3241 29.5055 32.1697 29.0277 31.8829 28.6302C31.5961 28.2327 31.1914 27.9356 30.7262 27.781L25.9399 26.1872C25.5959 26.0727 25.2832 25.8795 25.0268 25.6231C24.7704 25.3667 24.5773 25.0541 24.4628 24.71L22.8689 19.9237ZM39.2043 38.5927C39.0497 38.1276 38.7526 37.7228 38.3551 37.436C37.9576 37.1492 37.4799 36.9949 36.9897 36.9949C36.4995 36.9949 36.0217 37.1492 35.6242 37.436C35.2267 37.7228 34.9296 38.1276 34.7751 38.5927L34.3457 39.8786C34.2314 40.2224 34.0386 40.5349 33.7826 40.7913C33.5266 41.0477 33.2145 41.2409 32.8708 41.3558L31.585 41.7828C31.1198 41.9374 30.7151 42.2345 30.4283 42.632C30.1415 43.0295 29.9871 43.5072 29.9871 43.9974C29.9871 44.4876 30.1415 44.9654 30.4283 45.3629C30.7151 45.7604 31.1198 46.0575 31.585 46.212L32.8708 46.6391C33.2149 46.7536 33.5275 46.9467 33.7839 47.2032C34.0404 47.4596 34.2335 47.7722 34.348 48.1163L34.7751 49.4021C34.9296 49.8673 35.2267 50.272 35.6242 50.5588C36.0217 50.8456 36.4995 51 36.9897 51C37.4799 51 37.9576 50.8456 38.3551 50.5588C38.7526 50.272 39.0497 49.8673 39.2043 49.4021L39.6337 48.1163C39.748 47.7725 39.9407 47.46 40.1967 47.2036C40.4527 46.9472 40.7649 46.7539 41.1085 46.6391L42.3944 46.212C42.8595 46.0575 43.2643 45.7604 43.5511 45.3629C43.8379 44.9654 43.9923 44.4876 43.9923 43.9974C43.9923 43.5072 43.8379 43.0295 43.5511 42.632C43.2643 42.2345 42.8595 41.9374 42.3944 41.7828L41.1085 41.3534C40.7647 41.2391 40.4522 41.0464 40.1958 40.7904C39.9394 40.5344 39.7462 40.2222 39.6313 39.8786L39.2043 38.5927Z"/>
</mask>
<path d="M43.9439 10.8692C43.8368 10.3417 43.5506 9.86743 43.1338 9.52676C42.717 9.1861 42.1952 9 41.6569 9C41.1186 9 40.5969 9.1861 40.1801 9.52676C39.7633 9.86743 39.4771 10.3417 39.37 10.8692L38.8099 13.6509C38.7198 14.1028 38.498 14.5179 38.1725 14.8439C37.8469 15.1699 37.4321 15.3922 36.9803 15.4828L34.1987 16.0382C33.6686 16.1431 33.1913 16.4286 32.8483 16.8461C32.5053 17.2636 32.3178 17.7872 32.3178 18.3275C32.3178 18.8679 32.5053 19.3915 32.8483 19.809C33.1913 20.2264 33.6686 20.512 34.1987 20.6168L36.9803 21.1722C37.4325 21.2624 37.8478 21.4846 38.1738 21.8106C38.4999 22.1366 38.722 22.5519 38.8122 23.0041L39.3676 25.7858C39.4725 26.3159 39.758 26.7931 40.1755 27.1362C40.593 27.4792 41.1166 27.6667 41.6569 27.6667C42.1973 27.6667 42.7209 27.4792 43.1384 27.1362C43.5559 26.7931 43.8414 26.3159 43.9462 25.7858L44.5016 23.0041C44.5918 22.5519 44.814 22.1366 45.14 21.8106C45.466 21.4846 45.8814 21.2624 46.3335 21.1722L49.1152 20.6168C49.6453 20.512 50.1225 20.2264 50.4656 19.809C50.8086 19.3915 50.9961 18.8679 50.9961 18.3275C50.9961 17.7872 50.8086 17.2636 50.4656 16.8461C50.1225 16.4286 49.6453 16.1431 49.1152 16.0382L46.3335 15.4828C45.8814 15.3926 45.466 15.1705 45.14 14.8444C44.814 14.5184 44.5918 14.1031 44.5016 13.6509L43.9439 10.8692ZM22.8689 19.9237C22.7143 19.4585 22.4172 19.0538 22.0197 18.767C21.6222 18.4802 21.1445 18.3258 20.6543 18.3258C20.1641 18.3258 19.6863 18.4802 19.2888 18.767C18.8913 19.0538 18.5942 19.4585 18.4397 19.9237L16.8458 24.71C16.7313 25.0541 16.5381 25.3667 16.2817 25.6231C16.0253 25.8795 15.7127 26.0727 15.3686 26.1872L10.5823 27.781C10.1171 27.9356 9.71244 28.2327 9.42562 28.6302C9.1388 29.0277 8.98445 29.5055 8.98445 29.9957C8.98445 30.4858 9.1388 30.9636 9.42562 31.3611C9.71244 31.7586 10.1171 32.0557 10.5823 32.2103L15.3686 33.8065C15.7124 33.9208 16.0249 34.1135 16.2813 34.3695C16.5377 34.6255 16.731 34.9377 16.8458 35.2813L18.4397 40.0676C18.5942 40.5328 18.8913 40.9375 19.2888 41.2243C19.6863 41.5111 20.1641 41.6655 20.6543 41.6655C21.1445 41.6655 21.6222 41.5111 22.0197 41.2243C22.4172 40.9375 22.7143 40.5328 22.8689 40.0676L24.4628 35.2813C24.5773 34.9373 24.7704 34.6246 25.0268 34.3682C25.2832 34.1118 25.5959 33.9187 25.9399 33.8041L30.7262 32.2103C31.1914 32.0557 31.5961 31.7586 31.8829 31.3611C32.1697 30.9636 32.3241 30.4858 32.3241 29.9957C32.3241 29.5055 32.1697 29.0277 31.8829 28.6302C31.5961 28.2327 31.1914 27.9356 30.7262 27.781L25.9399 26.1872C25.5959 26.0727 25.2832 25.8795 25.0268 25.6231C24.7704 25.3667 24.5773 25.0541 24.4628 24.71L22.8689 19.9237ZM39.2043 38.5927C39.0497 38.1276 38.7526 37.7228 38.3551 37.436C37.9576 37.1492 37.4799 36.9949 36.9897 36.9949C36.4995 36.9949 36.0217 37.1492 35.6242 37.436C35.2267 37.7228 34.9296 38.1276 34.7751 38.5927L34.3457 39.8786C34.2314 40.2224 34.0386 40.5349 33.7826 40.7913C33.5266 41.0477 33.2145 41.2409 32.8708 41.3558L31.585 41.7828C31.1198 41.9374 30.7151 42.2345 30.4283 42.632C30.1415 43.0295 29.9871 43.5072 29.9871 43.9974C29.9871 44.4876 30.1415 44.9654 30.4283 45.3629C30.7151 45.7604 31.1198 46.0575 31.585 46.212L32.8708 46.6391C33.2149 46.7536 33.5275 46.9467 33.7839 47.2032C34.0404 47.4596 34.2335 47.7722 34.348 48.1163L34.7751 49.4021C34.9296 49.8673 35.2267 50.272 35.6242 50.5588C36.0217 50.8456 36.4995 51 36.9897 51C37.4799 51 37.9576 50.8456 38.3551 50.5588C38.7526 50.272 39.0497 49.8673 39.2043 49.4021L39.6337 48.1163C39.748 47.7725 39.9407 47.46 40.1967 47.2036C40.4527 46.9472 40.7649 46.7539 41.1085 46.6391L42.3944 46.212C42.8595 46.0575 43.2643 45.7604 43.5511 45.3629C43.8379 44.9654 43.9923 44.4876 43.9923 43.9974C43.9923 43.5072 43.8379 43.0295 43.5511 42.632C43.2643 42.2345 42.8595 41.9374 42.3944 41.7828L41.1085 41.3534C40.7647 41.2391 40.4522 41.0464 40.1958 40.7904C39.9394 40.5344 39.7462 40.2222 39.6313 39.8786L39.2043 38.5927Z" fill="url(#paint1_linear_9167_58)"/>
<path d="M43.9439 10.8692L49.1347 9.82846L49.1321 9.81573L43.9439 10.8692ZM41.6569 9V3.70588V9ZM39.37 10.8692L34.1817 9.81572L34.18 9.82428L39.37 10.8692ZM38.8099 13.6509L33.6199 12.606L33.6179 12.6161L38.8099 13.6509ZM36.9803 15.4828L38.0169 20.6745L38.0217 20.6735L36.9803 15.4828ZM34.1987 16.0382L35.2258 21.2318L35.2352 21.2299L34.1987 16.0382ZM34.1987 20.6168L35.2352 15.4252L35.2258 15.4233L34.1987 20.6168ZM36.9803 21.1722L35.9438 26.3639L35.9444 26.364L36.9803 21.1722ZM38.8122 23.0041L33.6205 24.04L33.6206 24.0407L38.8122 23.0041ZM39.3676 25.7858L44.5612 24.7587L44.5593 24.7492L39.3676 25.7858ZM43.9462 25.7858L38.7546 24.7492L38.7527 24.7587L43.9462 25.7858ZM44.5016 23.0041L49.6933 24.0407L49.6934 24.04L44.5016 23.0041ZM46.3335 21.1722L47.3694 26.364L47.3701 26.3639L46.3335 21.1722ZM49.1152 20.6168L48.0881 15.4233L48.0786 15.4252L49.1152 20.6168ZM49.1152 16.0382L48.0786 21.2299L48.0881 21.2318L49.1152 16.0382ZM46.3335 15.4828L47.3701 10.2912L47.3694 10.291L46.3335 15.4828ZM44.5016 13.6509L49.6934 12.615L49.6924 12.6101L44.5016 13.6509ZM22.8689 19.9237L17.8448 21.5928L17.846 21.5964L22.8689 19.9237ZM18.4397 19.9237L23.4626 21.5964L23.4638 21.5928L18.4397 19.9237ZM16.8458 24.71L11.8229 23.0373L11.8226 23.038L16.8458 24.71ZM15.3686 26.1872L13.6966 21.164L13.6959 21.1642L15.3686 26.1872ZM10.5823 27.781L12.2514 32.8052L12.255 32.804L10.5823 27.781ZM8.98445 29.9957H14.2786H8.98445ZM10.5823 32.2103L12.2572 27.1881L12.2514 27.1862L10.5823 32.2103ZM15.3686 33.8065L13.6937 38.8287L13.6986 38.8303L15.3686 33.8065ZM16.8458 35.2813L21.8687 33.6086L21.867 33.6034L16.8458 35.2813ZM18.4397 40.0676L23.4638 38.3985L23.4626 38.3949L18.4397 40.0676ZM22.8689 40.0676L17.846 38.3949L17.8448 38.3985L22.8689 40.0676ZM24.4628 35.2813L29.4857 36.954L29.4859 36.9533L24.4628 35.2813ZM25.9399 33.8041L27.6119 38.8273L27.6126 38.8271L25.9399 33.8041ZM30.7262 32.2103L29.0571 27.1862L29.0535 27.1873L30.7262 32.2103ZM30.7262 27.781L29.0535 32.804L29.0571 32.8052L30.7262 27.781ZM25.9399 26.1872L27.6126 21.1642L27.6119 21.164L25.9399 26.1872ZM24.4628 24.71L29.4859 23.038L29.4857 23.0373L24.4628 24.71ZM39.2043 38.5927L44.2285 36.9241L44.2284 36.9236L39.2043 38.5927ZM34.7751 38.5927L39.7966 40.2696L39.7992 40.2619L34.7751 38.5927ZM34.3457 39.8786L29.3241 38.2017L29.3218 38.2086L34.3457 39.8786ZM32.8708 41.3558L34.5395 46.38L34.5488 46.3769L32.8708 41.3558ZM31.585 41.7828L29.9163 36.7585L29.9159 36.7587L31.585 41.7828ZM31.585 46.212L29.9159 51.2362L29.9163 51.2363L31.585 46.212ZM32.8708 46.6391L34.5428 41.6159L34.5395 41.6148L32.8708 46.6391ZM34.348 48.1163L39.3723 46.4476L39.3712 46.4443L34.348 48.1163ZM34.7751 49.4021L29.7508 51.0708L29.7509 51.0712L34.7751 49.4021ZM39.2043 49.4021L34.1828 47.7252L34.1802 47.733L39.2043 49.4021ZM39.6337 48.1163L44.6552 49.7932L44.6575 49.7863L39.6337 48.1163ZM41.1085 46.6391L39.4399 41.6148L39.4306 41.6179L41.1085 46.6391ZM42.3944 46.212L44.063 51.2363L44.0635 51.2362L42.3944 46.212ZM42.3944 41.7828L40.7175 46.8043L40.7252 46.8069L42.3944 41.7828ZM41.1085 41.3534L42.7854 36.3319L42.7785 36.3296L41.1085 41.3534ZM39.6313 39.8786L34.6071 41.5472L34.6102 41.5565L39.6313 39.8786ZM49.1321 9.81573C48.782 8.09141 47.8465 6.54117 46.4842 5.42767L39.7834 13.6259C39.2546 13.1937 38.8915 12.592 38.7556 11.9228L49.1321 9.81573ZM46.4842 5.42767C45.1218 4.31417 43.4164 3.70588 41.6569 3.70588V14.2941C40.974 14.2941 40.3121 14.058 39.7834 13.6259L46.4842 5.42767ZM41.6569 3.70588C39.8974 3.70588 38.192 4.31416 36.8297 5.42767L43.5305 13.6259C43.0017 14.058 42.3398 14.2941 41.6569 14.2941V3.70588ZM36.8297 5.42767C35.4674 6.54118 34.5319 8.09142 34.1817 9.81573L44.5582 11.9228C44.4223 12.592 44.0592 13.1937 43.5305 13.6259L36.8297 5.42767ZM34.18 9.82428L33.6199 12.606L43.9999 14.6959L44.5599 11.9142L34.18 9.82428ZM33.6179 12.6161C33.7321 12.0429 34.0135 11.5163 34.4266 11.1027L41.9184 18.585C42.9826 17.5194 43.7075 16.1627 44.0019 14.6857L33.6179 12.6161ZM34.4266 11.1027C34.8396 10.6892 35.3658 10.4071 35.9389 10.2921L38.0217 20.6735C39.4983 20.3773 40.8541 19.6506 41.9184 18.585L34.4266 11.1027ZM35.9437 10.2912L33.1621 10.8466L35.2352 21.2299L38.0169 20.6745L35.9437 10.2912ZM33.1716 10.8447C31.439 11.1873 29.8789 12.1206 28.7577 13.4853L36.9388 20.2069C36.5037 20.7365 35.8982 21.0988 35.2258 21.2318L33.1716 10.8447ZM28.7577 13.4853C27.6365 14.8499 27.0237 16.5614 27.0237 18.3275H37.6119C37.6119 19.013 37.374 19.6772 36.9388 20.2069L28.7577 13.4853ZM27.0237 18.3275C27.0237 20.0937 27.6365 21.8051 28.7577 23.1698L36.9388 16.4481C37.374 16.9778 37.6119 17.642 37.6119 18.3275H27.0237ZM28.7577 23.1698C29.8789 24.5344 31.439 25.4677 33.1716 25.8103L35.2258 15.4233C35.8982 15.5563 36.5037 15.9185 36.9388 16.4481L28.7577 23.1698ZM33.1621 25.8084L35.9438 26.3639L38.0169 15.9806L35.2352 15.4252L33.1621 25.8084ZM35.9444 26.364C35.3708 26.2495 34.8439 25.9677 34.4303 25.5541L41.9173 18.0671C40.8517 17.0014 39.4942 16.2753 38.0162 15.9804L35.9444 26.364ZM34.4303 25.5541C34.0167 25.1405 33.7349 24.6136 33.6205 24.04L44.004 21.9682C43.7091 20.4902 42.983 19.1328 41.9173 18.0671L34.4303 25.5541ZM33.6206 24.0407L34.176 26.8224L44.5593 24.7492L44.0039 21.9675L33.6206 24.0407ZM34.1741 26.8129C34.5168 28.5455 35.45 30.1055 36.8147 31.2267L43.5363 23.0456C44.066 23.4808 44.4282 24.0862 44.5612 24.7587L34.1741 26.8129ZM36.8147 31.2267C38.1793 32.3479 39.8908 32.9608 41.6569 32.9608V22.3726C42.3424 22.3726 43.0066 22.6104 43.5363 23.0456L36.8147 31.2267ZM41.6569 32.9608C43.4231 32.9608 45.1345 32.3479 46.4992 31.2267L39.7776 23.0456C40.3072 22.6104 40.9715 22.3726 41.6569 22.3726V32.9608ZM46.4992 31.2267C47.8638 30.1055 48.7971 28.5455 49.1397 26.8129L38.7527 24.7587C38.8857 24.0862 39.2479 23.4808 39.7776 23.0456L46.4992 31.2267ZM49.1379 26.8224L49.6933 24.0407L39.31 21.9675L38.7546 24.7492L49.1379 26.8224ZM49.6934 24.04C49.579 24.6136 49.2971 25.1405 48.8835 25.5541L41.3965 18.0671C40.3308 19.1328 39.6047 20.4903 39.3098 21.9682L49.6934 24.04ZM48.8835 25.5541C48.4699 25.9677 47.9431 26.2495 47.3694 26.364L45.2976 15.9804C43.8197 16.2753 42.4622 17.0014 41.3965 18.0671L48.8835 25.5541ZM47.3701 26.3639L50.1518 25.8084L48.0786 15.4252L45.2969 15.9806L47.3701 26.3639ZM50.1423 25.8103C51.8749 25.4677 53.4349 24.5344 54.5561 23.1698L46.375 16.4481C46.8102 15.9185 47.4157 15.5563 48.0881 15.4233L50.1423 25.8103ZM54.5561 23.1698C55.6773 21.8051 56.2902 20.0937 56.2902 18.3275H45.702C45.702 17.642 45.9399 16.9778 46.375 16.4481L54.5561 23.1698ZM56.2902 18.3275C56.2902 16.5613 55.6773 14.8499 54.5561 13.4853L46.375 20.2069C45.9399 19.6773 45.702 19.013 45.702 18.3275H56.2902ZM54.5561 13.4853C53.4349 12.1206 51.8749 11.1873 50.1423 10.8447L48.0881 21.2318C47.4157 21.0988 46.8102 20.7365 46.375 20.2069L54.5561 13.4853ZM50.1518 10.8466L47.3701 10.2912L45.2969 20.6745L48.0786 21.2299L50.1518 10.8466ZM47.3694 10.291C47.943 10.4055 48.4699 10.6873 48.8835 11.1009L41.3965 18.5879C42.4622 19.6536 43.8197 20.3797 45.2976 20.6746L47.3694 10.291ZM48.8835 11.1009C49.2971 11.5145 49.579 12.0414 49.6934 12.615L39.3098 14.6868C39.6047 16.1648 40.3308 17.5223 41.3965 18.5879L48.8835 11.1009ZM49.6924 12.6101L49.1347 9.82846L38.7531 11.91L39.3108 14.6917L49.6924 12.6101ZM27.893 18.2546C27.3879 16.7341 26.4167 15.4112 25.1174 14.4737L18.922 23.0603C18.4177 22.6964 18.0408 22.183 17.8448 21.5928L27.893 18.2546ZM25.1174 14.4737C23.8181 13.5363 22.2565 13.0317 20.6543 13.0317V23.6199C20.0324 23.6199 19.4263 23.4241 18.922 23.0603L25.1174 14.4737ZM20.6543 13.0317C19.052 13.0317 17.4905 13.5363 16.1912 14.4737L22.3865 23.0603C21.8822 23.4241 21.2761 23.6199 20.6543 23.6199V13.0317ZM16.1912 14.4737C14.8918 15.4112 13.9207 16.7341 13.4155 18.2546L23.4638 21.5928C23.2677 22.183 22.8908 22.6964 22.3865 23.0603L16.1912 14.4737ZM13.4167 18.251L11.8229 23.0373L21.8687 26.3827L23.4626 21.5964L13.4167 18.251ZM11.8226 23.038C11.9679 22.6015 12.2129 22.2049 12.5382 21.8796L20.0252 29.3666C20.8633 28.5285 21.4946 27.5066 21.869 26.382L11.8226 23.038ZM12.5382 21.8796C12.8635 21.5543 13.2601 21.3093 13.6966 21.164L17.0406 31.2103C18.1652 30.836 19.1871 30.2047 20.0252 29.3666L12.5382 21.8796ZM13.6959 21.1642L8.90966 22.7581L12.255 32.804L17.0413 31.2101L13.6959 21.1642ZM8.91323 22.7569C7.3927 23.2621 6.06985 24.2332 5.13236 25.5325L13.7189 31.7279C13.355 32.2322 12.8416 32.6091 12.2514 32.8052L8.91323 22.7569ZM5.13236 25.5325C4.19487 26.8319 3.69033 28.3934 3.69033 29.9957H14.2786C14.2786 30.6175 14.0827 31.2236 13.7189 31.7279L5.13236 25.5325ZM3.69033 29.9957C3.69033 31.5979 4.19487 33.1594 5.13236 34.4588L13.7189 28.2634C14.0827 28.7677 14.2786 29.3738 14.2786 29.9957H3.69033ZM5.13236 34.4588C6.06986 35.7581 7.39271 36.7292 8.91323 37.2344L12.2514 27.1862C12.8416 27.3822 13.355 27.7591 13.7189 28.2634L5.13236 34.4588ZM8.90745 37.2325L13.6937 38.8287L17.0435 28.7843L12.2572 27.1881L8.90745 37.2325ZM13.6986 38.8303C13.2624 38.6853 12.866 38.4407 12.5408 38.116L20.0218 30.6231C19.1838 29.7863 18.1624 29.1562 17.0386 28.7827L13.6986 38.8303ZM12.5408 38.116C12.2155 37.7912 11.9703 37.3952 11.8246 36.9593L21.867 33.6034C21.4916 32.4802 20.8599 31.4598 20.0218 30.6231L12.5408 38.116ZM11.8229 36.954L13.4167 41.7403L23.4626 38.3949L21.8687 33.6086L11.8229 36.954ZM13.4155 41.7367C13.9207 43.2572 14.8918 44.5801 16.1912 45.5176L22.3865 36.9311C22.8908 37.2949 23.2677 37.8083 23.4638 38.3985L13.4155 41.7367ZM16.1912 45.5176C17.4905 46.4551 19.052 46.9596 20.6543 46.9596V36.3714C21.2761 36.3714 21.8822 36.5672 22.3865 36.9311L16.1912 45.5176ZM20.6543 46.9596C22.2565 46.9596 23.8181 46.4551 25.1174 45.5176L18.922 36.9311C19.4263 36.5672 20.0324 36.3714 20.6543 36.3714V46.9596ZM25.1174 45.5176C26.4167 44.5801 27.3879 43.2572 27.893 41.7367L17.8448 38.3985C18.0408 37.8083 18.4177 37.2949 18.922 36.9311L25.1174 45.5176ZM27.8918 41.7403L29.4857 36.954L19.4398 33.6086L17.846 38.3949L27.8918 41.7403ZM29.4859 36.9533C29.3406 37.3898 29.0956 37.7864 28.7703 38.1117L21.2833 30.6247C20.4452 31.4628 19.8139 32.4847 19.4396 33.6093L29.4859 36.9533ZM28.7703 38.1117C28.445 38.437 28.0484 38.682 27.6119 38.8273L24.268 28.781C23.1433 29.1553 22.1214 29.7866 21.2833 30.6247L28.7703 38.1117ZM27.6126 38.8271L32.3989 37.2332L29.0535 27.1873L24.2673 28.7812L27.6126 38.8271ZM32.3953 37.2344C33.9158 36.7292 35.2387 35.7581 36.1762 34.4588L27.5897 28.2634C27.9535 27.7591 28.467 27.3822 29.0571 27.1862L32.3953 37.2344ZM36.1762 34.4588C37.1137 33.1595 37.6182 31.5979 37.6182 29.9957H27.03C27.03 29.3738 27.2258 28.7677 27.5897 28.2634L36.1762 34.4588ZM37.6182 29.9957C37.6182 28.3934 37.1137 26.8319 36.1762 25.5325L27.5897 31.7279C27.2258 31.2236 27.03 30.6175 27.03 29.9957H37.6182ZM36.1762 25.5325C35.2387 24.2332 33.9159 23.2621 32.3953 22.7569L29.0571 32.8052C28.4669 32.6091 27.9535 32.2322 27.5897 31.7279L36.1762 25.5325ZM32.3989 22.7581L27.6126 21.1642L24.2673 31.2101L29.0535 32.804L32.3989 22.7581ZM27.6119 21.164C28.0484 21.3093 28.445 21.5543 28.7703 21.8796L21.2833 29.3666C22.1214 30.2047 23.1433 30.836 24.268 31.2103L27.6119 21.164ZM28.7703 21.8796C29.0956 22.2049 29.3406 22.6015 29.4859 23.038L19.4396 26.382C19.8139 27.5066 20.4452 28.5285 21.2833 29.3666L28.7703 21.8796ZM29.4857 23.0373L27.8918 18.251L17.846 21.5964L19.4398 26.3827L29.4857 23.0373ZM44.2284 36.9236C43.7233 35.4031 42.7521 34.0803 41.4528 33.1428L35.2574 41.7293C34.7531 41.3654 34.3762 40.852 34.1802 40.2619L44.2284 36.9236ZM41.4528 33.1428C40.1535 32.2053 38.5919 31.7007 36.9897 31.7007V42.289C36.3678 42.289 35.7617 42.0932 35.2574 41.7293L41.4528 33.1428ZM36.9897 31.7007C35.3875 31.7007 33.8259 32.2053 32.5265 33.1428L38.7219 41.7293C38.2176 42.0932 37.6115 42.289 36.9897 42.289V31.7007ZM32.5265 33.1428C31.2272 34.0803 30.2561 35.4031 29.7509 36.9236L39.7992 40.2619C39.6031 40.852 39.2262 41.3654 38.7219 41.7293L32.5265 33.1428ZM29.7535 36.9159L29.3241 38.2017L39.3672 41.5555L39.7966 40.2696L29.7535 36.9159ZM29.3218 38.2086C29.4668 37.7724 29.7114 37.376 30.0362 37.0507L37.5291 44.5318C38.3658 43.6937 38.9959 42.6723 39.3695 41.5486L29.3218 38.2086ZM30.0362 37.0507C30.3609 36.7255 30.7569 36.4803 31.1929 36.3346L34.5488 46.3769C35.672 46.0016 36.6924 45.3699 37.5291 44.5318L30.0362 37.0507ZM31.2022 36.3315L29.9163 36.7585L33.2537 46.8071L34.5395 46.38L31.2022 36.3315ZM29.9159 36.7587C28.3954 37.2638 27.0725 38.235 26.135 39.5343L34.7215 45.7297C34.3577 46.234 33.8442 46.6109 33.2541 46.8069L29.9159 36.7587ZM26.135 39.5343C25.1975 40.8336 24.693 42.3952 24.693 43.9974H35.2812C35.2812 44.6193 35.0854 45.2253 34.7215 45.7297L26.135 39.5343ZM24.693 43.9974C24.693 45.5997 25.1975 47.1612 26.135 48.4605L34.7215 42.2652C35.0854 42.7695 35.2812 43.3756 35.2812 43.9974H24.693ZM26.135 48.4605C27.0725 49.7599 28.3954 50.731 29.9159 51.2362L33.2541 41.1879C33.8442 41.384 34.3577 41.7609 34.7215 42.2652L26.135 48.4605ZM29.9163 51.2363L31.2022 51.6634L34.5395 41.6148L33.2537 41.1878L29.9163 51.2363ZM31.1988 51.6623C30.7623 51.517 30.3657 51.272 30.0404 50.9467L37.5274 43.4596C36.6893 42.6215 35.6674 41.9903 34.5428 41.6159L31.1988 51.6623ZM30.0404 50.9467C29.7151 50.6214 29.4701 50.2247 29.3248 49.7883L39.3712 46.4443C38.9968 45.3197 38.3656 44.2978 37.5274 43.4596L30.0404 50.9467ZM29.3237 49.785L29.7508 51.0708L39.7993 47.7334L39.3723 46.4476L29.3237 49.785ZM29.7509 51.0712C30.2561 52.5917 31.2272 53.9146 32.5265 54.8521L38.7219 46.2656C39.2262 46.6294 39.6031 47.1429 39.7992 47.733L29.7509 51.0712ZM32.5265 54.8521C33.8259 55.7896 35.3874 56.2941 36.9897 56.2941V45.7059C37.6115 45.7059 38.2176 45.9017 38.7219 46.2656L32.5265 54.8521ZM36.9897 56.2941C38.5919 56.2941 40.1535 55.7896 41.4528 54.8521L35.2574 46.2656C35.7617 45.9017 36.3678 45.7059 36.9897 45.7059V56.2941ZM41.4528 54.8521C42.7521 53.9146 43.7233 52.5917 44.2284 51.0712L34.1802 47.733C34.3762 47.1429 34.7531 46.6294 35.2574 46.2656L41.4528 54.8521ZM44.2258 51.079L44.6552 49.7932L34.6121 46.4394L34.1828 47.7252L44.2258 51.079ZM44.6575 49.7863C44.5125 50.2225 44.2679 50.6189 43.9432 50.9441L36.4503 43.463C35.6135 44.3011 34.9834 45.3225 34.6099 46.4463L44.6575 49.7863ZM43.9432 50.9441C43.6185 51.2694 43.2224 51.5146 42.7865 51.6603L39.4306 41.6179C38.3074 41.9933 37.287 42.625 36.4503 43.463L43.9432 50.9441ZM42.7772 51.6634L44.063 51.2363L40.7257 41.1878L39.4399 41.6148L42.7772 51.6634ZM44.0635 51.2362C45.584 50.731 46.9068 49.7599 47.8443 48.4605L39.2578 42.2652C39.6217 41.7609 40.1351 41.384 40.7252 41.1879L44.0635 51.2362ZM47.8443 48.4605C48.7818 47.1612 49.2864 45.5997 49.2864 43.9974H38.6981C38.6981 43.3755 38.894 42.7695 39.2578 42.2652L47.8443 48.4605ZM49.2864 43.9974C49.2864 42.3952 48.7818 40.8336 47.8443 39.5343L39.2578 45.7297C38.894 45.2254 38.6981 44.6193 38.6981 43.9974H49.2864ZM47.8443 39.5343C46.9068 38.235 45.584 37.2638 44.0635 36.7587L40.7252 46.8069C40.1351 46.6109 39.6217 46.234 39.2578 45.7297L47.8443 39.5343ZM44.0712 36.7613L42.7854 36.3319L39.4316 46.375L40.7175 46.8043L44.0712 36.7613ZM42.7785 36.3296C43.2147 36.4746 43.6111 36.7192 43.9364 37.0439L36.4553 44.5368C37.2933 45.3736 38.3147 46.0037 39.4385 46.3772L42.7785 36.3296ZM43.9364 37.0439C44.2616 37.3687 44.5068 37.7647 44.6525 38.2006L34.6102 41.5565C34.9855 42.6797 35.6172 43.7001 36.4553 44.5368L43.9364 37.0439ZM44.6556 38.2099L44.2285 36.9241L34.18 40.2614L34.6071 41.5472L44.6556 38.2099Z" fill="#F6F6F6" mask="url(#path-3-outside-2_9167_58)"/>
<defs>
<linearGradient id="paint0_linear_9167_58" x1="30.0019" y1="9" x2="30.0019" y2="51" gradientUnits="userSpaceOnUse">
<stop stop-color="#4B3CE4"/>
<stop offset="1" stop-color="#29217E"/>
</linearGradient>
<linearGradient id="paint1_linear_9167_58" x1="30.0019" y1="9" x2="30.0019" y2="51" gradientUnits="userSpaceOnUse">
<stop stop-color="#29217E"/>
<stop offset="1" stop-color="#4B3CE4"/>
</linearGradient>
</defs>
</svg>
