<svg width="53" height="40" viewBox="0 0 53 40" fill="none" xmlns="http://www.w3.org/2000/svg">
<path d="M36.0543 2.76674H35.0281L34.3508 3.53771L27.9323 10.8441L22.4762 3.66249L21.7956 2.76674H20.6707H10.3398H5.73946L8.54155 6.41528L19.7502 21.0098L9.2799 32.9234L5.97168 36.6877H10.9831H15.995H17.0209L17.6981 35.9171L24.9067 27.7155L31.1166 35.8013L31.7973 36.6877H32.9149H42.991H47.5612L44.7965 33.0486L33.05 17.5867L42.7646 6.53086L46.0721 2.76674H41.0613H36.0543Z" stroke="url(#paint0_linear_8682_18870)" stroke-width="4.53488"/>
<path d="M36.0543 3.67371H35.4385L35.0322 4.1363L27.8813 12.2763L21.754 4.21117L21.3456 3.67371H20.6707H10.3398H7.57961L9.26087 5.86284L20.9235 21.0485L9.96117 33.5221L7.97624 35.7807H10.9831H15.995H16.6105L17.0169 35.3184L24.9539 26.2879L31.8359 35.2489L32.2443 35.7807H32.9149H42.991H45.7331L44.0743 33.5972L31.8793 17.545L42.0833 5.93219L44.0678 3.67371H41.0613H36.0543Z" fill="url(#paint1_linear_8682_18870)" stroke="#F6F6F6" stroke-width="2.72093"/>
<defs>
<linearGradient id="paint0_linear_8682_18870" x1="26.6654" y1="5.03418" x2="26.6654" y2="34.4202" gradientUnits="userSpaceOnUse">
<stop stop-color="#4B3CE4"/>
<stop offset="1" stop-color="#29217E"/>
</linearGradient>
<linearGradient id="paint1_linear_8682_18870" x1="26.6654" y1="5.03418" x2="26.6654" y2="34.4202" gradientUnits="userSpaceOnUse">
<stop stop-color="#29217E"/>
<stop offset="1" stop-color="#4B3CE4"/>
</linearGradient>
</defs>
</svg>
