<svg width="147" height="33" viewBox="0 0 147 33" fill="none" xmlns="http://www.w3.org/2000/svg">
<path d="M25.388 29.5675C25.388 29.7512 25.3828 29.935 25.3699 30.1187C25.2793 31.3505 24.6452 31.9561 23.4289 31.969C21.237 31.9923 19.0684 31.9897 16.9851 31.969C16.2786 31.9613 15.7818 31.8008 15.4712 31.4773C15.1581 31.1513 15.0132 30.644 15.0287 29.9246C15.0882 27.2927 14.4619 25.3622 13.0541 23.856C12.0216 22.7536 10.8389 22.06 9.43627 21.734C8.65991 21.5528 8.25361 21.3743 8 21.0922V11.1858C8.21479 11.1806 8.43994 11.1806 8.67285 11.1884C8.70908 11.1935 8.7479 11.1961 8.7893 11.1987H8.81777C10.0185 11.2634 11.2219 11.4601 12.3865 11.781L12.3994 11.7862H12.402C19.5652 13.7685 24.8575 20.2589 25.2767 27.5696C25.2896 27.7844 25.3052 27.9966 25.3207 28.2114C25.3543 28.6566 25.388 29.112 25.388 29.5675Z" fill="#4B3CE4"/>
<path d="M25.3724 4.06652V8.28217C25.3724 9.9643 24.0035 11.3359 22.3187 11.3359H18.1031C16.421 11.3359 15.0494 9.96688 15.0494 8.28217V4.06652C15.0494 2.38181 16.4184 1.01282 18.1031 1.01282H22.3187C24.0035 1.01282 25.3724 2.38181 25.3724 4.06652Z" fill="#4B3CE4"/>
<path d="M43.9974 11.9052V21.8116C43.7826 21.8168 43.5575 21.8168 43.3246 21.809C43.278 21.8038 43.2314 21.8013 43.1796 21.7987C41.9789 21.7366 40.7755 21.5399 39.611 21.219L39.598 21.2138C32.4348 19.2315 27.1425 12.7411 26.7233 5.43033C26.7104 5.21553 26.6948 5.00333 26.6793 4.78853C26.6327 4.16227 26.5836 3.51789 26.6301 2.88127C26.7207 1.64685 27.3548 1.04128 28.5711 1.02834C30.851 1.00764 32.9601 1.00764 35.0149 1.02834C35.7214 1.03611 36.2182 1.19656 36.5288 1.52004C36.8445 1.84611 36.9868 2.35334 36.9713 3.07277C36.9118 5.70723 37.5381 7.6352 38.9459 9.14135C39.9784 10.2438 41.1611 10.9373 42.5637 11.2634C43.3297 11.442 43.7464 11.6257 44 11.9052" fill="#4B3CE4"/>
<path d="M36.948 24.7178V28.9335C36.948 30.6156 35.579 31.9872 33.8943 31.9872H29.6787C27.9965 31.9872 26.625 30.6182 26.625 28.9335V24.7178C26.625 23.0331 27.994 21.6641 29.6787 21.6641H33.8943C35.579 21.6641 36.948 23.0331 36.948 24.7178Z" fill="#4B3CE4"/>
<path d="M59.06 14.918V23H56.9V10.4H59.06L65.342 18.428V10.4H67.502V23H65.342L59.06 14.918ZM68.5283 18.5C68.5283 16.928 68.9543 15.74 69.8063 14.936C70.6583 14.132 71.9603 13.73 73.7123 13.73C75.4763 13.73 76.7843 14.132 77.6363 14.936C78.5003 15.74 78.9323 16.928 78.9323 18.5C78.9323 20.072 78.5003 21.26 77.6363 22.064C76.7843 22.868 75.4763 23.27 73.7123 23.27C71.9603 23.27 70.6583 22.868 69.8063 22.064C68.9543 21.26 68.5283 20.072 68.5283 18.5ZM70.6883 18.5C70.6883 20.384 71.6963 21.326 73.7123 21.326C75.7523 21.326 76.7723 20.384 76.7723 18.5C76.7723 16.604 75.7523 15.656 73.7123 15.656C72.6683 15.656 71.9003 15.896 71.4083 16.376C70.9283 16.856 70.6883 17.564 70.6883 18.5ZM79.1068 14H81.3928L84.1288 20.408L86.8468 14H89.1328L85.2628 23H82.9768L79.1068 14ZM89.6656 14H91.7356V23H89.6656V14ZM89.3596 11.264C89.3596 10.808 89.4616 10.472 89.6656 10.256C89.8816 10.028 90.2296 9.914 90.7096 9.914C91.1776 9.914 91.5196 10.028 91.7356 10.256C91.9516 10.472 92.0596 10.808 92.0596 11.264C92.0596 11.72 91.9516 12.062 91.7356 12.29C91.5196 12.506 91.1776 12.614 90.7096 12.614C90.2296 12.614 89.8816 12.506 89.6656 12.29C89.4616 12.062 89.3596 11.72 89.3596 11.264ZM93.5328 23V14H95.6028V15.188C95.9268 14.696 96.3468 14.33 96.8628 14.09C97.3908 13.85 98.0988 13.73 98.9868 13.73C99.6708 13.73 100.265 13.808 100.769 13.964C101.285 14.12 101.705 14.372 102.029 14.72C102.365 15.056 102.617 15.494 102.785 16.034C102.953 16.562 103.037 17.21 103.037 17.978V23H100.967V18.158C100.967 17.774 100.931 17.432 100.859 17.132C100.787 16.82 100.655 16.556 100.463 16.34C100.271 16.124 100.007 15.956 99.6708 15.836C99.3468 15.716 98.9268 15.656 98.4108 15.656C96.5388 15.656 95.6028 16.598 95.6028 18.482V23H93.5328ZM109.232 13.73C109.976 13.73 110.624 13.832 111.176 14.036C111.74 14.228 112.214 14.504 112.598 14.864C112.982 15.212 113.27 15.62 113.462 16.088C113.654 16.556 113.75 17.06 113.75 17.6H111.86C111.86 17.024 111.644 16.556 111.212 16.196C110.78 15.836 110.108 15.656 109.196 15.656C108.788 15.656 108.416 15.704 108.08 15.8C107.744 15.896 107.456 16.058 107.216 16.286C106.976 16.502 106.79 16.79 106.658 17.15C106.526 17.51 106.46 17.948 106.46 18.464C106.46 19.004 106.532 19.46 106.676 19.832C106.82 20.192 107.018 20.486 107.27 20.714C107.522 20.93 107.816 21.086 108.152 21.182C108.5 21.278 108.866 21.326 109.25 21.326C110.198 21.326 110.882 21.146 111.302 20.786C111.722 20.426 111.932 19.964 111.932 19.4H113.822C113.822 19.94 113.732 20.444 113.552 20.912C113.372 21.38 113.096 21.794 112.724 22.154C112.352 22.502 111.878 22.778 111.302 22.982C110.738 23.174 110.06 23.27 109.268 23.27C107.624 23.27 106.382 22.868 105.542 22.064C104.714 21.26 104.3 20.072 104.3 18.5C104.3 16.916 104.684 15.728 105.452 14.936C106.232 14.132 107.492 13.73 109.232 13.73ZM124.624 19.022H116.938C116.974 19.934 117.268 20.576 117.82 20.948C118.372 21.32 119.104 21.506 120.016 21.506C120.4 21.506 120.748 21.464 121.06 21.38C121.384 21.296 121.66 21.182 121.888 21.038C122.128 20.894 122.308 20.726 122.428 20.534C122.56 20.342 122.626 20.138 122.626 19.922L124.516 19.94C124.516 20.936 124.132 21.74 123.364 22.352C122.596 22.964 121.474 23.27 119.998 23.27C118.21 23.27 116.884 22.868 116.02 22.064C115.156 21.248 114.724 20.054 114.724 18.482C114.724 16.946 115.144 15.77 115.984 14.954C116.824 14.138 118.048 13.73 119.656 13.73C120.544 13.73 121.3 13.832 121.924 14.036C122.56 14.24 123.076 14.546 123.472 14.954C123.868 15.362 124.156 15.878 124.336 16.502C124.528 17.114 124.624 17.834 124.624 18.662V19.022ZM122.536 17.672C122.524 17.252 122.44 16.904 122.284 16.628C122.14 16.34 121.948 16.112 121.708 15.944C121.468 15.776 121.186 15.656 120.862 15.584C120.538 15.512 120.196 15.476 119.836 15.476C119.464 15.476 119.11 15.524 118.774 15.62C118.45 15.704 118.162 15.836 117.91 16.016C117.658 16.196 117.454 16.424 117.298 16.7C117.142 16.976 117.046 17.3 117.01 17.672H122.536ZM126.07 26.6V14H128.14V15.26C128.428 14.744 128.83 14.36 129.346 14.108C129.874 13.856 130.57 13.73 131.434 13.73C132.046 13.73 132.604 13.832 133.108 14.036C133.612 14.24 134.044 14.546 134.404 14.954C134.776 15.35 135.064 15.848 135.268 16.448C135.472 17.036 135.574 17.72 135.574 18.5C135.574 19.28 135.454 19.97 135.214 20.57C134.986 21.158 134.674 21.656 134.278 22.064C133.894 22.46 133.45 22.76 132.946 22.964C132.442 23.168 131.914 23.27 131.362 23.27C130.51 23.27 129.832 23.132 129.328 22.856C128.836 22.568 128.44 22.154 128.14 21.614V26.6H126.07ZM133.414 18.482C133.414 17.546 133.204 16.844 132.784 16.376C132.376 15.896 131.716 15.656 130.804 15.656C129.94 15.656 129.28 15.884 128.824 16.34C128.368 16.796 128.14 17.51 128.14 18.482C128.14 19.454 128.368 20.174 128.824 20.642C129.28 21.098 129.94 21.326 130.804 21.326C131.596 21.326 132.226 21.086 132.694 20.606C133.174 20.126 133.414 19.418 133.414 18.482ZM139.001 15.89H136.481V14H139.001L139.721 10.4H141.071V14H146.021V15.89H141.071V19.4C141.071 19.664 141.089 19.916 141.125 20.156C141.173 20.384 141.251 20.588 141.359 20.768C141.467 20.936 141.611 21.074 141.791 21.182C141.983 21.278 142.229 21.326 142.529 21.326C142.985 21.326 143.369 21.206 143.681 20.966C144.005 20.714 144.167 20.252 144.167 19.58H146.057C146.057 20.276 145.973 20.864 145.805 21.344C145.637 21.812 145.397 22.19 145.085 22.478C144.785 22.766 144.413 22.97 143.969 23.09C143.525 23.21 143.021 23.27 142.457 23.27C141.929 23.27 141.449 23.204 141.017 23.072C140.597 22.94 140.237 22.724 139.937 22.424C139.637 22.124 139.403 21.74 139.235 21.272C139.079 20.804 139.001 20.228 139.001 19.544V15.89Z" fill="#05070B"/>
</svg>
