<svg width="463" height="209" viewBox="0 0 463 209" fill="none" xmlns="http://www.w3.org/2000/svg">
<mask id="mask0_8682_18469" style="mask-type:alpha" maskUnits="userSpaceOnUse" x="0" y="-12" width="463" height="249">
<path d="M0 6.67572e-06C0 -6.62741 5.37258 -12 12 -12H451C457.627 -12 463 -6.62742 463 0V225C463 231.627 457.627 237 451 237H12C5.37259 237 0 231.627 0 225V6.67572e-06Z" fill="url(#paint0_linear_8682_18469)"/>
</mask>
<g mask="url(#mask0_8682_18469)">
<g filter="url(#filter0_ddddd_8682_18469)">
<rect x="34" y="76" width="182" height="96" rx="12" fill="white" shape-rendering="crispEdges"/>
<rect x="33.5" y="75.5" width="183" height="97" rx="12.5" stroke="#E4E4E7" shape-rendering="crispEdges"/>
<rect x="40" y="82" width="170" height="28" rx="6" fill="#F6F6F6"/>
<path fill-rule="evenodd" clip-rule="evenodd" d="M49.5984 89.6001C49.2802 89.6001 48.975 89.7265 48.7499 89.9516C48.5249 90.1766 48.3984 90.4818 48.3984 90.8001V101.2C48.3984 101.518 48.5249 101.824 48.7499 102.049C48.975 102.274 49.2802 102.4 49.5984 102.4H58.3984C58.7167 102.4 59.0219 102.274 59.247 102.049C59.472 101.824 59.5984 101.518 59.5984 101.2V94.0969C59.5982 93.7787 59.4715 93.4737 59.2464 93.2489L55.9504 89.9513C55.8389 89.8398 55.7064 89.7514 55.5606 89.6911C55.4148 89.6308 55.2586 89.5999 55.1008 89.6001H49.5984ZM51.3984 96.4001C51.2393 96.4001 51.0867 96.4633 50.9742 96.5758C50.8617 96.6884 50.7984 96.841 50.7984 97.0001C50.7984 97.1592 50.8617 97.3118 50.9742 97.4244C51.0867 97.5369 51.2393 97.6001 51.3984 97.6001H56.5984C56.7576 97.6001 56.9102 97.5369 57.0227 97.4244C57.1352 97.3118 57.1984 97.1592 57.1984 97.0001C57.1984 96.841 57.1352 96.6884 57.0227 96.5758C56.9102 96.4633 56.7576 96.4001 56.5984 96.4001H51.3984ZM51.3984 98.8001C51.2393 98.8001 51.0867 98.8633 50.9742 98.9758C50.8617 99.0884 50.7984 99.241 50.7984 99.4001C50.7984 99.5592 50.8617 99.7118 50.9742 99.8244C51.0867 99.9369 51.2393 100 51.3984 100H56.5984C56.7576 100 56.9102 99.9369 57.0227 99.8244C57.1352 99.7118 57.1984 99.5592 57.1984 99.4001C57.1984 99.241 57.1352 99.0884 57.0227 98.9758C56.9102 98.8633 56.7576 98.8001 56.5984 98.8001H51.3984Z" fill="#3F3F46"/>
<path d="M67.924 100V91.6H70.084C71.06 91.6 71.864 91.772 72.496 92.116C73.136 92.452 73.608 92.936 73.912 93.568C74.224 94.192 74.38 94.944 74.38 95.824C74.38 96.688 74.224 97.432 73.912 98.056C73.608 98.68 73.136 99.16 72.496 99.496C71.864 99.832 71.06 100 70.084 100H67.924ZM68.932 99.16H70.06C70.868 99.16 71.512 99.028 71.992 98.764C72.472 98.492 72.816 98.108 73.024 97.612C73.232 97.108 73.336 96.512 73.336 95.824C73.336 95.12 73.232 94.516 73.024 94.012C72.816 93.508 72.472 93.12 71.992 92.848C71.512 92.576 70.868 92.44 70.06 92.44H68.932V99.16ZM78.4368 100.144C77.8768 100.144 77.3808 100.008 76.9488 99.736C76.5168 99.464 76.1768 99.08 75.9288 98.584C75.6888 98.088 75.5688 97.508 75.5688 96.844C75.5688 96.18 75.6888 95.6 75.9288 95.104C76.1768 94.608 76.5168 94.224 76.9488 93.952C77.3888 93.68 77.8928 93.544 78.4608 93.544C79.0688 93.544 79.5768 93.68 79.9848 93.952C80.3928 94.224 80.7008 94.588 80.9088 95.044C81.1168 95.5 81.2208 96 81.2208 96.544C81.2208 96.624 81.2208 96.704 81.2208 96.784C81.2208 96.864 81.2168 96.96 81.2088 97.072H76.3248V96.292H80.2368C80.2208 95.676 80.0408 95.208 79.6968 94.888C79.3608 94.56 78.9408 94.396 78.4368 94.396C78.1008 94.396 77.7888 94.48 77.5008 94.648C77.2208 94.808 76.9928 95.048 76.8168 95.368C76.6408 95.688 76.5527 96.088 76.5527 96.568V96.904C76.5527 97.432 76.6408 97.876 76.8168 98.236C76.9928 98.588 77.2208 98.852 77.5008 99.028C77.7888 99.204 78.1008 99.292 78.4368 99.292C78.8848 99.292 79.2368 99.208 79.4928 99.04C79.7488 98.864 79.9368 98.616 80.0568 98.296H81.0528C80.9568 98.648 80.7888 98.964 80.5488 99.244C80.3168 99.524 80.0208 99.744 79.6608 99.904C79.3088 100.064 78.9008 100.144 78.4368 100.144ZM84.2193 100L81.8193 93.688H82.8873L84.8073 99.028L86.7393 93.688H87.7713L85.3833 100H84.2193ZM89.0066 100V93.688H90.0146V100H89.0066ZM89.5106 92.488C89.3106 92.488 89.1426 92.424 89.0066 92.296C88.8786 92.16 88.8146 91.992 88.8146 91.792C88.8146 91.592 88.8786 91.432 89.0066 91.312C89.1426 91.184 89.3106 91.12 89.5106 91.12C89.7026 91.12 89.8666 91.184 90.0026 91.312C90.1386 91.432 90.2066 91.592 90.2066 91.792C90.2066 91.992 90.1386 92.16 90.0026 92.296C89.8666 92.424 89.7026 92.488 89.5106 92.488ZM94.0851 100.144C93.5171 100.144 93.0451 100.06 92.6691 99.892C92.3011 99.716 92.0211 99.476 91.8291 99.172C91.6371 98.86 91.5211 98.5 91.4811 98.092H92.5131C92.5451 98.308 92.6171 98.508 92.7291 98.692C92.8491 98.868 93.0211 99.012 93.2451 99.124C93.4691 99.236 93.7531 99.292 94.0971 99.292C94.3691 99.292 94.6011 99.252 94.7931 99.172C94.9851 99.084 95.1291 98.964 95.2251 98.812C95.3291 98.66 95.3811 98.484 95.3811 98.284C95.3811 98.02 95.3211 97.816 95.2011 97.672C95.0891 97.52 94.9211 97.408 94.6971 97.336C94.4811 97.256 94.2091 97.196 93.8811 97.156C93.5291 97.108 93.2171 97.04 92.9451 96.952C92.6731 96.864 92.4411 96.748 92.2491 96.604C92.0651 96.46 91.9251 96.28 91.8291 96.064C91.7331 95.848 91.6851 95.592 91.6851 95.296C91.6851 94.952 91.7771 94.648 91.9611 94.384C92.1451 94.12 92.4051 93.916 92.7411 93.772C93.0851 93.62 93.4891 93.544 93.9531 93.544C94.6331 93.544 95.1691 93.7 95.5611 94.012C95.9611 94.324 96.1971 94.768 96.2691 95.344H95.2731C95.2331 95.048 95.0971 94.816 94.8651 94.648C94.6331 94.48 94.3251 94.396 93.9411 94.396C93.5331 94.396 93.2251 94.472 93.0171 94.624C92.8091 94.776 92.7051 94.976 92.7051 95.224C92.7051 95.408 92.7491 95.576 92.8371 95.728C92.9331 95.872 93.0931 95.996 93.3171 96.1C93.5411 96.196 93.8411 96.268 94.2171 96.316C94.6891 96.372 95.0891 96.464 95.4171 96.592C95.7451 96.712 95.9931 96.9 96.1611 97.156C96.3371 97.412 96.4211 97.76 96.4131 98.2C96.4131 98.616 96.3131 98.968 96.1131 99.256C95.9211 99.544 95.6491 99.764 95.2971 99.916C94.9531 100.068 94.5491 100.144 94.0851 100.144ZM97.9106 101.38V100.432H103.779V101.38H97.9106ZM105.553 100V91.6H110.665V92.428H106.561V95.38H110.053V96.196H106.561V100H105.553ZM112.046 100V93.688H113.054V100H112.046ZM112.55 92.488C112.35 92.488 112.182 92.424 112.046 92.296C111.918 92.16 111.854 91.992 111.854 91.792C111.854 91.592 111.918 91.432 112.046 91.312C112.182 91.184 112.35 91.12 112.55 91.12C112.742 91.12 112.906 91.184 113.042 91.312C113.178 91.432 113.246 91.592 113.246 91.792C113.246 91.992 113.178 92.16 113.042 92.296C112.906 92.424 112.742 92.488 112.55 92.488ZM114.844 100V93.688H115.756L115.804 94.684C115.988 94.324 116.252 94.044 116.596 93.844C116.948 93.644 117.352 93.544 117.808 93.544C118.272 93.544 118.676 93.632 119.02 93.808C119.364 93.984 119.632 94.252 119.824 94.612C120.016 94.972 120.112 95.428 120.112 95.98V100H119.104V96.088C119.104 95.528 118.964 95.108 118.684 94.828C118.412 94.548 118.044 94.408 117.58 94.408C117.268 94.408 116.98 94.484 116.716 94.636C116.452 94.78 116.24 94.996 116.08 95.284C115.928 95.572 115.852 95.924 115.852 96.34V100H114.844ZM123.75 100.144C123.27 100.144 122.87 100.056 122.55 99.88C122.23 99.696 121.99 99.456 121.83 99.16C121.67 98.856 121.59 98.532 121.59 98.188C121.59 97.772 121.694 97.42 121.902 97.132C122.118 96.836 122.418 96.612 122.802 96.46C123.186 96.308 123.634 96.232 124.146 96.232H125.718C125.718 95.824 125.67 95.484 125.574 95.212C125.478 94.94 125.322 94.736 125.106 94.6C124.89 94.464 124.602 94.396 124.242 94.396C123.882 94.396 123.574 94.488 123.318 94.672C123.062 94.848 122.902 95.112 122.838 95.464H121.806C121.854 95.048 121.994 94.7 122.226 94.42C122.458 94.132 122.75 93.916 123.102 93.772C123.462 93.62 123.842 93.544 124.242 93.544C124.81 93.544 125.278 93.648 125.646 93.856C126.014 94.056 126.286 94.34 126.462 94.708C126.638 95.068 126.726 95.496 126.726 95.992V100H125.826L125.766 98.92C125.686 99.088 125.582 99.248 125.454 99.4C125.334 99.544 125.19 99.672 125.022 99.784C124.854 99.896 124.662 99.984 124.446 100.048C124.238 100.112 124.006 100.144 123.75 100.144ZM123.894 99.292C124.158 99.292 124.402 99.232 124.626 99.112C124.85 98.992 125.042 98.832 125.202 98.632C125.37 98.424 125.498 98.192 125.586 97.936C125.674 97.68 125.718 97.412 125.718 97.132V97.012H124.23C123.854 97.012 123.546 97.06 123.306 97.156C123.074 97.252 122.906 97.388 122.802 97.564C122.698 97.732 122.646 97.924 122.646 98.14C122.646 98.372 122.694 98.576 122.79 98.752C122.886 98.92 123.026 99.052 123.21 99.148C123.402 99.244 123.63 99.292 123.894 99.292ZM128.391 100V91.36H129.399V100H128.391ZM131.494 100.06C131.302 100.06 131.138 99.996 131.002 99.868C130.874 99.732 130.81 99.568 130.81 99.376C130.81 99.184 130.874 99.024 131.002 98.896C131.138 98.76 131.302 98.692 131.494 98.692C131.702 98.692 131.866 98.76 131.986 98.896C132.114 99.024 132.178 99.184 132.178 99.376C132.178 99.568 132.114 99.732 131.986 99.868C131.866 99.996 131.702 100.06 131.494 100.06ZM133.594 102.64V93.688H134.506L134.59 94.672C134.718 94.464 134.878 94.276 135.07 94.108C135.27 93.94 135.506 93.804 135.778 93.7C136.058 93.596 136.378 93.544 136.738 93.544C137.306 93.544 137.802 93.688 138.226 93.976C138.658 94.264 138.994 94.656 139.234 95.152C139.474 95.648 139.594 96.216 139.594 96.856C139.594 97.488 139.474 98.052 139.234 98.548C138.994 99.044 138.658 99.436 138.226 99.724C137.794 100.004 137.294 100.144 136.726 100.144C136.238 100.144 135.81 100.044 135.442 99.844C135.074 99.644 134.794 99.364 134.602 99.004V102.64H133.594ZM136.606 99.268C136.982 99.268 137.314 99.172 137.602 98.98C137.898 98.78 138.13 98.5 138.298 98.14C138.474 97.772 138.562 97.34 138.562 96.844C138.562 96.348 138.474 95.92 138.298 95.56C138.13 95.192 137.898 94.912 137.602 94.72C137.314 94.52 136.982 94.42 136.606 94.42C136.206 94.42 135.858 94.52 135.562 94.72C135.266 94.912 135.038 95.192 134.878 95.56C134.718 95.92 134.638 96.348 134.638 96.844C134.638 97.34 134.718 97.772 134.878 98.14C135.038 98.5 135.266 98.78 135.562 98.98C135.858 99.172 136.206 99.268 136.606 99.268ZM143.663 100.144C143.103 100.144 142.607 100 142.175 99.712C141.743 99.424 141.407 99.032 141.167 98.536C140.927 98.032 140.807 97.464 140.807 96.832C140.807 96.192 140.927 95.628 141.167 95.14C141.407 94.644 141.743 94.256 142.175 93.976C142.607 93.688 143.107 93.544 143.675 93.544C144.171 93.544 144.595 93.644 144.947 93.844C145.307 94.044 145.591 94.324 145.799 94.684V91.36H146.807V100H145.895L145.811 98.992C145.691 99.192 145.531 99.38 145.331 99.556C145.139 99.732 144.903 99.876 144.623 99.988C144.351 100.092 144.031 100.144 143.663 100.144ZM143.795 99.268C144.195 99.268 144.543 99.172 144.839 98.98C145.135 98.78 145.363 98.5 145.523 98.14C145.683 97.772 145.763 97.34 145.763 96.844C145.763 96.348 145.683 95.92 145.523 95.56C145.363 95.192 145.135 94.912 144.839 94.72C144.543 94.52 144.195 94.42 143.795 94.42C143.419 94.42 143.083 94.52 142.787 94.72C142.491 94.912 142.259 95.192 142.091 95.56C141.923 95.92 141.839 96.348 141.839 96.844C141.839 97.34 141.923 97.772 142.091 98.14C142.259 98.5 142.491 98.78 142.787 98.98C143.083 99.172 143.419 99.268 143.795 99.268ZM148.908 100V93.016C148.908 92.632 148.972 92.32 149.1 92.08C149.228 91.832 149.416 91.652 149.664 91.54C149.92 91.42 150.232 91.36 150.6 91.36H151.524V92.224H150.768C150.464 92.224 150.244 92.288 150.108 92.416C149.98 92.536 149.916 92.748 149.916 93.052V100H148.908ZM147.924 94.54V93.688H151.596V94.54H147.924Z" fill="#3F3F46"/>
<path fill-rule="evenodd" clip-rule="evenodd" d="M49.5984 117.6C49.2802 117.6 48.975 117.727 48.7499 117.952C48.5249 118.177 48.3984 118.482 48.3984 118.8V129.2C48.3984 129.518 48.5249 129.824 48.7499 130.049C48.975 130.274 49.2802 130.4 49.5984 130.4H58.3984C58.7167 130.4 59.0219 130.274 59.247 130.049C59.472 129.824 59.5984 129.518 59.5984 129.2V122.097C59.5982 121.779 59.4715 121.474 59.2464 121.249L55.9504 117.951C55.8389 117.84 55.7064 117.751 55.5606 117.691C55.4148 117.631 55.2586 117.6 55.1008 117.6H49.5984ZM51.3984 124.4C51.2393 124.4 51.0867 124.463 50.9742 124.576C50.8617 124.688 50.7984 124.841 50.7984 125C50.7984 125.159 50.8617 125.312 50.9742 125.424C51.0867 125.537 51.2393 125.6 51.3984 125.6H56.5984C56.7576 125.6 56.9102 125.537 57.0227 125.424C57.1352 125.312 57.1984 125.159 57.1984 125C57.1984 124.841 57.1352 124.688 57.0227 124.576C56.9102 124.463 56.7576 124.4 56.5984 124.4H51.3984ZM51.3984 126.8C51.2393 126.8 51.0867 126.863 50.9742 126.976C50.8617 127.088 50.7984 127.241 50.7984 127.4C50.7984 127.559 50.8617 127.712 50.9742 127.824C51.0867 127.937 51.2393 128 51.3984 128H56.5984C56.7576 128 56.9102 127.937 57.0227 127.824C57.1352 127.712 57.1984 127.559 57.1984 127.4C57.1984 127.241 57.1352 127.088 57.0227 126.976C56.9102 126.863 56.7576 126.8 56.5984 126.8H51.3984Z" fill="#A1A1AA"/>
<path d="M67.924 128V119.6H70.084C71.06 119.6 71.864 119.772 72.496 120.116C73.136 120.452 73.608 120.936 73.912 121.568C74.224 122.192 74.38 122.944 74.38 123.824C74.38 124.688 74.224 125.432 73.912 126.056C73.608 126.68 73.136 127.16 72.496 127.496C71.864 127.832 71.06 128 70.084 128H67.924ZM68.932 127.16H70.06C70.868 127.16 71.512 127.028 71.992 126.764C72.472 126.492 72.816 126.108 73.024 125.612C73.232 125.108 73.336 124.512 73.336 123.824C73.336 123.12 73.232 122.516 73.024 122.012C72.816 121.508 72.472 121.12 71.992 120.848C71.512 120.576 70.868 120.44 70.06 120.44H68.932V127.16ZM78.4368 128.144C77.8768 128.144 77.3808 128.008 76.9488 127.736C76.5168 127.464 76.1768 127.08 75.9288 126.584C75.6888 126.088 75.5688 125.508 75.5688 124.844C75.5688 124.18 75.6888 123.6 75.9288 123.104C76.1768 122.608 76.5168 122.224 76.9488 121.952C77.3888 121.68 77.8928 121.544 78.4608 121.544C79.0688 121.544 79.5768 121.68 79.9848 121.952C80.3928 122.224 80.7008 122.588 80.9088 123.044C81.1168 123.5 81.2208 124 81.2208 124.544C81.2208 124.624 81.2208 124.704 81.2208 124.784C81.2208 124.864 81.2168 124.96 81.2088 125.072H76.3248V124.292H80.2368C80.2208 123.676 80.0408 123.208 79.6968 122.888C79.3608 122.56 78.9408 122.396 78.4368 122.396C78.1008 122.396 77.7888 122.48 77.5008 122.648C77.2208 122.808 76.9928 123.048 76.8168 123.368C76.6408 123.688 76.5527 124.088 76.5527 124.568V124.904C76.5527 125.432 76.6408 125.876 76.8168 126.236C76.9928 126.588 77.2208 126.852 77.5008 127.028C77.7888 127.204 78.1008 127.292 78.4368 127.292C78.8848 127.292 79.2368 127.208 79.4928 127.04C79.7488 126.864 79.9368 126.616 80.0568 126.296H81.0528C80.9568 126.648 80.7888 126.964 80.5488 127.244C80.3168 127.524 80.0208 127.744 79.6608 127.904C79.3088 128.064 78.9008 128.144 78.4368 128.144ZM84.2193 128L81.8193 121.688H82.8873L84.8073 127.028L86.7393 121.688H87.7713L85.3833 128H84.2193ZM89.0066 128V121.688H90.0146V128H89.0066ZM89.5106 120.488C89.3106 120.488 89.1426 120.424 89.0066 120.296C88.8786 120.16 88.8146 119.992 88.8146 119.792C88.8146 119.592 88.8786 119.432 89.0066 119.312C89.1426 119.184 89.3106 119.12 89.5106 119.12C89.7026 119.12 89.8666 119.184 90.0026 119.312C90.1386 119.432 90.2066 119.592 90.2066 119.792C90.2066 119.992 90.1386 120.16 90.0026 120.296C89.8666 120.424 89.7026 120.488 89.5106 120.488ZM94.0851 128.144C93.5171 128.144 93.0451 128.06 92.6691 127.892C92.3011 127.716 92.0211 127.476 91.8291 127.172C91.6371 126.86 91.5211 126.5 91.4811 126.092H92.5131C92.5451 126.308 92.6171 126.508 92.7291 126.692C92.8491 126.868 93.0211 127.012 93.2451 127.124C93.4691 127.236 93.7531 127.292 94.0971 127.292C94.3691 127.292 94.6011 127.252 94.7931 127.172C94.9851 127.084 95.1291 126.964 95.2251 126.812C95.3291 126.66 95.3811 126.484 95.3811 126.284C95.3811 126.02 95.3211 125.816 95.2011 125.672C95.0891 125.52 94.9211 125.408 94.6971 125.336C94.4811 125.256 94.2091 125.196 93.8811 125.156C93.5291 125.108 93.2171 125.04 92.9451 124.952C92.6731 124.864 92.4411 124.748 92.2491 124.604C92.0651 124.46 91.9251 124.28 91.8291 124.064C91.7331 123.848 91.6851 123.592 91.6851 123.296C91.6851 122.952 91.7771 122.648 91.9611 122.384C92.1451 122.12 92.4051 121.916 92.7411 121.772C93.0851 121.62 93.4891 121.544 93.9531 121.544C94.6331 121.544 95.1691 121.7 95.5611 122.012C95.9611 122.324 96.1971 122.768 96.2691 123.344H95.2731C95.2331 123.048 95.0971 122.816 94.8651 122.648C94.6331 122.48 94.3251 122.396 93.9411 122.396C93.5331 122.396 93.2251 122.472 93.0171 122.624C92.8091 122.776 92.7051 122.976 92.7051 123.224C92.7051 123.408 92.7491 123.576 92.8371 123.728C92.9331 123.872 93.0931 123.996 93.3171 124.1C93.5411 124.196 93.8411 124.268 94.2171 124.316C94.6891 124.372 95.0891 124.464 95.4171 124.592C95.7451 124.712 95.9931 124.9 96.1611 125.156C96.3371 125.412 96.4211 125.76 96.4131 126.2C96.4131 126.616 96.3131 126.968 96.1131 127.256C95.9211 127.544 95.6491 127.764 95.2971 127.916C94.9531 128.068 94.5491 128.144 94.0851 128.144ZM97.9106 129.38V128.432H103.779V129.38H97.9106ZM105.001 128L108.097 119.6H109.165L112.249 128H111.169L108.625 120.86L106.057 128H105.001ZM106.417 125.84L106.705 125.024H110.509L110.797 125.84H106.417ZM112.297 130.64V129.776H112.765C113.069 129.776 113.285 129.712 113.413 129.584C113.541 129.464 113.605 129.256 113.605 128.96V121.688H114.613V128.984C114.613 129.368 114.549 129.68 114.421 129.92C114.293 130.168 114.101 130.348 113.845 130.46C113.597 130.58 113.289 130.64 112.921 130.64H112.297ZM114.121 120.488C113.921 120.488 113.753 120.424 113.617 120.296C113.489 120.16 113.425 119.992 113.425 119.792C113.425 119.592 113.489 119.432 113.617 119.312C113.753 119.184 113.921 119.12 114.121 119.12C114.313 119.12 114.473 119.184 114.601 119.312C114.737 119.432 114.805 119.592 114.805 119.792C114.805 119.992 114.737 120.16 114.601 120.296C114.473 120.424 114.313 120.488 114.121 120.488ZM118.659 128.144C118.195 128.144 117.791 128.056 117.447 127.88C117.103 127.704 116.835 127.436 116.643 127.076C116.451 126.708 116.355 126.252 116.355 125.708V121.688H117.363V125.6C117.363 126.16 117.499 126.58 117.771 126.86C118.051 127.14 118.423 127.28 118.887 127.28C119.207 127.28 119.495 127.208 119.751 127.064C120.007 126.912 120.211 126.692 120.363 126.404C120.523 126.116 120.603 125.764 120.603 125.348V121.688H121.611V128H120.699L120.639 126.992C120.471 127.36 120.211 127.644 119.859 127.844C119.515 128.044 119.115 128.144 118.659 128.144ZM125.597 128.144C125.029 128.144 124.557 128.06 124.181 127.892C123.813 127.716 123.533 127.476 123.341 127.172C123.149 126.86 123.033 126.5 122.993 126.092H124.025C124.057 126.308 124.129 126.508 124.241 126.692C124.361 126.868 124.533 127.012 124.757 127.124C124.981 127.236 125.265 127.292 125.609 127.292C125.881 127.292 126.113 127.252 126.305 127.172C126.497 127.084 126.641 126.964 126.737 126.812C126.841 126.66 126.893 126.484 126.893 126.284C126.893 126.02 126.833 125.816 126.713 125.672C126.601 125.52 126.433 125.408 126.209 125.336C125.993 125.256 125.721 125.196 125.393 125.156C125.041 125.108 124.729 125.04 124.457 124.952C124.185 124.864 123.953 124.748 123.761 124.604C123.577 124.46 123.437 124.28 123.341 124.064C123.245 123.848 123.197 123.592 123.197 123.296C123.197 122.952 123.289 122.648 123.473 122.384C123.657 122.12 123.917 121.916 124.253 121.772C124.597 121.62 125.001 121.544 125.465 121.544C126.145 121.544 126.681 121.7 127.073 122.012C127.473 122.324 127.709 122.768 127.781 123.344H126.785C126.745 123.048 126.609 122.816 126.377 122.648C126.145 122.48 125.837 122.396 125.453 122.396C125.045 122.396 124.737 122.472 124.529 122.624C124.321 122.776 124.217 122.976 124.217 123.224C124.217 123.408 124.261 123.576 124.349 123.728C124.445 123.872 124.605 123.996 124.829 124.1C125.053 124.196 125.353 124.268 125.729 124.316C126.201 124.372 126.601 124.464 126.929 124.592C127.257 124.712 127.505 124.9 127.673 125.156C127.849 125.412 127.933 125.76 127.925 126.2C127.925 126.616 127.825 126.968 127.625 127.256C127.433 127.544 127.161 127.764 126.809 127.916C126.465 128.068 126.061 128.144 125.597 128.144ZM131.601 128C131.241 128 130.929 127.944 130.665 127.832C130.401 127.72 130.197 127.532 130.053 127.268C129.917 126.996 129.849 126.632 129.849 126.176V122.54H128.745V121.688H129.849L129.981 120.116H130.857V121.688H132.645V122.54H130.857V126.176C130.857 126.552 130.933 126.808 131.085 126.944C131.237 127.072 131.505 127.136 131.889 127.136H132.621V128H131.601ZM136.48 128.144C135.92 128.144 135.424 128.008 134.992 127.736C134.56 127.464 134.22 127.08 133.972 126.584C133.732 126.088 133.612 125.508 133.612 124.844C133.612 124.18 133.732 123.6 133.972 123.104C134.22 122.608 134.56 122.224 134.992 121.952C135.432 121.68 135.936 121.544 136.504 121.544C137.112 121.544 137.62 121.68 138.028 121.952C138.436 122.224 138.744 122.588 138.952 123.044C139.16 123.5 139.264 124 139.264 124.544C139.264 124.624 139.264 124.704 139.264 124.784C139.264 124.864 139.26 124.96 139.252 125.072H134.368V124.292H138.28C138.264 123.676 138.084 123.208 137.74 122.888C137.404 122.56 136.984 122.396 136.48 122.396C136.144 122.396 135.832 122.48 135.544 122.648C135.264 122.808 135.036 123.048 134.86 123.368C134.684 123.688 134.596 124.088 134.596 124.568V124.904C134.596 125.432 134.684 125.876 134.86 126.236C135.036 126.588 135.264 126.852 135.544 127.028C135.832 127.204 136.144 127.292 136.48 127.292C136.928 127.292 137.28 127.208 137.536 127.04C137.792 126.864 137.98 126.616 138.1 126.296H139.096C139 126.648 138.832 126.964 138.592 127.244C138.36 127.524 138.064 127.744 137.704 127.904C137.352 128.064 136.944 128.144 136.48 128.144ZM135.496 121.172L135.064 120.524L137.164 118.988L137.74 119.804L135.496 121.172ZM141.057 128.06C140.865 128.06 140.701 127.996 140.565 127.868C140.437 127.732 140.373 127.568 140.373 127.376C140.373 127.184 140.437 127.024 140.565 126.896C140.701 126.76 140.865 126.692 141.057 126.692C141.265 126.692 141.429 126.76 141.549 126.896C141.677 127.024 141.741 127.184 141.741 127.376C141.741 127.568 141.677 127.732 141.549 127.868C141.429 127.996 141.265 128.06 141.057 128.06ZM143.157 130.64V121.688H144.069L144.153 122.672C144.281 122.464 144.441 122.276 144.633 122.108C144.833 121.94 145.069 121.804 145.341 121.7C145.621 121.596 145.941 121.544 146.301 121.544C146.869 121.544 147.365 121.688 147.789 121.976C148.221 122.264 148.557 122.656 148.797 123.152C149.037 123.648 149.157 124.216 149.157 124.856C149.157 125.488 149.037 126.052 148.797 126.548C148.557 127.044 148.221 127.436 147.789 127.724C147.357 128.004 146.857 128.144 146.289 128.144C145.801 128.144 145.373 128.044 145.005 127.844C144.637 127.644 144.357 127.364 144.165 127.004V130.64H143.157ZM146.169 127.268C146.545 127.268 146.877 127.172 147.165 126.98C147.461 126.78 147.693 126.5 147.861 126.14C148.037 125.772 148.125 125.34 148.125 124.844C148.125 124.348 148.037 123.92 147.861 123.56C147.693 123.192 147.461 122.912 147.165 122.72C146.877 122.52 146.545 122.42 146.169 122.42C145.769 122.42 145.421 122.52 145.125 122.72C144.829 122.912 144.601 123.192 144.441 123.56C144.281 123.92 144.201 124.348 144.201 124.844C144.201 125.34 144.281 125.772 144.441 126.14C144.601 126.5 144.829 126.78 145.125 126.98C145.421 127.172 145.769 127.268 146.169 127.268ZM153.226 128.144C152.666 128.144 152.17 128 151.738 127.712C151.306 127.424 150.97 127.032 150.73 126.536C150.49 126.032 150.37 125.464 150.37 124.832C150.37 124.192 150.49 123.628 150.73 123.14C150.97 122.644 151.306 122.256 151.738 121.976C152.17 121.688 152.67 121.544 153.238 121.544C153.734 121.544 154.158 121.644 154.51 121.844C154.87 122.044 155.154 122.324 155.362 122.684V119.36H156.37V128H155.458L155.374 126.992C155.254 127.192 155.094 127.38 154.894 127.556C154.702 127.732 154.466 127.876 154.186 127.988C153.914 128.092 153.594 128.144 153.226 128.144ZM153.358 127.268C153.758 127.268 154.106 127.172 154.402 126.98C154.698 126.78 154.926 126.5 155.086 126.14C155.246 125.772 155.326 125.34 155.326 124.844C155.326 124.348 155.246 123.92 155.086 123.56C154.926 123.192 154.698 122.912 154.402 122.72C154.106 122.52 153.758 122.42 153.358 122.42C152.982 122.42 152.646 122.52 152.35 122.72C152.054 122.912 151.822 123.192 151.654 123.56C151.486 123.92 151.402 124.348 151.402 124.844C151.402 125.34 151.486 125.772 151.654 126.14C151.822 126.5 152.054 126.78 152.35 126.98C152.646 127.172 152.982 127.268 153.358 127.268ZM158.471 128V121.016C158.471 120.632 158.535 120.32 158.663 120.08C158.791 119.832 158.979 119.652 159.227 119.54C159.483 119.42 159.795 119.36 160.163 119.36H161.087V120.224H160.331C160.027 120.224 159.807 120.288 159.671 120.416C159.543 120.536 159.479 120.748 159.479 121.052V128H158.471ZM157.487 122.54V121.688H161.159V122.54H157.487Z" fill="#A1A1AA"/>
<path fill-rule="evenodd" clip-rule="evenodd" d="M49.5984 145.6C49.2802 145.6 48.975 145.727 48.7499 145.952C48.5249 146.177 48.3984 146.482 48.3984 146.8V157.2C48.3984 157.518 48.5249 157.824 48.7499 158.049C48.975 158.274 49.2802 158.4 49.5984 158.4H58.3984C58.7167 158.4 59.0219 158.274 59.247 158.049C59.472 157.824 59.5984 157.518 59.5984 157.2V150.097C59.5982 149.779 59.4715 149.474 59.2464 149.249L55.9504 145.951C55.8389 145.84 55.7064 145.751 55.5606 145.691C55.4148 145.631 55.2586 145.6 55.1008 145.6H49.5984ZM51.3984 152.4C51.2393 152.4 51.0867 152.463 50.9742 152.576C50.8617 152.688 50.7984 152.841 50.7984 153C50.7984 153.159 50.8617 153.312 50.9742 153.424C51.0867 153.537 51.2393 153.6 51.3984 153.6H56.5984C56.7576 153.6 56.9102 153.537 57.0227 153.424C57.1352 153.312 57.1984 153.159 57.1984 153C57.1984 152.841 57.1352 152.688 57.0227 152.576C56.9102 152.463 56.7576 152.4 56.5984 152.4H51.3984ZM51.3984 154.8C51.2393 154.8 51.0867 154.863 50.9742 154.976C50.8617 155.088 50.7984 155.241 50.7984 155.4C50.7984 155.559 50.8617 155.712 50.9742 155.824C51.0867 155.937 51.2393 156 51.3984 156H56.5984C56.7576 156 56.9102 155.937 57.0227 155.824C57.1352 155.712 57.1984 155.559 57.1984 155.4C57.1984 155.241 57.1352 155.088 57.0227 154.976C56.9102 154.863 56.7576 154.8 56.5984 154.8H51.3984Z" fill="#A1A1AA"/>
<path d="M67.924 156V147.6H70.084C71.06 147.6 71.864 147.772 72.496 148.116C73.136 148.452 73.608 148.936 73.912 149.568C74.224 150.192 74.38 150.944 74.38 151.824C74.38 152.688 74.224 153.432 73.912 154.056C73.608 154.68 73.136 155.16 72.496 155.496C71.864 155.832 71.06 156 70.084 156H67.924ZM68.932 155.16H70.06C70.868 155.16 71.512 155.028 71.992 154.764C72.472 154.492 72.816 154.108 73.024 153.612C73.232 153.108 73.336 152.512 73.336 151.824C73.336 151.12 73.232 150.516 73.024 150.012C72.816 149.508 72.472 149.12 71.992 148.848C71.512 148.576 70.868 148.44 70.06 148.44H68.932V155.16ZM78.4368 156.144C77.8768 156.144 77.3808 156.008 76.9488 155.736C76.5168 155.464 76.1768 155.08 75.9288 154.584C75.6888 154.088 75.5688 153.508 75.5688 152.844C75.5688 152.18 75.6888 151.6 75.9288 151.104C76.1768 150.608 76.5168 150.224 76.9488 149.952C77.3888 149.68 77.8928 149.544 78.4608 149.544C79.0688 149.544 79.5768 149.68 79.9848 149.952C80.3928 150.224 80.7008 150.588 80.9088 151.044C81.1168 151.5 81.2208 152 81.2208 152.544C81.2208 152.624 81.2208 152.704 81.2208 152.784C81.2208 152.864 81.2168 152.96 81.2088 153.072H76.3248V152.292H80.2368C80.2208 151.676 80.0408 151.208 79.6968 150.888C79.3608 150.56 78.9408 150.396 78.4368 150.396C78.1008 150.396 77.7888 150.48 77.5008 150.648C77.2208 150.808 76.9928 151.048 76.8168 151.368C76.6408 151.688 76.5527 152.088 76.5527 152.568V152.904C76.5527 153.432 76.6408 153.876 76.8168 154.236C76.9928 154.588 77.2208 154.852 77.5008 155.028C77.7888 155.204 78.1008 155.292 78.4368 155.292C78.8848 155.292 79.2368 155.208 79.4928 155.04C79.7488 154.864 79.9368 154.616 80.0568 154.296H81.0528C80.9568 154.648 80.7888 154.964 80.5488 155.244C80.3168 155.524 80.0208 155.744 79.6608 155.904C79.3088 156.064 78.9008 156.144 78.4368 156.144ZM84.2193 156L81.8193 149.688H82.8873L84.8073 155.028L86.7393 149.688H87.7713L85.3833 156H84.2193ZM89.0066 156V149.688H90.0146V156H89.0066ZM89.5106 148.488C89.3106 148.488 89.1426 148.424 89.0066 148.296C88.8786 148.16 88.8146 147.992 88.8146 147.792C88.8146 147.592 88.8786 147.432 89.0066 147.312C89.1426 147.184 89.3106 147.12 89.5106 147.12C89.7026 147.12 89.8666 147.184 90.0026 147.312C90.1386 147.432 90.2066 147.592 90.2066 147.792C90.2066 147.992 90.1386 148.16 90.0026 148.296C89.8666 148.424 89.7026 148.488 89.5106 148.488ZM94.0851 156.144C93.5171 156.144 93.0451 156.06 92.6691 155.892C92.3011 155.716 92.0211 155.476 91.8291 155.172C91.6371 154.86 91.5211 154.5 91.4811 154.092H92.5131C92.5451 154.308 92.6171 154.508 92.7291 154.692C92.8491 154.868 93.0211 155.012 93.2451 155.124C93.4691 155.236 93.7531 155.292 94.0971 155.292C94.3691 155.292 94.6011 155.252 94.7931 155.172C94.9851 155.084 95.1291 154.964 95.2251 154.812C95.3291 154.66 95.3811 154.484 95.3811 154.284C95.3811 154.02 95.3211 153.816 95.2011 153.672C95.0891 153.52 94.9211 153.408 94.6971 153.336C94.4811 153.256 94.2091 153.196 93.8811 153.156C93.5291 153.108 93.2171 153.04 92.9451 152.952C92.6731 152.864 92.4411 152.748 92.2491 152.604C92.0651 152.46 91.9251 152.28 91.8291 152.064C91.7331 151.848 91.6851 151.592 91.6851 151.296C91.6851 150.952 91.7771 150.648 91.9611 150.384C92.1451 150.12 92.4051 149.916 92.7411 149.772C93.0851 149.62 93.4891 149.544 93.9531 149.544C94.6331 149.544 95.1691 149.7 95.5611 150.012C95.9611 150.324 96.1971 150.768 96.2691 151.344H95.2731C95.2331 151.048 95.0971 150.816 94.8651 150.648C94.6331 150.48 94.3251 150.396 93.9411 150.396C93.5331 150.396 93.2251 150.472 93.0171 150.624C92.8091 150.776 92.7051 150.976 92.7051 151.224C92.7051 151.408 92.7491 151.576 92.8371 151.728C92.9331 151.872 93.0931 151.996 93.3171 152.1C93.5411 152.196 93.8411 152.268 94.2171 152.316C94.6891 152.372 95.0891 152.464 95.4171 152.592C95.7451 152.712 95.9931 152.9 96.1611 153.156C96.3371 153.412 96.4211 153.76 96.4131 154.2C96.4131 154.616 96.3131 154.968 96.1131 155.256C95.9211 155.544 95.6491 155.764 95.2971 155.916C94.9531 156.068 94.5491 156.144 94.0851 156.144ZM97.9106 157.38V156.432H103.779V157.38H97.9106ZM105.553 156V147.6H106.561V156H105.553ZM108.34 156V149.688H109.252L109.3 150.684C109.484 150.324 109.748 150.044 110.092 149.844C110.444 149.644 110.848 149.544 111.304 149.544C111.768 149.544 112.172 149.632 112.516 149.808C112.86 149.984 113.128 150.252 113.32 150.612C113.512 150.972 113.608 151.428 113.608 151.98V156H112.6V152.088C112.6 151.528 112.46 151.108 112.18 150.828C111.908 150.548 111.54 150.408 111.076 150.408C110.764 150.408 110.476 150.484 110.212 150.636C109.948 150.78 109.736 150.996 109.576 151.284C109.424 151.572 109.348 151.924 109.348 152.34V156H108.34ZM115.374 156V149.688H116.382V156H115.374ZM115.878 148.488C115.678 148.488 115.51 148.424 115.374 148.296C115.246 148.16 115.182 147.992 115.182 147.792C115.182 147.592 115.246 147.432 115.374 147.312C115.51 147.184 115.678 147.12 115.878 147.12C116.07 147.12 116.234 147.184 116.37 147.312C116.506 147.432 116.574 147.592 116.574 147.792C116.574 147.992 116.506 148.16 116.37 148.296C116.234 148.424 116.07 148.488 115.878 148.488ZM120.62 156C120.26 156 119.948 155.944 119.684 155.832C119.42 155.72 119.216 155.532 119.072 155.268C118.936 154.996 118.868 154.632 118.868 154.176V150.54H117.764V149.688H118.868L119 148.116H119.876V149.688H121.664V150.54H119.876V154.176C119.876 154.552 119.952 154.808 120.104 154.944C120.256 155.072 120.524 155.136 120.908 155.136H121.64V156H120.62ZM123.143 156V149.688H124.151V156H123.143ZM123.647 148.488C123.447 148.488 123.279 148.424 123.143 148.296C123.015 148.16 122.951 147.992 122.951 147.792C122.951 147.592 123.015 147.432 123.143 147.312C123.279 147.184 123.447 147.12 123.647 147.12C123.839 147.12 124.003 147.184 124.139 147.312C124.275 147.432 124.343 147.592 124.343 147.792C124.343 147.992 124.275 148.16 124.139 148.296C124.003 148.424 123.839 148.488 123.647 148.488ZM127.91 156.144C127.43 156.144 127.03 156.056 126.71 155.88C126.39 155.696 126.15 155.456 125.99 155.16C125.83 154.856 125.75 154.532 125.75 154.188C125.75 153.772 125.854 153.42 126.062 153.132C126.278 152.836 126.578 152.612 126.962 152.46C127.346 152.308 127.794 152.232 128.306 152.232H129.878C129.878 151.824 129.83 151.484 129.734 151.212C129.638 150.94 129.482 150.736 129.266 150.6C129.05 150.464 128.762 150.396 128.402 150.396C128.042 150.396 127.734 150.488 127.478 150.672C127.222 150.848 127.062 151.112 126.998 151.464H125.966C126.014 151.048 126.154 150.7 126.386 150.42C126.618 150.132 126.91 149.916 127.262 149.772C127.622 149.62 128.002 149.544 128.402 149.544C128.97 149.544 129.438 149.648 129.806 149.856C130.174 150.056 130.446 150.34 130.622 150.708C130.798 151.068 130.886 151.496 130.886 151.992V156H129.986L129.926 154.92C129.846 155.088 129.742 155.248 129.614 155.4C129.494 155.544 129.35 155.672 129.182 155.784C129.014 155.896 128.822 155.984 128.606 156.048C128.398 156.112 128.166 156.144 127.91 156.144ZM128.054 155.292C128.318 155.292 128.562 155.232 128.786 155.112C129.01 154.992 129.202 154.832 129.362 154.632C129.53 154.424 129.658 154.192 129.746 153.936C129.834 153.68 129.878 153.412 129.878 153.132V153.012H128.39C128.014 153.012 127.706 153.06 127.466 153.156C127.234 153.252 127.066 153.388 126.962 153.564C126.858 153.732 126.806 153.924 126.806 154.14C126.806 154.372 126.854 154.576 126.95 154.752C127.046 154.92 127.186 155.052 127.37 155.148C127.562 155.244 127.79 155.292 128.054 155.292ZM132.551 156V147.36H133.559V156H132.551ZM135.654 156.06C135.462 156.06 135.298 155.996 135.162 155.868C135.034 155.732 134.97 155.568 134.97 155.376C134.97 155.184 135.034 155.024 135.162 154.896C135.298 154.76 135.462 154.692 135.654 154.692C135.862 154.692 136.026 154.76 136.146 154.896C136.274 155.024 136.338 155.184 136.338 155.376C136.338 155.568 136.274 155.732 136.146 155.868C136.026 155.996 135.862 156.06 135.654 156.06ZM137.754 158.64V149.688H138.666L138.75 150.672C138.878 150.464 139.038 150.276 139.23 150.108C139.43 149.94 139.666 149.804 139.938 149.7C140.218 149.596 140.538 149.544 140.898 149.544C141.466 149.544 141.962 149.688 142.386 149.976C142.818 150.264 143.154 150.656 143.394 151.152C143.634 151.648 143.754 152.216 143.754 152.856C143.754 153.488 143.634 154.052 143.394 154.548C143.154 155.044 142.818 155.436 142.386 155.724C141.954 156.004 141.454 156.144 140.886 156.144C140.398 156.144 139.97 156.044 139.602 155.844C139.234 155.644 138.954 155.364 138.762 155.004V158.64H137.754ZM140.766 155.268C141.142 155.268 141.474 155.172 141.762 154.98C142.058 154.78 142.29 154.5 142.458 154.14C142.634 153.772 142.722 153.34 142.722 152.844C142.722 152.348 142.634 151.92 142.458 151.56C142.29 151.192 142.058 150.912 141.762 150.72C141.474 150.52 141.142 150.42 140.766 150.42C140.366 150.42 140.018 150.52 139.722 150.72C139.426 150.912 139.198 151.192 139.038 151.56C138.878 151.92 138.798 152.348 138.798 152.844C138.798 153.34 138.878 153.772 139.038 154.14C139.198 154.5 139.426 154.78 139.722 154.98C140.018 155.172 140.366 155.268 140.766 155.268ZM147.823 156.144C147.263 156.144 146.767 156 146.335 155.712C145.903 155.424 145.567 155.032 145.327 154.536C145.087 154.032 144.967 153.464 144.967 152.832C144.967 152.192 145.087 151.628 145.327 151.14C145.567 150.644 145.903 150.256 146.335 149.976C146.767 149.688 147.267 149.544 147.835 149.544C148.331 149.544 148.755 149.644 149.107 149.844C149.467 150.044 149.751 150.324 149.959 150.684V147.36H150.967V156H150.055L149.971 154.992C149.851 155.192 149.691 155.38 149.491 155.556C149.299 155.732 149.063 155.876 148.783 155.988C148.511 156.092 148.191 156.144 147.823 156.144ZM147.955 155.268C148.355 155.268 148.703 155.172 148.999 154.98C149.295 154.78 149.523 154.5 149.683 154.14C149.843 153.772 149.923 153.34 149.923 152.844C149.923 152.348 149.843 151.92 149.683 151.56C149.523 151.192 149.295 150.912 148.999 150.72C148.703 150.52 148.355 150.42 147.955 150.42C147.579 150.42 147.243 150.52 146.947 150.72C146.651 150.912 146.419 151.192 146.251 151.56C146.083 151.92 145.999 152.348 145.999 152.844C145.999 153.34 146.083 153.772 146.251 154.14C146.419 154.5 146.651 154.78 146.947 154.98C147.243 155.172 147.579 155.268 147.955 155.268ZM153.068 156V149.016C153.068 148.632 153.132 148.32 153.26 148.08C153.388 147.832 153.576 147.652 153.824 147.54C154.08 147.42 154.392 147.36 154.76 147.36H155.684V148.224H154.928C154.624 148.224 154.404 148.288 154.268 148.416C154.14 148.536 154.076 148.748 154.076 149.052V156H153.068ZM152.084 150.54V149.688H155.756V150.54H152.084Z" fill="#A1A1AA"/>
</g>
<g filter="url(#filter1_ddddd_8682_18469)">
<rect x="181.719" y="13" width="206.558" height="211" rx="13.3263" fill="white" shape-rendering="crispEdges"/>
<rect x="181.163" y="12.4447" width="207.668" height="212.111" rx="13.8816" stroke="#E4E4E7" stroke-width="1.11053" shape-rendering="crispEdges"/>
<path d="M187 25C187 21.134 190.134 18 194 18H376C379.866 18 383 21.134 383 25V86H187V25Z" fill="#F6F6F6"/>
<path d="M204.508 54.7686V38.1273H209.881C211.815 38.1273 213.407 38.4681 214.659 39.1496C215.927 39.8311 216.862 40.7978 217.465 42.0499C218.083 43.2861 218.392 44.76 218.392 46.4717C218.392 48.1517 218.083 49.6177 217.465 50.8698C216.862 52.106 215.927 53.0648 214.659 53.7463C213.407 54.4278 211.815 54.7686 209.881 54.7686H204.508ZM207.361 52.3437H209.738C211.181 52.3437 212.314 52.1139 213.138 51.6543C213.978 51.1788 214.572 50.5052 214.921 49.6335C215.285 48.746 215.468 47.6921 215.468 46.4717C215.468 45.2355 215.285 44.1816 214.921 43.3099C214.572 42.4223 213.978 41.7408 213.138 41.2654C212.314 40.7741 211.181 40.5284 209.738 40.5284H207.361V52.3437ZM225.504 55.0538C224.315 55.0538 223.269 54.8003 222.366 54.2931C221.463 53.7701 220.757 53.041 220.25 52.106C219.743 51.1709 219.489 50.0932 219.489 48.8728C219.489 47.6049 219.735 46.4955 220.226 45.5446C220.734 44.5936 221.439 43.8487 222.342 43.3099C223.261 42.771 224.323 42.5016 225.528 42.5016C226.701 42.5016 227.723 42.7631 228.595 43.2861C229.466 43.8091 230.14 44.5144 230.615 45.4019C231.091 46.2736 231.328 47.2562 231.328 48.3498C231.328 48.5083 231.328 48.6826 231.328 48.8728C231.328 49.063 231.313 49.2611 231.281 49.4671H221.534V47.6366H228.452C228.42 46.7649 228.127 46.0834 227.572 45.5921C227.018 45.0849 226.328 44.8314 225.504 44.8314C224.918 44.8314 224.379 44.9661 223.887 45.2355C223.396 45.5049 223.008 45.9091 222.723 46.4479C222.437 46.9709 222.295 47.6366 222.295 48.4449V49.1343C222.295 49.8792 222.429 50.5211 222.699 51.0599C222.984 51.5988 223.364 52.0109 223.84 52.2961C224.331 52.5656 224.878 52.7003 225.48 52.7003C226.146 52.7003 226.693 52.5576 227.121 52.2724C227.564 51.9871 227.889 51.6067 228.095 51.1313H230.996C230.774 51.8761 230.409 52.5497 229.902 53.152C229.395 53.7384 228.769 54.2059 228.024 54.5546C227.279 54.8874 226.439 55.0538 225.504 55.0538ZM235.59 54.7686L231.168 42.7869H234.164L237.326 52.0584L240.487 42.7869H243.435L239.014 54.7686H235.59ZM244.403 54.7686V42.7869H247.256V54.7686H244.403ZM245.83 40.885C245.307 40.885 244.871 40.7265 244.522 40.4095C244.189 40.0767 244.023 39.6726 244.023 39.1971C244.023 38.7058 244.189 38.3096 244.522 38.0084C244.871 37.6915 245.307 37.533 245.83 37.533C246.353 37.533 246.78 37.6915 247.113 38.0084C247.462 38.3096 247.636 38.7058 247.636 39.1971C247.636 39.6726 247.462 40.0767 247.113 40.4095C246.78 40.7265 246.353 40.885 245.83 40.885ZM254.142 55.0538C253.081 55.0538 252.153 54.8874 251.361 54.5546C250.584 54.2059 249.966 53.7305 249.507 53.1282C249.063 52.5101 248.801 51.8048 248.722 51.0124H251.575C251.654 51.3452 251.797 51.6543 252.003 51.9395C252.209 52.209 252.486 52.4229 252.835 52.5814C253.199 52.7399 253.627 52.8192 254.119 52.8192C254.594 52.8192 254.982 52.7558 255.283 52.629C255.585 52.4863 255.806 52.3041 255.949 52.0822C256.092 51.8603 256.163 51.6226 256.163 51.369C256.163 50.9886 256.06 50.6954 255.854 50.4894C255.648 50.2833 255.347 50.1249 254.951 50.0139C254.57 49.8871 254.111 49.7683 253.572 49.6573C253.001 49.5464 252.447 49.4117 251.908 49.2532C251.385 49.0788 250.909 48.8649 250.481 48.6113C250.069 48.3577 249.736 48.0328 249.483 47.6366C249.245 47.2404 249.126 46.757 249.126 46.1864C249.126 45.4891 249.308 44.8631 249.673 44.3083C250.053 43.7536 250.592 43.3178 251.29 43.0008C252.003 42.668 252.851 42.5016 253.833 42.5016C255.228 42.5016 256.337 42.8265 257.162 43.4763C258.002 44.1102 258.493 45.0057 258.636 46.1627H255.925C255.846 45.7189 255.624 45.3781 255.26 45.1404C254.895 44.8868 254.412 44.76 253.81 44.76C253.191 44.76 252.716 44.8789 252.383 45.1166C252.066 45.3385 251.908 45.6396 251.908 46.02C251.908 46.2577 252.003 46.4796 252.193 46.6857C252.399 46.8759 252.692 47.0423 253.073 47.1849C253.453 47.3117 253.92 47.4385 254.475 47.5653C255.363 47.7396 256.147 47.9456 256.829 48.1834C257.51 48.4211 258.049 48.7698 258.445 49.2294C258.842 49.689 259.04 50.3388 259.04 51.1788C259.056 51.9395 258.857 52.6131 258.445 53.1995C258.049 53.7859 257.486 54.2455 256.757 54.5784C256.028 54.8953 255.157 55.0538 254.142 55.0538Z" fill="#3F3F46"/>
<rect x="202.82" y="64" width="93.2842" height="13.3263" rx="6.66316" fill="#E7E7E7"/>
<rect x="202.82" y="98.5107" width="63.3" height="13.3263" rx="6.66316" fill="#F1F1F1"/>
<rect x="202.82" y="116.279" width="51.0842" height="13.3263" rx="6.66316" fill="#F1F1F1"/>
<rect x="202.82" y="134.048" width="71.0737" height="13.3263" rx="6.66316" fill="#F1F1F1"/>
<rect x="309.43" y="98.5107" width="44.4211" height="13.3263" rx="6.66316" fill="#F1F1F1"/>
<rect x="309.43" y="116.279" width="56.6368" height="13.3263" rx="6.66316" fill="#F1F1F1"/>
<rect x="202.82" y="171.805" width="163.247" height="15.5474" rx="7.77368" fill="#F1F1F1"/>
</g>
<g filter="url(#filter2_ddddd_8682_18469)">
<rect x="327" y="105" width="100.095" height="38.0476" rx="9.52381" fill="#4B3CE4" shape-rendering="crispEdges"/>
<rect x="327.794" y="105.794" width="98.5079" height="36.4603" rx="8.73016" stroke="url(#paint1_linear_8682_18469)" stroke-width="1.5873" shape-rendering="crispEdges"/>
<path d="M346.49 128.524L350.175 118.524H351.447L355.118 128.524H353.833L350.804 120.024L347.747 128.524H346.49ZM348.175 125.952L348.518 124.981H353.047L353.39 125.952H348.175ZM359.414 128.695C358.728 128.695 358.119 128.533 357.585 128.21C357.052 127.876 356.633 127.414 356.328 126.824C356.023 126.233 355.871 125.548 355.871 124.767C355.871 123.976 356.023 123.291 356.328 122.71C356.633 122.119 357.052 121.662 357.585 121.338C358.119 121.005 358.728 120.838 359.414 120.838C360.271 120.838 360.985 121.067 361.557 121.524C362.138 121.981 362.509 122.595 362.671 123.367H361.443C361.338 122.891 361.095 122.524 360.714 122.267C360.343 122 359.904 121.867 359.4 121.867C358.962 121.867 358.566 121.976 358.214 122.195C357.871 122.414 357.6 122.738 357.4 123.167C357.2 123.595 357.1 124.129 357.1 124.767C357.1 125.243 357.157 125.667 357.271 126.038C357.385 126.4 357.543 126.705 357.743 126.952C357.952 127.191 358.195 127.372 358.471 127.495C358.757 127.619 359.066 127.681 359.4 127.681C359.743 127.681 360.052 127.624 360.328 127.51C360.614 127.386 360.852 127.21 361.043 126.981C361.243 126.752 361.376 126.481 361.443 126.167H362.671C362.519 126.919 362.147 127.529 361.557 127.995C360.976 128.462 360.262 128.695 359.414 128.695ZM367.659 128.695C366.973 128.695 366.364 128.533 365.83 128.21C365.297 127.876 364.878 127.414 364.573 126.824C364.268 126.233 364.116 125.548 364.116 124.767C364.116 123.976 364.268 123.291 364.573 122.71C364.878 122.119 365.297 121.662 365.83 121.338C366.364 121.005 366.973 120.838 367.659 120.838C368.516 120.838 369.23 121.067 369.802 121.524C370.383 121.981 370.754 122.595 370.916 123.367H369.688C369.583 122.891 369.34 122.524 368.959 122.267C368.588 122 368.149 121.867 367.645 121.867C367.207 121.867 366.811 121.976 366.459 122.195C366.116 122.414 365.845 122.738 365.645 123.167C365.445 123.595 365.345 124.129 365.345 124.767C365.345 125.243 365.402 125.667 365.516 126.038C365.63 126.4 365.788 126.705 365.988 126.952C366.197 127.191 366.44 127.372 366.716 127.495C367.002 127.619 367.311 127.681 367.645 127.681C367.988 127.681 368.297 127.624 368.573 127.51C368.859 127.386 369.097 127.21 369.288 126.981C369.488 126.752 369.621 126.481 369.688 126.167H370.916C370.764 126.919 370.392 127.529 369.802 127.995C369.221 128.462 368.507 128.695 367.659 128.695ZM375.775 128.695C375.109 128.695 374.518 128.533 374.004 128.21C373.49 127.886 373.085 127.429 372.79 126.838C372.504 126.248 372.361 125.557 372.361 124.767C372.361 123.976 372.504 123.286 372.79 122.695C373.085 122.105 373.49 121.648 374.004 121.324C374.528 121 375.128 120.838 375.804 120.838C376.528 120.838 377.132 121 377.618 121.324C378.104 121.648 378.471 122.081 378.718 122.624C378.966 123.167 379.09 123.762 379.09 124.41C379.09 124.505 379.09 124.6 379.09 124.695C379.09 124.791 379.085 124.905 379.075 125.038H373.261V124.11H377.918C377.899 123.376 377.685 122.819 377.275 122.438C376.875 122.048 376.375 121.852 375.775 121.852C375.375 121.852 375.004 121.952 374.661 122.152C374.328 122.343 374.056 122.629 373.847 123.01C373.637 123.391 373.532 123.867 373.532 124.438V124.838C373.532 125.467 373.637 125.995 373.847 126.424C374.056 126.843 374.328 127.157 374.661 127.367C375.004 127.576 375.375 127.681 375.775 127.681C376.309 127.681 376.728 127.581 377.032 127.381C377.337 127.172 377.561 126.876 377.704 126.495H378.89C378.775 126.914 378.575 127.291 378.29 127.624C378.013 127.957 377.661 128.219 377.232 128.41C376.813 128.6 376.328 128.695 375.775 128.695ZM380.753 131.667V121.01H381.838L381.938 122.181C382.091 121.933 382.281 121.71 382.51 121.51C382.748 121.31 383.029 121.148 383.353 121.024C383.686 120.9 384.067 120.838 384.495 120.838C385.172 120.838 385.762 121.01 386.267 121.352C386.781 121.695 387.181 122.162 387.467 122.752C387.753 123.343 387.895 124.019 387.895 124.781C387.895 125.533 387.753 126.205 387.467 126.795C387.181 127.386 386.781 127.852 386.267 128.195C385.753 128.529 385.157 128.695 384.481 128.695C383.9 128.695 383.391 128.576 382.953 128.338C382.514 128.1 382.181 127.767 381.953 127.338V131.667H380.753ZM384.338 127.652C384.786 127.652 385.181 127.538 385.524 127.31C385.876 127.072 386.153 126.738 386.353 126.31C386.562 125.872 386.667 125.357 386.667 124.767C386.667 124.176 386.562 123.667 386.353 123.238C386.153 122.8 385.876 122.467 385.524 122.238C385.181 122 384.786 121.881 384.338 121.881C383.862 121.881 383.448 122 383.095 122.238C382.743 122.467 382.472 122.8 382.281 123.238C382.091 123.667 381.995 124.176 381.995 124.767C381.995 125.357 382.091 125.872 382.281 126.31C382.472 126.738 382.743 127.072 383.095 127.31C383.448 127.538 383.862 127.652 384.338 127.652ZM392.275 128.524C391.846 128.524 391.475 128.457 391.16 128.324C390.846 128.191 390.603 127.967 390.432 127.652C390.27 127.329 390.189 126.895 390.189 126.352V122.024H388.875V121.01H390.189L390.346 119.138H391.389V121.01H393.517V122.024H391.389V126.352C391.389 126.8 391.479 127.105 391.66 127.267C391.841 127.419 392.16 127.495 392.617 127.495H393.489V128.524H392.275ZM398.083 128.695C397.416 128.695 396.826 128.533 396.311 128.21C395.797 127.886 395.392 127.429 395.097 126.838C394.811 126.248 394.669 125.557 394.669 124.767C394.669 123.976 394.811 123.286 395.097 122.695C395.392 122.105 395.797 121.648 396.311 121.324C396.835 121 397.435 120.838 398.111 120.838C398.835 120.838 399.44 121 399.926 121.324C400.411 121.648 400.778 122.081 401.026 122.624C401.273 123.167 401.397 123.762 401.397 124.41C401.397 124.505 401.397 124.6 401.397 124.695C401.397 124.791 401.392 124.905 401.383 125.038H395.569V124.11H400.226C400.207 123.376 399.992 122.819 399.583 122.438C399.183 122.048 398.683 121.852 398.083 121.852C397.683 121.852 397.311 121.952 396.969 122.152C396.635 122.343 396.364 122.629 396.154 123.01C395.945 123.391 395.84 123.867 395.84 124.438V124.838C395.84 125.467 395.945 125.995 396.154 126.424C396.364 126.843 396.635 127.157 396.969 127.367C397.311 127.576 397.683 127.681 398.083 127.681C398.616 127.681 399.035 127.581 399.34 127.381C399.645 127.172 399.869 126.876 400.011 126.495H401.197C401.083 126.914 400.883 127.291 400.597 127.624C400.321 127.957 399.969 128.219 399.54 128.41C399.121 128.6 398.635 128.695 398.083 128.695ZM403.06 128.524V121.01H404.146L404.231 122.381C404.403 122.038 404.627 121.752 404.903 121.524C405.179 121.295 405.512 121.124 405.903 121.01C406.303 120.895 406.751 120.838 407.246 120.838V122.095H406.503C406.217 122.095 405.941 122.133 405.674 122.21C405.408 122.286 405.165 122.41 404.946 122.581C404.736 122.752 404.57 122.986 404.446 123.281C404.322 123.576 404.26 123.948 404.26 124.395V128.524H403.06Z" fill="white"/>
</g>
</g>
<defs>
<filter id="filter0_ddddd_8682_18469" x="-22" y="65" width="294" height="300" filterUnits="userSpaceOnUse" color-interpolation-filters="sRGB">
<feFlood flood-opacity="0" result="BackgroundImageFix"/>
<feColorMatrix in="SourceAlpha" type="matrix" values="0 0 0 0 0 0 0 0 0 0 0 0 0 0 0 0 0 0 127 0" result="hardAlpha"/>
<feOffset dy="1.5873"/>
<feGaussianBlur stdDeviation="1.5873"/>
<feComposite in2="hardAlpha" operator="out"/>
<feColorMatrix type="matrix" values="0 0 0 0 0.0392157 0 0 0 0 0.0509804 0 0 0 0 0.0705882 0 0 0 0.05 0"/>
<feBlend mode="normal" in2="BackgroundImageFix" result="effect1_dropShadow_8682_18469"/>
<feColorMatrix in="SourceAlpha" type="matrix" values="0 0 0 0 0 0 0 0 0 0 0 0 0 0 0 0 0 0 127 0" result="hardAlpha"/>
<feOffset dy="9"/>
<feGaussianBlur stdDeviation="9.5"/>
<feColorMatrix type="matrix" values="0 0 0 0 0 0 0 0 0 0 0 0 0 0 0 0 0 0 0.1 0"/>
<feBlend mode="normal" in2="effect1_dropShadow_8682_18469" result="effect2_dropShadow_8682_18469"/>
<feColorMatrix in="SourceAlpha" type="matrix" values="0 0 0 0 0 0 0 0 0 0 0 0 0 0 0 0 0 0 127 0" result="hardAlpha"/>
<feOffset dy="34"/>
<feGaussianBlur stdDeviation="17"/>
<feColorMatrix type="matrix" values="0 0 0 0 0 0 0 0 0 0 0 0 0 0 0 0 0 0 0.09 0"/>
<feBlend mode="normal" in2="effect2_dropShadow_8682_18469" result="effect3_dropShadow_8682_18469"/>
<feColorMatrix in="SourceAlpha" type="matrix" values="0 0 0 0 0 0 0 0 0 0 0 0 0 0 0 0 0 0 127 0" result="hardAlpha"/>
<feOffset dy="77"/>
<feGaussianBlur stdDeviation="23"/>
<feColorMatrix type="matrix" values="0 0 0 0 0 0 0 0 0 0 0 0 0 0 0 0 0 0 0.05 0"/>
<feBlend mode="normal" in2="effect3_dropShadow_8682_18469" result="effect4_dropShadow_8682_18469"/>
<feColorMatrix in="SourceAlpha" type="matrix" values="0 0 0 0 0 0 0 0 0 0 0 0 0 0 0 0 0 0 127 0" result="hardAlpha"/>
<feOffset dy="137"/>
<feGaussianBlur stdDeviation="27.5"/>
<feColorMatrix type="matrix" values="0 0 0 0 0 0 0 0 0 0 0 0 0 0 0 0 0 0 0.01 0"/>
<feBlend mode="normal" in2="effect4_dropShadow_8682_18469" result="effect5_dropShadow_8682_18469"/>
<feBlend mode="normal" in="SourceGraphic" in2="effect5_dropShadow_8682_18469" result="shape"/>
</filter>
<filter id="filter1_ddddd_8682_18469" x="119.53" y="0.784263" width="330.935" height="437.547" filterUnits="userSpaceOnUse" color-interpolation-filters="sRGB">
<feFlood flood-opacity="0" result="BackgroundImageFix"/>
<feColorMatrix in="SourceAlpha" type="matrix" values="0 0 0 0 0 0 0 0 0 0 0 0 0 0 0 0 0 0 127 0" result="hardAlpha"/>
<feOffset dy="1.76274"/>
<feGaussianBlur stdDeviation="1.76274"/>
<feComposite in2="hardAlpha" operator="out"/>
<feColorMatrix type="matrix" values="0 0 0 0 0.0392157 0 0 0 0 0.0509804 0 0 0 0 0.0705882 0 0 0 0.05 0"/>
<feBlend mode="normal" in2="BackgroundImageFix" result="effect1_dropShadow_8682_18469"/>
<feColorMatrix in="SourceAlpha" type="matrix" values="0 0 0 0 0 0 0 0 0 0 0 0 0 0 0 0 0 0 127 0" result="hardAlpha"/>
<feOffset dy="9.99474"/>
<feGaussianBlur stdDeviation="10.55"/>
<feColorMatrix type="matrix" values="0 0 0 0 0 0 0 0 0 0 0 0 0 0 0 0 0 0 0.1 0"/>
<feBlend mode="normal" in2="effect1_dropShadow_8682_18469" result="effect2_dropShadow_8682_18469"/>
<feColorMatrix in="SourceAlpha" type="matrix" values="0 0 0 0 0 0 0 0 0 0 0 0 0 0 0 0 0 0 127 0" result="hardAlpha"/>
<feOffset dy="37.7579"/>
<feGaussianBlur stdDeviation="18.8789"/>
<feColorMatrix type="matrix" values="0 0 0 0 0 0 0 0 0 0 0 0 0 0 0 0 0 0 0.09 0"/>
<feBlend mode="normal" in2="effect2_dropShadow_8682_18469" result="effect3_dropShadow_8682_18469"/>
<feColorMatrix in="SourceAlpha" type="matrix" values="0 0 0 0 0 0 0 0 0 0 0 0 0 0 0 0 0 0 127 0" result="hardAlpha"/>
<feOffset dy="85.5105"/>
<feGaussianBlur stdDeviation="25.5421"/>
<feColorMatrix type="matrix" values="0 0 0 0 0 0 0 0 0 0 0 0 0 0 0 0 0 0 0.05 0"/>
<feBlend mode="normal" in2="effect3_dropShadow_8682_18469" result="effect4_dropShadow_8682_18469"/>
<feColorMatrix in="SourceAlpha" type="matrix" values="0 0 0 0 0 0 0 0 0 0 0 0 0 0 0 0 0 0 127 0" result="hardAlpha"/>
<feOffset dy="152.142"/>
<feGaussianBlur stdDeviation="30.5395"/>
<feColorMatrix type="matrix" values="0 0 0 0 0 0 0 0 0 0 0 0 0 0 0 0 0 0 0.01 0"/>
<feBlend mode="normal" in2="effect4_dropShadow_8682_18469" result="effect5_dropShadow_8682_18469"/>
<feBlend mode="normal" in="SourceGraphic" in2="effect5_dropShadow_8682_18469" result="shape"/>
</filter>
<filter id="filter2_ddddd_8682_18469" x="272" y="95" width="210.094" height="240.048" filterUnits="userSpaceOnUse" color-interpolation-filters="sRGB">
<feFlood flood-opacity="0" result="BackgroundImageFix"/>
<feColorMatrix in="SourceAlpha" type="matrix" values="0 0 0 0 0 0 0 0 0 0 0 0 0 0 0 0 0 0 127 0" result="hardAlpha"/>
<feOffset dy="1.5873"/>
<feGaussianBlur stdDeviation="1.5873"/>
<feComposite in2="hardAlpha" operator="out"/>
<feColorMatrix type="matrix" values="0 0 0 0 0.0392157 0 0 0 0 0.0509804 0 0 0 0 0.0705882 0 0 0 0.05 0"/>
<feBlend mode="normal" in2="BackgroundImageFix" result="effect1_dropShadow_8682_18469"/>
<feColorMatrix in="SourceAlpha" type="matrix" values="0 0 0 0 0 0 0 0 0 0 0 0 0 0 0 0 0 0 127 0" result="hardAlpha"/>
<feOffset dy="9"/>
<feGaussianBlur stdDeviation="9.5"/>
<feColorMatrix type="matrix" values="0 0 0 0 0 0 0 0 0 0 0 0 0 0 0 0 0 0 0.1 0"/>
<feBlend mode="normal" in2="effect1_dropShadow_8682_18469" result="effect2_dropShadow_8682_18469"/>
<feColorMatrix in="SourceAlpha" type="matrix" values="0 0 0 0 0 0 0 0 0 0 0 0 0 0 0 0 0 0 127 0" result="hardAlpha"/>
<feOffset dy="34"/>
<feGaussianBlur stdDeviation="17"/>
<feColorMatrix type="matrix" values="0 0 0 0 0 0 0 0 0 0 0 0 0 0 0 0 0 0 0.09 0"/>
<feBlend mode="normal" in2="effect2_dropShadow_8682_18469" result="effect3_dropShadow_8682_18469"/>
<feColorMatrix in="SourceAlpha" type="matrix" values="0 0 0 0 0 0 0 0 0 0 0 0 0 0 0 0 0 0 127 0" result="hardAlpha"/>
<feOffset dy="77"/>
<feGaussianBlur stdDeviation="23"/>
<feColorMatrix type="matrix" values="0 0 0 0 0 0 0 0 0 0 0 0 0 0 0 0 0 0 0.05 0"/>
<feBlend mode="normal" in2="effect3_dropShadow_8682_18469" result="effect4_dropShadow_8682_18469"/>
<feColorMatrix in="SourceAlpha" type="matrix" values="0 0 0 0 0 0 0 0 0 0 0 0 0 0 0 0 0 0 127 0" result="hardAlpha"/>
<feOffset dy="137"/>
<feGaussianBlur stdDeviation="27.5"/>
<feColorMatrix type="matrix" values="0 0 0 0 0 0 0 0 0 0 0 0 0 0 0 0 0 0 0.01 0"/>
<feBlend mode="normal" in2="effect4_dropShadow_8682_18469" result="effect5_dropShadow_8682_18469"/>
<feBlend mode="normal" in="SourceGraphic" in2="effect5_dropShadow_8682_18469" result="shape"/>
</filter>
<linearGradient id="paint0_linear_8682_18469" x1="231.5" y1="-12" x2="231.5" y2="237" gradientUnits="userSpaceOnUse">
<stop offset="0.296503" stop-color="#FF0000"/>
<stop offset="0.885282" stop-color="#FF0004" stop-opacity="0"/>
</linearGradient>
<linearGradient id="paint1_linear_8682_18469" x1="377.048" y1="105" x2="377.048" y2="143.048" gradientUnits="userSpaceOnUse">
<stop stop-color="white" stop-opacity="0.25"/>
<stop offset="1" stop-color="white" stop-opacity="0"/>
</linearGradient>
</defs>
</svg>
