<svg width="134" height="35" viewBox="0 0 134 35" fill="none" xmlns="http://www.w3.org/2000/svg">
<path d="M15.4508 7.14996V2.89996H2.05078V32.1H15.4508V27.85C12.7058 27.85 10.0732 26.7595 8.13222 24.8185C6.19122 22.8775 5.10078 20.245 5.10078 17.5C5.10078 14.755 6.19122 12.1224 8.13222 10.1814C10.0732 8.24041 12.7058 7.14996 15.4508 7.14996Z" fill="#A1A1AA"/>
<path d="M15.4492 7.14996V27.85C18.1942 27.85 20.8268 26.7595 22.7678 24.8185C24.7088 22.8775 25.7992 20.245 25.7992 17.5C25.7992 14.755 24.7088 12.1224 22.7678 10.1814C20.8268 8.24041 18.1942 7.14996 15.4492 7.14996Z" fill="#A1A1AA"/>
<path d="M33.3203 9.75H36.3203V24.2H33.3203V9.75Z" fill="#A1A1AA"/>
<path d="M38.0005 19.2499C38.0005 18.2103 38.3092 17.1941 38.8874 16.3301C39.4656 15.4661 40.2873 14.7932 41.2484 14.3967C42.2095 14.0003 43.2666 13.8981 44.2858 14.1031C45.305 14.3081 46.2404 14.8111 46.9734 15.5483C47.7064 16.2856 48.2041 17.2238 48.4033 18.2442C48.6024 19.2646 48.4942 20.3211 48.0922 21.2799C47.6902 22.2386 47.0127 23.0565 46.1454 23.6297C45.2781 24.203 44.2601 24.5058 43.2205 24.4999C42.531 24.5053 41.8473 24.373 41.2096 24.1106C40.5719 23.8483 39.9929 23.4613 39.5067 22.9724C39.0205 22.4834 38.6369 21.9022 38.3782 21.263C38.1196 20.6238 37.9912 19.9394 38.0005 19.2499ZM45.5205 19.2499C45.5087 18.8017 45.365 18.3669 45.1074 18C44.8498 17.633 44.4898 17.3501 44.0722 17.1867C43.6547 17.0233 43.1983 16.9866 42.7601 17.0813C42.3218 17.1759 41.9212 17.3976 41.6083 17.7188C41.2954 18.0399 41.0841 18.4461 41.0009 18.8867C40.9177 19.3273 40.9662 19.7826 41.1404 20.1957C41.3146 20.6088 41.6067 20.9615 41.9803 21.2094C42.3538 21.4574 42.7921 21.5897 43.2405 21.5899C43.5458 21.5959 43.849 21.5388 44.1312 21.4222C44.4134 21.3057 44.6685 21.1322 44.8806 20.9126C45.0927 20.693 45.2572 20.4319 45.3639 20.1459C45.4706 19.8598 45.5171 19.5548 45.5005 19.2499H45.5205Z" fill="#A1A1AA"/>
<path d="M60.3113 14.3001V23.7101C60.3113 27.0301 57.7113 28.4401 55.0813 28.4401C54.1536 28.5162 53.2231 28.3319 52.3946 27.9079C51.566 27.4839 50.8722 26.837 50.3913 26.0401L52.9212 24.5801C53.1262 24.9935 53.4524 25.3345 53.8562 25.5578C54.26 25.7811 54.7222 25.8761 55.1813 25.8301C55.4738 25.8661 55.7705 25.8371 56.0504 25.7451C56.3304 25.653 56.5866 25.5003 56.8006 25.2977C57.0147 25.0951 57.1813 24.8478 57.2886 24.5733C57.3959 24.2989 57.4411 24.0041 57.4212 23.7101V22.8001C57.0721 23.2234 56.6292 23.5594 56.1276 23.7816C55.6259 24.0038 55.0793 24.106 54.5312 24.0801C53.2052 24.0801 51.9335 23.5533 50.9958 22.6156C50.0581 21.678 49.5312 20.4062 49.5312 19.0801C49.5312 17.754 50.0581 16.4823 50.9958 15.5446C51.9335 14.6069 53.2052 14.0801 54.5312 14.0801C55.0793 14.0542 55.6259 14.1564 56.1276 14.3786C56.6292 14.6008 57.0721 14.9368 57.4212 15.3601V14.3601L60.3113 14.3001ZM57.4212 19.0501C57.4411 18.5717 57.3175 18.0982 57.0662 17.6906C56.8149 17.283 56.4476 16.9599 56.0111 16.7628C55.5747 16.5657 55.0894 16.5037 54.6174 16.5847C54.1455 16.6657 53.7085 16.886 53.3628 17.2173C53.0171 17.5486 52.7784 17.9758 52.6774 18.4439C52.5764 18.912 52.6177 19.3995 52.796 19.8439C52.9744 20.2883 53.2816 20.6692 53.6781 20.9376C54.0747 21.206 54.5425 21.3497 55.0213 21.3501C55.3338 21.3726 55.6475 21.3293 55.9421 21.2231C56.2368 21.1168 56.506 20.9499 56.7321 20.7331C56.9583 20.5164 57.1364 20.2546 57.2551 19.9647C57.3738 19.6748 57.4304 19.3632 57.4212 19.0501Z" fill="#A1A1AA"/>
<path d="M62.0003 19.25C62.0003 18.2112 62.3085 17.1958 62.8858 16.3322C63.4631 15.4686 64.2837 14.7957 65.2436 14.3987C66.2035 14.0016 67.2595 13.8982 68.2782 14.1016C69.2969 14.305 70.2323 14.806 70.9662 15.5412C71.7 16.2765 72.1992 17.2129 72.4006 18.2319C72.6021 19.251 72.4968 20.3069 72.0979 21.266C71.699 22.2252 71.0244 23.0444 70.1598 23.6201C69.2951 24.1958 68.2791 24.502 67.2403 24.5C66.5495 24.5067 65.8643 24.3754 65.2249 24.1138C64.5855 23.8522 64.0046 23.4656 63.5166 22.9766C63.0285 22.4876 62.643 21.9061 62.3826 21.2662C62.1223 20.6263 61.9923 19.9408 62.0003 19.25ZM69.5203 19.25C69.5085 18.8014 69.3645 18.3662 69.1065 17.999C68.8485 17.6319 68.4878 17.349 68.0697 17.1859C67.6516 17.0228 67.1947 16.9867 66.7562 17.0822C66.3177 17.1776 65.9171 17.4004 65.6046 17.7225C65.2921 18.0446 65.0816 18.4518 64.9996 18.893C64.9175 19.3342 64.9674 19.7898 65.1431 20.2027C65.3188 20.6157 65.6125 20.9676 65.9874 21.2144C66.3622 21.4611 66.8015 21.5918 67.2503 21.59C67.5556 21.596 67.8588 21.5389 68.141 21.4223C68.4232 21.3058 68.6783 21.1323 68.8904 20.9127C69.1025 20.6931 69.267 20.432 69.3737 20.146C69.4804 19.8599 69.527 19.5549 69.5104 19.25H69.5203Z" fill="#A1A1AA"/>
<path d="M73.8711 11.65C73.8711 11.298 73.9755 10.9538 74.1711 10.6611C74.3667 10.3684 74.6447 10.1402 74.9699 10.0055C75.2952 9.87077 75.6531 9.83552 75.9984 9.9042C76.3436 9.97288 76.6608 10.1424 76.9098 10.3913C77.1587 10.6403 77.3282 10.9575 77.3969 11.3027C77.4656 11.648 77.4303 12.0059 77.2956 12.3312C77.1609 12.6564 76.9327 12.9344 76.64 13.13C76.3473 13.3256 76.0032 13.43 75.6511 13.43C75.1806 13.4248 74.7309 13.2356 74.3982 12.9029C74.0655 12.5702 73.8763 12.1205 73.8711 11.65ZM74.1611 14.3H77.1611V24.2H74.1611V14.3Z" fill="#A1A1AA"/>
<path d="M90.0005 19.2501C90.0341 19.9085 89.9372 20.5671 89.7153 21.1879C89.4935 21.8087 89.151 22.3795 88.7077 22.8674C88.2643 23.3554 87.7289 23.7508 87.1321 24.031C86.5354 24.3112 85.8891 24.4706 85.2305 24.5001C84.6716 24.5373 84.1115 24.4478 83.5921 24.2383C83.0726 24.0287 82.6072 23.7046 82.2305 23.2901V28.1801H79.2305V14.3001H82.2305V15.2301C82.6077 14.8168 83.0735 14.4942 83.593 14.2864C84.1125 14.0785 84.6723 13.9909 85.2305 14.0301C85.8865 14.0596 86.5302 14.2181 87.1249 14.4964C87.7196 14.7747 88.2537 15.1675 88.6966 15.6522C89.1396 16.1369 89.4827 16.7041 89.7064 17.3215C89.9301 17.9388 90.0301 18.5941 90.0005 19.2501ZM87.0005 19.2501C86.9887 18.7856 86.84 18.335 86.5732 17.9547C86.3064 17.5744 85.9332 17.2812 85.5005 17.1121C85.0678 16.9429 84.5948 16.9053 84.1407 17.0038C83.6867 17.1023 83.2719 17.3327 82.9482 17.666C82.6245 17.9993 82.4064 18.4207 82.3213 18.8775C82.2361 19.3342 82.2876 19.8059 82.4694 20.2335C82.6512 20.661 82.9551 21.0254 83.3431 21.281C83.7311 21.5366 84.1859 21.6719 84.6505 21.6701C84.9687 21.6836 85.2862 21.6297 85.5821 21.5119C85.8781 21.3941 86.1458 21.2151 86.3677 20.9866C86.5896 20.7581 86.7606 20.4852 86.8697 20.186C86.9788 19.8867 87.0233 19.5678 87.0005 19.2501Z" fill="#A1A1AA"/>
<path d="M99.13 21.23C99.13 23.51 97.13 24.48 95.01 24.48C94.1453 24.5578 93.2772 24.3745 92.5178 23.9538C91.7584 23.5331 91.1426 22.8943 90.75 22.12L93.33 20.66C93.4322 21.0168 93.6538 21.3277 93.9578 21.5407C94.2618 21.7537 94.6297 21.8558 95 21.83C95.71 21.83 96.07 21.61 96.07 21.21C96.07 20.12 91.2 20.7 91.2 17.27C91.2 15.11 93.02 14.03 95.08 14.03C95.863 13.9949 96.641 14.1726 97.3311 14.5441C98.0213 14.9156 98.598 15.4671 99 16.14L96.42 17.5C96.306 17.242 96.1198 17.0226 95.8838 16.8682C95.6477 16.7138 95.372 16.6311 95.09 16.63C94.57 16.63 94.26 16.83 94.26 17.18C94.26 18.32 99.13 17.57 99.13 21.23Z" fill="#A1A1AA"/>
<path d="M109.999 14.3V24.2H106.999V23.27C106.658 23.6817 106.225 24.0074 105.736 24.2211C105.246 24.4348 104.713 24.5303 104.179 24.5C102.179 24.5 100.469 23.07 100.469 20.4V14.3H103.469V19.95C103.445 20.1862 103.473 20.4247 103.551 20.6491C103.629 20.8734 103.754 21.0782 103.918 21.2494C104.083 21.4205 104.283 21.5539 104.504 21.6404C104.725 21.7268 104.962 21.7642 105.199 21.75C106.279 21.75 107.039 21.11 107.039 19.75V14.3H109.999Z" fill="#A1A1AA"/>
<path d="M126.999 18.12V24.2H123.999V18.38C123.999 17.38 123.529 16.76 122.579 16.76C121.629 16.76 121.029 17.45 121.029 18.62V24.2H118.029V18.38C118.029 17.38 117.559 16.76 116.609 16.76C115.659 16.76 115.059 17.45 115.059 18.62V24.2H112.059V14.3H115.059V15.21C115.37 14.808 115.775 14.4896 116.24 14.2836C116.704 14.0776 117.213 13.9904 117.719 14.03C118.226 14.0035 118.732 14.1095 119.186 14.3374C119.64 14.5653 120.027 14.9074 120.309 15.33C120.639 14.8884 121.075 14.5376 121.577 14.3103C122.078 14.0829 122.63 13.9865 123.179 14.03C125.519 14.03 126.999 15.65 126.999 18.12Z" fill="#A1A1AA"/>
<path d="M129.52 14.2401C130.735 14.2401 131.72 13.2551 131.72 12.0401C131.72 10.8251 130.735 9.84009 129.52 9.84009C128.305 9.84009 127.32 10.8251 127.32 12.0401C127.32 13.2551 128.305 14.2401 129.52 14.2401Z" fill="#A1A1AA"/>
</svg>
