<svg width="132" height="35" viewBox="0 0 132 35" fill="none" xmlns="http://www.w3.org/2000/svg">
<path d="M38.5117 11.26H41.7217V24.26H38.5117V11.26ZM43.0017 19.37C43.0017 16.15 45.0017 14.22 48.0017 14.22C51.0017 14.22 53.0017 16.15 53.0017 19.37C53.0017 22.59 51.0717 24.54 48.0017 24.54C44.9317 24.54 43.0017 22.66 43.0017 19.37ZM49.8217 19.37C49.8217 17.6 49.1317 16.56 48.0317 16.56C46.9317 16.56 46.2517 17.56 46.2517 19.37C46.2517 21.18 46.9317 22.17 48.0317 22.17C49.1317 22.17 49.8417 21.18 49.8417 19.38L49.8217 19.37ZM54.2817 24.93H57.3817C57.5228 25.2637 57.7693 25.5422 58.0835 25.7227C58.3977 25.9033 58.7623 25.9761 59.1217 25.93C60.3517 25.93 60.9917 25.27 60.9917 24.29V22.49H61.0017C60.7368 23.0505 60.3084 23.5176 59.773 23.83C59.2375 24.1424 58.62 24.2853 58.0017 24.24C55.6517 24.24 54.0917 22.45 54.0917 19.37C54.0917 16.29 55.5817 14.37 58.0917 14.37C58.7258 14.3361 59.3549 14.4996 59.8921 14.8381C60.4294 15.1766 60.8485 15.6734 61.0917 16.26H61.0017V14.45H64.1817V24.19C64.1817 26.54 62.1017 28.01 59.0417 28.01C56.2617 28 54.4817 26.73 54.3017 24.94L54.2817 24.93ZM61.0017 19.37C61.0017 17.8 60.2817 16.81 59.1417 16.81C58.0017 16.81 57.3017 17.81 57.3017 19.37C57.3017 20.93 57.9917 21.85 59.1417 21.85C60.2917 21.85 61.0017 21 61.0017 19.37ZM65.4517 19.37C65.4517 16.15 67.4517 14.22 70.4517 14.22C73.4517 14.22 75.4517 16.15 75.4517 19.37C75.4517 22.59 73.5117 24.54 70.4517 24.54C67.3917 24.54 65.4717 22.66 65.4717 19.37H65.4517ZM72.2717 19.37C72.2717 17.6 71.5717 16.56 70.4817 16.56C69.3917 16.56 68.7017 17.56 68.7017 19.37C68.7017 21.18 69.3817 22.17 70.4817 22.17C71.5817 22.17 72.2917 21.18 72.2917 19.38L72.2717 19.37ZM76.7517 12.08C76.7377 11.753 76.8219 11.4293 76.9934 11.1506C77.1649 10.8718 77.4159 10.6508 77.7141 10.5159C78.0123 10.3809 78.344 10.3383 78.6666 10.3935C78.9892 10.4486 79.2879 10.599 79.5243 10.8253C79.7607 11.0517 79.924 11.3435 79.9932 11.6634C80.0623 11.9833 80.0342 12.3166 79.9124 12.6203C79.7906 12.9241 79.5807 13.1845 79.3097 13.368C79.0387 13.5515 78.719 13.6497 78.3917 13.65C78.1826 13.6553 77.9744 13.619 77.7794 13.5433C77.5844 13.4675 77.4063 13.3537 77.2556 13.2086C77.1049 13.0635 76.9845 12.8899 76.9015 12.6978C76.8184 12.5058 76.7743 12.2992 76.7717 12.09L76.7517 12.08ZM76.7517 14.44H80.0017V24.3H76.8017L76.7517 14.44ZM91.6917 19.37C91.6917 22.58 90.2517 24.44 87.8017 24.44C87.1745 24.4787 86.5505 24.3239 86.014 23.9967C85.4775 23.6694 85.0544 23.1854 84.8017 22.61H84.7417V27.47H81.5317V14.47H84.7217V16.23H84.7817C85.0257 15.6433 85.4447 15.146 85.9815 14.806C86.5184 14.466 87.147 14.2998 87.7817 14.33C90.3017 14.31 91.7517 16.16 91.7517 19.38L91.6917 19.37ZM88.4217 19.37C88.4217 17.81 87.6917 16.8 86.5617 16.8C85.4317 16.8 84.7217 17.8 84.7117 19.37C84.7017 20.94 85.4317 21.93 86.5617 21.93C87.6917 21.93 88.4817 21 88.4817 19.38L88.4217 19.37ZM97.1717 14.21C99.8617 14.21 101.532 15.48 101.552 17.52H98.6217C98.6217 16.81 98.0317 16.37 97.1517 16.37C96.2717 16.37 95.8517 16.71 95.8517 17.22C95.8517 17.73 96.2217 17.89 96.9617 18.04L99.0217 18.46C101.022 18.88 101.822 19.68 101.822 21.17C101.822 23.17 99.9717 24.53 97.2217 24.53C94.4717 24.53 92.6817 23.21 92.5517 21.2H95.6617C95.7517 21.93 96.3317 22.36 97.2717 22.36C98.2117 22.36 98.6517 22.06 98.6517 21.53C98.6517 21 98.3517 20.91 97.5817 20.75L95.7217 20.36C93.7917 19.95 92.7817 18.94 92.7817 17.43C92.8417 15.47 94.5217 14.22 97.2317 14.22L97.1717 14.21ZM112.572 24.29H109.462V22.44H109.402C109.228 23.0571 108.849 23.5964 108.327 23.969C107.805 24.3417 107.172 24.5254 106.532 24.49C106.049 24.5057 105.567 24.4191 105.12 24.2357C104.673 24.0524 104.269 23.7765 103.936 23.4262C103.602 23.0758 103.347 22.6589 103.186 22.2029C103.025 21.7469 102.962 21.2619 103.002 20.78V14.45H106.212V20.09C106.212 21.25 106.822 21.88 107.822 21.88C108.057 21.8782 108.288 21.8261 108.501 21.7273C108.714 21.6284 108.903 21.485 109.055 21.3068C109.208 21.1286 109.321 20.9197 109.386 20.6943C109.45 20.4688 109.466 20.2321 109.432 20V14.45H112.632L112.572 24.29ZM114.122 14.44H117.242V16.34H117.312C117.484 15.7313 117.854 15.197 118.362 14.8206C118.871 14.4443 119.49 14.2471 120.122 14.26C120.757 14.2048 121.39 14.3884 121.896 14.7749C122.403 15.1614 122.747 15.7231 122.862 16.35H123.002C123.202 15.7197 123.604 15.1731 124.147 14.7952C124.689 14.4172 125.342 14.2291 126.002 14.26C126.441 14.2433 126.879 14.3195 127.286 14.4836C127.694 14.6476 128.062 14.8959 128.367 15.2122C128.672 15.5284 128.906 15.9055 129.055 16.3187C129.205 16.7319 129.265 17.1719 129.232 17.61V24.3H126.002V18.43C126.002 17.43 125.532 16.87 124.622 16.87C124.42 16.8667 124.22 16.9071 124.035 16.9883C123.85 17.0696 123.686 17.1899 123.552 17.3409C123.418 17.492 123.318 17.6701 123.259 17.8633C123.201 18.0565 123.185 18.26 123.212 18.46V24.3H120.152V18.4C120.152 17.4 119.662 16.87 118.782 16.87C118.578 16.8684 118.376 16.9104 118.19 16.9932C118.003 17.0761 117.837 17.1978 117.701 17.3503C117.566 17.5028 117.465 17.6825 117.405 17.8773C117.344 18.0722 117.326 18.2777 117.352 18.48V24.3H114.142L114.122 14.44Z" fill="#A1A1AA"/>
<path d="M32.1595 12.11C32.1596 10.1197 31.5586 8.17573 30.4352 6.53279C29.3118 4.88985 27.7183 3.6245 25.8636 2.9025C24.0089 2.18049 21.9793 2.03549 20.0408 2.48648C18.1022 2.93747 16.3451 3.96343 14.9995 5.42997H2.51953V31.77H28.8695V19.46C29.9037 18.535 30.7313 17.4023 31.2982 16.1358C31.8651 14.8693 32.1586 13.4976 32.1595 12.11ZM27.0895 12.11C27.0915 13.0637 26.8105 13.9966 26.2821 14.7906C25.7536 15.5845 25.0016 16.2039 24.121 16.5702C23.2404 16.9366 22.271 17.0335 21.3353 16.8486C20.3997 16.6638 19.5399 16.2055 18.8648 15.5318C18.1897 14.8581 17.7297 13.9993 17.5429 13.064C17.3561 12.1288 17.451 11.1591 17.8155 10.2778C18.18 9.39643 18.7978 8.64306 19.5906 8.11299C20.3835 7.58292 21.3158 7.29998 22.2695 7.29997C23.5461 7.29997 24.7706 7.80642 25.6742 8.70818C26.5779 9.60994 27.0869 10.8334 27.0895 12.11ZM23.7995 26.7H7.58953V10.5H12.5295C12.4341 11.0315 12.3839 11.5701 12.3795 12.11C12.3822 14.7322 13.425 17.2462 15.2792 19.1004C17.1333 20.9545 19.6473 21.9974 22.2695 22C22.7822 21.9973 23.2938 21.9538 23.7995 21.87V26.7Z" fill="#A1A1AA"/>
</svg>
