<svg width="132" height="41" viewBox="0 0 132 41" fill="none" xmlns="http://www.w3.org/2000/svg">
<path d="M23.2305 11.89H25.2305V25.81H31.2305V27.81H23.2305V11.89ZM37.4605 11.89C38.6472 11.89 39.8072 12.2419 40.7939 12.9012C41.7806 13.5605 42.5497 14.4975 43.0038 15.5939C43.4579 16.6903 43.5767 17.8967 43.3452 19.0605C43.1137 20.2244 42.5423 21.2935 41.7031 22.1326C40.864 22.9718 39.7949 23.5432 38.631 23.7747C37.4672 24.0062 36.2608 23.8874 35.1644 23.4333C34.068 22.9791 33.131 22.2101 32.4717 21.2234C31.8124 20.2367 31.4605 19.0767 31.4605 17.89C31.4605 17.1021 31.6157 16.3218 31.9172 15.5939C32.2187 14.8659 32.6607 14.2045 33.2179 13.6474C33.775 13.0902 34.4364 12.6482 35.1644 12.3467C35.8923 12.0452 36.6726 11.89 37.4605 11.89ZM37.4605 21.89C38.2516 21.89 39.025 21.6554 39.6828 21.2159C40.3406 20.7763 40.8533 20.1516 41.156 19.4207C41.4588 18.6898 41.538 17.8856 41.3836 17.1096C41.2293 16.3337 40.8483 15.621 40.2889 15.0616C39.7295 14.5022 39.0168 14.1212 38.2409 13.9669C37.4649 13.8125 36.6607 13.8917 35.9298 14.1945C35.1989 14.4972 34.5741 15.0099 34.1346 15.6677C33.6951 16.3255 33.4605 17.0989 33.4605 17.89C33.4658 18.9474 33.8895 19.9597 34.6391 20.7055C35.3887 21.4513 36.4031 21.87 37.4605 21.87V21.89ZM33.4605 25.83H41.4605V27.83H33.4605V25.83ZM59.0605 27.83H57.0605V26.4C55.7707 27.3028 54.2349 27.788 52.6605 27.79C51.318 27.799 49.9948 27.47 48.8129 26.8333C47.6309 26.1965 46.6282 25.2726 45.8972 24.1466C45.1661 23.0206 44.7301 21.7287 44.6295 20.3899C44.5288 19.0512 44.7667 17.7086 45.3212 16.486C45.8757 15.2633 46.729 14.1998 47.8024 13.3936C48.8759 12.5873 50.135 12.0641 51.4637 11.8723C52.7925 11.6804 54.1482 11.8261 55.4058 12.2958C56.6635 12.7655 57.7828 13.5441 58.6605 14.56L57.1905 15.87C56.5229 15.1236 55.6792 14.5562 54.7361 14.2195C53.7931 13.8827 52.7808 13.7873 51.7915 13.942C50.8021 14.0967 49.8673 14.4966 49.072 15.1051C48.2768 15.7137 47.6465 16.5115 47.2387 17.4261C46.8308 18.3406 46.6583 19.3426 46.7369 20.3409C46.8155 21.3392 47.1426 22.3019 47.6886 23.1413C48.2346 23.9807 48.9819 24.6702 49.8626 25.1468C50.7432 25.6234 51.7292 25.872 52.7305 25.87C53.5615 25.8717 54.3831 25.6939 55.1391 25.3487C55.895 25.0035 56.5675 24.4991 57.1105 23.87H51.7105V21.87H59.0805L59.0605 27.83ZM66.4205 11.93C67.6072 11.93 68.7672 12.2819 69.7539 12.9412C70.7406 13.6005 71.5097 14.5375 71.9638 15.6339C72.4179 16.7303 72.5367 17.9367 72.3052 19.1005C72.0737 20.2644 71.5023 21.3335 70.6631 22.1726C69.824 23.0118 68.7549 23.5832 67.591 23.8147C66.4272 24.0462 65.2208 23.9274 64.1244 23.4733C63.028 23.0191 62.091 22.2501 61.4317 21.2634C60.7724 20.2767 60.4205 19.1167 60.4205 17.93C60.4152 17.137 60.5672 16.3509 60.8676 15.617C61.168 14.8831 61.6109 14.216 62.1707 13.6544C62.7305 13.0927 63.3961 12.6476 64.129 12.3447C64.8619 12.0419 65.6475 11.8873 66.4405 11.89L66.4205 11.93ZM66.4205 21.93C67.2116 21.93 67.985 21.6954 68.6428 21.2559C69.3006 20.8163 69.8133 20.1916 70.116 19.4607C70.4188 18.7298 70.498 17.9256 70.3436 17.1496C70.1893 16.3737 69.8083 15.661 69.2489 15.1016C68.6895 14.5422 67.9768 14.1612 67.2009 14.0069C66.4249 13.8525 65.6207 13.9317 64.8898 14.2345C64.1589 14.5372 63.5341 15.0499 63.0946 15.7077C62.6551 16.3655 62.4205 17.1389 62.4205 17.93C62.4363 18.9839 62.8674 19.989 63.6202 20.7268C64.3729 21.4645 65.3865 21.8754 66.4405 21.87L66.4205 21.93ZM62.4205 25.87H70.4205V27.87H62.4205V25.87ZM74.5505 11.89H76.5505V27.79H74.5505V11.89ZM79.3205 11.89H81.3205C81.4235 11.8791 81.5274 11.8791 81.6305 11.89C82.4681 11.7991 83.3155 11.8857 84.1174 12.144C84.9193 12.4024 85.6579 12.8267 86.2849 13.3894C86.912 13.9521 87.4135 14.6406 87.7568 15.41C88.1002 16.1794 88.2776 17.0125 88.2776 17.855C88.2776 18.6975 88.1002 19.5306 87.7568 20.3C87.4135 21.0694 86.912 21.7579 86.2849 22.3206C85.6579 22.8833 84.9193 23.3076 84.1174 23.566C83.3155 23.8243 82.4681 23.9109 81.6305 23.82H81.3205V27.82H79.3205V11.89ZM81.3205 13.89V21.8H81.6305C82.1954 21.8752 82.7698 21.8289 83.3154 21.664C83.8609 21.4992 84.3649 21.2197 84.7936 20.8443C85.2224 20.4689 85.5659 20.0062 85.8013 19.4872C86.0367 18.9682 86.1585 18.4049 86.1585 17.835C86.1585 17.2651 86.0367 16.7018 85.8013 16.1828C85.5659 15.6638 85.2224 15.2011 84.7936 14.8257C84.3649 14.4502 83.8609 14.1708 83.3154 14.0059C82.7698 13.8411 82.1954 13.7948 81.6305 13.87C81.5216 13.8813 81.4142 13.9048 81.3105 13.94L81.3205 13.89ZM95.7305 13.04L94.2505 14.21C93.9952 13.9432 93.669 13.7548 93.3103 13.667C92.9516 13.5792 92.5753 13.5956 92.2256 13.7143C91.8758 13.8329 91.5673 14.0489 91.3361 14.3369C91.1049 14.6249 90.9607 14.9729 90.9205 15.34V15.5C90.9205 16.38 91.5305 16.97 92.7205 17.05C97.3005 17.33 99.4005 19.48 99.4005 22.32V22.5C99.2822 23.624 98.8436 24.6904 98.1368 25.5724C97.43 26.4544 96.4847 27.1147 95.4135 27.475C94.3422 27.8352 93.19 27.8802 92.0939 27.6045C90.9978 27.3289 90.0039 26.7442 89.2305 25.92L90.7605 24.74C91.1166 25.1217 91.5515 25.4213 92.035 25.6182C92.5185 25.815 93.039 25.9044 93.5605 25.88C94.5237 25.9308 95.4692 25.6075 96.1996 24.9776C96.9301 24.3478 97.389 23.4601 97.4805 22.5V22.36C97.4805 19.69 94.8605 19.2 92.5905 18.98C90.4905 18.78 88.9805 17.47 88.9805 15.58V15.5C89.0545 14.516 89.5036 13.598 90.2349 12.9356C90.9662 12.2731 91.924 11.9167 92.9105 11.94C93.4333 11.9246 93.9534 12.0189 94.4375 12.217C94.9215 12.4151 95.3586 12.7125 95.7205 13.09L95.7305 13.04ZM107.23 25.76C109.72 25.76 111.69 23.07 111.69 19.76V11.76H113.69V19.76C113.69 24.16 110.81 27.71 107.27 27.71C103.73 27.71 100.85 24.16 100.85 19.76V11.76H102.85V19.76C102.77 23.12 104.74 25.81 107.22 25.81L107.23 25.76ZM129.04 27.76H127.04V17.86L122.43 23.86L117.82 17.86V27.79H115.82V11.89L122.42 20.58L129.02 11.89L129.04 27.76Z" fill="#A1A1AA"/>
<path d="M13.63 9.5C13.63 8.05722 13.0569 6.67353 12.0367 5.65334C11.0165 4.63314 9.63278 4.06 8.19 4.06C6.74722 4.06 5.36354 4.63314 4.34334 5.65334C3.32314 6.67353 2.75 8.05722 2.75 9.5V25.95L7.23 29.16V36.98H9.15V29.16L13.63 25.95V9.5ZM11.71 18.7L9.15 21.26V18.86L11.71 16.3V18.7ZM4.71 16.3L7.27 18.86V21.26L4.71 18.7V16.3ZM11.71 13.58L8.19 17.1L4.67 13.5V11.1L8.19 14.62L11.71 11.1V13.58ZM8.19 5.98C8.96415 5.98342 9.71583 6.24053 10.3299 6.71193C10.944 7.18333 11.3866 7.84303 11.59 8.59L8.19 11.98L4.79 8.59C4.98594 7.8356 5.42537 7.16695 6.04013 6.68781C6.65489 6.20866 7.41059 5.94579 8.19 5.93999V5.98ZM4.67 24.98V21.38L7.23 23.94V26.8L4.67 24.98ZM9.15 26.81V23.94L11.71 21.38V24.97L9.15 26.81Z" fill="#A1A1AA"/>
</svg>
