<svg width="132" height="35" viewBox="0 0 132 35" fill="none" xmlns="http://www.w3.org/2000/svg">
<path d="M44.8293 25.2047C44.2345 25.237 43.6462 25.0679 43.1593 24.7247C42.9559 24.5739 42.7922 24.3758 42.6824 24.1476C42.5726 23.9193 42.5201 23.6678 42.5293 23.4147V14.1447C42.5245 14.1055 42.5286 14.0656 42.5415 14.0282C42.5543 13.9908 42.5755 13.9569 42.6035 13.9289C42.6315 13.9009 42.6654 13.8797 42.7028 13.8669C42.7402 13.854 42.7801 13.8499 42.8193 13.8547H44.4993C44.6893 13.8547 44.7793 13.9547 44.7793 14.1447V22.6947C44.7793 23.0747 44.9493 23.2647 45.2993 23.2647C45.4477 23.2708 45.5961 23.254 45.7393 23.2147C45.9393 23.2147 46.0493 23.2747 46.0593 23.4547L46.2093 24.7047C46.2165 24.7412 46.2158 24.7787 46.2073 24.8149C46.1988 24.851 46.1826 24.885 46.1598 24.9143C46.1371 24.9437 46.1083 24.9679 46.0755 24.9852C46.0426 25.0025 46.0064 25.0126 45.9693 25.0147C45.6013 25.1363 45.2168 25.2004 44.8293 25.2047Z" fill="#A1A1AA"/>
<path d="M54.2793 24.1347C53.4352 24.8322 52.3743 25.2137 51.2793 25.2137C50.1843 25.2137 49.1235 24.8322 48.2793 24.1347C47.5374 23.3857 47.1211 22.374 47.1211 21.3197C47.1211 20.2654 47.5374 19.2537 48.2793 18.5047C49.1251 17.8108 50.1853 17.4316 51.2793 17.4316C52.3733 17.4316 53.4335 17.8108 54.2793 18.5047C55.0042 19.2606 55.4089 20.2674 55.4089 21.3147C55.4089 22.362 55.0042 23.3688 54.2793 24.1247V24.1347ZM49.8593 22.8147C50.2511 23.1696 50.7607 23.3661 51.2893 23.3661C51.8179 23.3661 52.3276 23.1696 52.7193 22.8147C53.0739 22.4071 53.2691 21.885 53.2691 21.3447C53.2691 20.8045 53.0739 20.2824 52.7193 19.8747C52.3276 19.5199 51.8179 19.3233 51.2893 19.3233C50.7607 19.3233 50.2511 19.5199 49.8593 19.8747C49.5048 20.2824 49.3095 20.8045 49.3095 21.3447C49.3095 21.885 49.5048 22.4071 49.8593 22.8147Z" fill="#A1A1AA"/>
<path d="M64.6589 17.6847C64.8489 17.6847 64.9389 17.7847 64.9389 17.9747V25.1447C64.9564 25.6287 64.8658 26.1104 64.6738 26.5549C64.4818 26.9995 64.1932 27.3957 63.8289 27.7147C63.0203 28.4042 61.9805 28.7615 60.9189 28.7147C59.9601 28.7484 59.014 28.4866 58.2089 27.9647C57.8651 27.739 57.5714 27.4449 57.3461 27.1009C57.1207 26.7568 56.9685 26.3701 56.8989 25.9647C56.8989 25.7647 56.8989 25.6747 57.1689 25.6747H58.8489C58.9202 25.6771 58.9894 25.7002 59.0479 25.741C59.1065 25.7818 59.152 25.8386 59.1789 25.9047C59.2879 26.2084 59.5051 26.4613 59.7889 26.6147C60.1348 26.7932 60.5198 26.8826 60.9089 26.8747C61.1437 26.8876 61.3787 26.8535 61.6002 26.7745C61.8217 26.6956 62.0252 26.5732 62.1989 26.4147C62.3576 26.2489 62.481 26.0526 62.5618 25.8378C62.6426 25.623 62.679 25.394 62.6689 25.1647V24.5347C62.0674 24.9771 61.3353 25.2059 60.5889 25.1847C60.0665 25.2037 59.5457 25.117 59.0576 24.9297C58.5696 24.7423 58.1245 24.4584 57.7489 24.0947C57.028 23.3489 56.625 22.3521 56.625 21.3147C56.625 20.2774 57.028 19.2806 57.7489 18.5347C58.1263 18.1743 58.572 17.8931 59.0597 17.7076C59.5475 17.5221 60.0674 17.4361 60.5889 17.4547C61.3569 17.4344 62.1087 17.678 62.7189 18.1447V17.9847C62.7143 17.9464 62.7183 17.9075 62.7306 17.8709C62.7429 17.8344 62.7632 17.801 62.79 17.7732C62.8168 17.7454 62.8495 17.724 62.8856 17.7104C62.9218 17.6968 62.9605 17.6915 62.9989 17.6947L64.6589 17.6847ZM60.7789 23.4047C61.0365 23.4127 61.2928 23.364 61.5295 23.262C61.7662 23.1601 61.9777 23.0074 62.1489 22.8147C62.4814 22.3854 62.6618 21.8577 62.6618 21.3147C62.6618 20.7717 62.4814 20.2441 62.1489 19.8147C61.9783 19.6247 61.7681 19.4742 61.5332 19.374C61.2982 19.2738 61.0442 19.2263 60.7889 19.2347C60.5283 19.2265 60.2691 19.275 60.0291 19.3769C59.7891 19.4788 59.5741 19.6316 59.3989 19.8247C59.0306 20.2354 58.8369 20.7735 58.8589 21.3247C58.8409 21.8705 59.0303 22.4029 59.3889 22.8147C59.5645 23.0073 59.7796 23.1598 60.0195 23.2616C60.2594 23.3634 60.5184 23.4122 60.7789 23.4047Z" fill="#A1A1AA"/>
<path d="M73.5719 24.1347C72.7261 24.8286 71.6659 25.2078 70.5719 25.2078C69.4779 25.2078 68.4177 24.8286 67.5719 24.1347C66.8464 23.3771 66.4414 22.3687 66.4414 21.3197C66.4414 20.2708 66.8464 19.2623 67.5719 18.5047C68.4185 17.8126 69.4784 17.4345 70.5719 17.4345C71.6654 17.4345 72.7253 17.8126 73.5719 18.5047C74.2968 19.2606 74.7015 20.2674 74.7015 21.3147C74.7015 22.362 74.2968 23.3688 73.5719 24.1247V24.1347ZM69.1419 22.8147C69.3336 22.9971 69.5596 23.1396 69.8068 23.234C70.054 23.3284 70.3174 23.3729 70.5819 23.3647C70.8447 23.3715 71.1063 23.3265 71.3517 23.2321C71.5971 23.1377 71.8214 22.9959 72.0119 22.8147C72.3607 22.4043 72.5522 21.8833 72.5522 21.3447C72.5522 20.8061 72.3607 20.2851 72.0119 19.8747C71.8214 19.6936 71.5971 19.5517 71.3517 19.4574C71.1063 19.363 70.8447 19.3179 70.5819 19.3247C70.3174 19.3166 70.054 19.361 69.8068 19.4554C69.5596 19.5498 69.3336 19.6924 69.1419 19.8747C68.7932 20.2851 68.6017 20.8061 68.6017 21.3447C68.6017 21.8833 68.7932 22.4043 69.1419 22.8147Z" fill="#A1A1AA"/>
<path d="M78.309 15.9847C78.0447 16.2161 77.7053 16.3436 77.354 16.3436C77.0027 16.3436 76.6634 16.2161 76.399 15.9847C76.2792 15.8716 76.1837 15.7352 76.1184 15.5839C76.0532 15.4326 76.0195 15.2695 76.0195 15.1047C76.0195 14.9399 76.0532 14.7769 76.1184 14.6255C76.1837 14.4742 76.2792 14.3378 76.399 14.2247C76.6661 13.9991 77.0044 13.8754 77.354 13.8754C77.7036 13.8754 78.0419 13.9991 78.309 14.2247C78.4289 14.3378 78.5244 14.4742 78.5896 14.6255C78.6549 14.7769 78.6885 14.9399 78.6885 15.1047C78.6885 15.2695 78.6549 15.4326 78.5896 15.5839C78.5244 15.7352 78.4289 15.8716 78.309 15.9847ZM78.519 25.2047C77.9246 25.2339 77.3373 25.0651 76.849 24.7247C76.6487 24.5717 76.4878 24.3729 76.38 24.145C76.2721 23.9171 76.2203 23.6667 76.229 23.4147V17.9747C76.2242 17.9355 76.2283 17.8956 76.2412 17.8582C76.254 17.8208 76.2752 17.7869 76.3032 17.7589C76.3312 17.7309 76.3651 17.7097 76.4025 17.6969C76.4399 17.684 76.4798 17.6799 76.519 17.6847H78.199C78.389 17.6847 78.479 17.7847 78.479 17.9747V22.6947C78.479 23.0747 78.649 23.2647 78.989 23.2647C79.1407 23.2702 79.2923 23.2533 79.439 23.2147C79.639 23.2147 79.749 23.2747 79.759 23.4547L79.909 24.7047C79.9162 24.7412 79.9155 24.7787 79.907 24.8149C79.8985 24.851 79.8823 24.885 79.8595 24.9143C79.8368 24.9437 79.808 24.9679 79.7752 24.9852C79.7423 25.0025 79.7061 25.0126 79.669 25.0147C79.2978 25.137 78.9099 25.2011 78.519 25.2047Z" fill="#A1A1AA"/>
<path d="M86.0908 17.4447C86.6156 17.424 87.1391 17.5089 87.6304 17.6944C88.1217 17.88 88.5708 18.1623 88.9508 18.5247C89.658 19.2837 90.0512 20.2824 90.0512 21.3197C90.0512 22.357 89.658 23.3558 88.9508 24.1147C88.5726 24.4804 88.1241 24.7655 87.6325 24.9528C87.1409 25.1402 86.6165 25.2259 86.0908 25.2047C85.342 25.2214 84.6081 24.9932 84.0008 24.5547V28.1647C84.0008 28.3547 83.9008 28.4447 83.7108 28.4447H82.0308C81.9925 28.4519 81.953 28.4496 81.9157 28.4381C81.8785 28.4265 81.8446 28.4061 81.817 28.3785C81.7895 28.3509 81.769 28.3171 81.7575 28.2798C81.7459 28.2426 81.7437 28.2031 81.7508 28.1647V19.9647C81.7626 19.8845 81.7554 19.8027 81.73 19.7257C81.7045 19.6488 81.6613 19.5788 81.604 19.5215C81.5467 19.4642 81.4768 19.4211 81.3998 19.3956C81.3229 19.3701 81.241 19.363 81.1608 19.3747H80.8308C80.6108 19.3747 80.5008 19.2947 80.5008 19.1347V17.9547C80.4956 17.8817 80.5156 17.8091 80.5575 17.7491C80.5993 17.689 80.6605 17.6451 80.7308 17.6247C81.0767 17.499 81.4428 17.438 81.8108 17.4447C82.1778 17.4122 82.5461 17.4901 82.8686 17.6682C83.191 17.8464 83.453 18.1168 83.6208 18.4447C83.9429 18.1189 84.3281 17.8622 84.7528 17.6902C85.1775 17.5183 85.6328 17.4347 86.0908 17.4447ZM84.5308 22.8147C84.7091 23.0011 84.9233 23.1494 85.1605 23.2507C85.3977 23.352 85.6529 23.4042 85.9108 23.4042C86.1687 23.4042 86.424 23.352 86.6611 23.2507C86.8983 23.1494 87.1125 23.0011 87.2908 22.8147C87.6664 22.3958 87.8637 21.8469 87.8408 21.2847C87.867 20.7221 87.6692 20.1719 87.2908 19.7547C87.1125 19.5684 86.8983 19.4201 86.6611 19.3188C86.424 19.2174 86.1687 19.1652 85.9108 19.1652C85.6529 19.1652 85.3977 19.2174 85.1605 19.3188C84.9233 19.4201 84.7091 19.5684 84.5308 19.7547C84.167 20.1793 83.9776 20.726 84.0008 21.2847C83.9805 21.843 84.1696 22.3887 84.5308 22.8147Z" fill="#A1A1AA"/>
<path d="M94.7691 25.2047C93.8714 25.2416 92.9813 25.0269 92.1991 24.5847C91.8853 24.3957 91.6181 24.1384 91.4172 23.832C91.2164 23.5256 91.0872 23.1779 91.0391 22.8147C91.0391 22.6147 91.1091 22.5147 91.3291 22.5147H92.7991C92.869 22.5175 92.9369 22.5394 92.9951 22.5783C93.0533 22.6171 93.0997 22.6712 93.1291 22.7347C93.3391 23.2747 93.8891 23.5447 94.7691 23.5447C95.0761 23.5588 95.3817 23.4969 95.6591 23.3647C95.7549 23.3215 95.837 23.2531 95.8969 23.1668C95.9568 23.0805 95.9921 22.9795 95.9991 22.8747C95.9991 22.6147 95.8391 22.4347 95.5191 22.3147C95.1396 22.1884 94.7472 22.1045 94.3491 22.0647C93.8776 22.0113 93.41 21.9278 92.9491 21.8147C92.5009 21.7133 92.0934 21.4799 91.7791 21.1447C91.594 20.9169 91.4578 20.6534 91.3788 20.3707C91.2999 20.088 91.28 19.792 91.3203 19.5013C91.3607 19.2105 91.4604 18.9311 91.6133 18.6806C91.7662 18.43 91.969 18.2136 92.2091 18.0447C92.9299 17.5856 93.7756 17.3619 94.6291 17.4047C95.4555 17.3768 96.2731 17.5812 96.9891 17.9947C97.2777 18.1582 97.5261 18.3839 97.7164 18.6555C97.9067 18.9271 98.034 19.2377 98.0891 19.5647C98.0891 19.7647 97.9991 19.8647 97.8191 19.8647H96.3391C96.2768 19.8684 96.2148 19.8532 96.1613 19.8211C96.1078 19.789 96.0652 19.7414 96.0391 19.6847C95.9402 19.4479 95.754 19.2581 95.5191 19.1547C95.2541 19.0161 94.9581 18.9472 94.6591 18.9547C94.366 18.9388 94.0736 18.9973 93.8091 19.1247C93.7159 19.1607 93.6357 19.2237 93.5786 19.3057C93.5216 19.3877 93.4904 19.4849 93.4891 19.5847C93.4955 19.7215 93.5456 19.8526 93.632 19.9588C93.7184 20.065 93.8365 20.1406 93.9691 20.1747C94.3531 20.3195 94.7524 20.4201 95.1591 20.4747C95.6268 20.5363 96.0908 20.6231 96.5491 20.7347C96.9973 20.8362 97.4048 21.0695 97.7191 21.4047C97.8873 21.5894 98.0171 21.8055 98.1012 22.0407C98.1853 22.2758 98.222 22.5253 98.2091 22.7747C98.2177 23.1204 98.1366 23.4624 97.9736 23.7674C97.8106 24.0723 97.5713 24.3298 97.2791 24.5147C96.532 24.9944 95.6565 25.235 94.7691 25.2047Z" fill="#A1A1AA"/>
<path d="M108.781 24.7048C108.787 24.7403 108.785 24.7766 108.777 24.8115C108.768 24.8465 108.753 24.8793 108.731 24.9082C108.71 24.9371 108.683 24.9614 108.652 24.9797C108.621 24.998 108.587 25.0099 108.551 25.0148C108.186 25.134 107.805 25.1981 107.421 25.2048C107.041 25.2442 106.657 25.1848 106.307 25.0324C105.956 24.88 105.651 24.6397 105.421 24.3348C104.715 24.9421 103.801 25.2537 102.871 25.2048C102.439 25.2247 102.008 25.154 101.605 24.9973C101.202 24.8406 100.836 24.6013 100.531 24.2948C100.228 23.9737 99.9928 23.5947 99.8398 23.1806C99.6869 22.7665 99.6192 22.3258 99.6406 21.8848V17.9748C99.6406 17.7848 99.7306 17.6848 99.9206 17.6848H101.601C101.791 17.6848 101.881 17.7848 101.881 17.9748V21.5848C101.863 22.0346 102.016 22.4744 102.311 22.8148C102.458 22.9708 102.637 23.0934 102.835 23.1745C103.033 23.2556 103.247 23.2932 103.461 23.2848C103.68 23.2944 103.899 23.2605 104.105 23.1849C104.311 23.1094 104.5 22.9938 104.661 22.8448C104.813 22.6878 104.932 22.5012 105.009 22.2965C105.087 22.0918 105.121 21.8734 105.111 21.6548V17.9748C105.111 17.7848 105.201 17.6848 105.391 17.6848H107.091C107.281 17.6848 107.371 17.7848 107.371 17.9748V22.6848C107.371 23.0748 107.541 23.2648 107.871 23.2648C108.026 23.2708 108.181 23.254 108.331 23.2148C108.369 23.2042 108.409 23.2023 108.447 23.2093C108.486 23.2162 108.522 23.2318 108.554 23.2549C108.586 23.278 108.612 23.308 108.631 23.3426C108.649 23.3772 108.659 23.4156 108.661 23.4548L108.781 24.7048Z" fill="#A1A1AA"/>
<path d="M124.669 24.7048C124.678 24.7406 124.679 24.778 124.672 24.8142C124.664 24.8503 124.649 24.8845 124.627 24.9141C124.605 24.9437 124.577 24.9681 124.544 24.9855C124.512 25.003 124.476 25.013 124.439 25.0148C124.067 25.1357 123.68 25.1998 123.289 25.2048C122.694 25.2355 122.107 25.0666 121.619 24.7248C121.408 24.5784 121.237 24.3823 121.12 24.1538C121.003 23.9253 120.944 23.6714 120.949 23.4148V21.0648C120.97 20.6164 120.82 20.1767 120.529 19.8348C120.389 19.6785 120.215 19.5553 120.022 19.474C119.828 19.3928 119.619 19.3555 119.409 19.3648C119.22 19.3577 119.032 19.3936 118.858 19.4698C118.685 19.546 118.532 19.6606 118.409 19.8048C118.145 20.1399 118.01 20.5587 118.029 20.9848V24.6748C118.029 24.8648 117.939 24.9648 117.749 24.9648H116.059C116.02 24.9697 115.98 24.9655 115.943 24.9527C115.905 24.9398 115.871 24.9186 115.843 24.8906C115.815 24.8627 115.794 24.8287 115.781 24.7913C115.768 24.7539 115.764 24.7141 115.769 24.6748V21.0648C115.791 20.6213 115.652 20.1847 115.379 19.8348C115.257 19.6878 115.104 19.5695 114.931 19.4883C114.759 19.4071 114.57 19.3649 114.379 19.3648C114.175 19.3566 113.972 19.3915 113.782 19.4674C113.592 19.5432 113.421 19.6582 113.279 19.8048C112.993 20.1292 112.846 20.553 112.869 20.9848V24.6748C112.874 24.7141 112.87 24.7539 112.857 24.7913C112.844 24.8287 112.823 24.8627 112.795 24.8906C112.767 24.9186 112.733 24.9398 112.696 24.9527C112.658 24.9655 112.618 24.9697 112.579 24.9648H110.949C110.759 24.9648 110.669 24.8648 110.669 24.6748V19.9648C110.681 19.8846 110.674 19.8028 110.648 19.7258C110.623 19.6489 110.58 19.5789 110.522 19.5216C110.465 19.4643 110.395 19.4212 110.318 19.3957C110.241 19.3702 110.159 19.3631 110.079 19.3748H109.749C109.529 19.3748 109.419 19.2948 109.419 19.1348V17.9548C109.414 17.8818 109.434 17.8092 109.476 17.7492C109.518 17.6891 109.579 17.6452 109.649 17.6248C109.995 17.4991 110.361 17.4381 110.729 17.4448C111.082 17.4147 111.437 17.4851 111.752 17.6479C112.067 17.8107 112.329 18.0592 112.509 18.3648C112.846 18.0451 113.246 17.7983 113.683 17.64C114.12 17.4817 114.585 17.4153 115.049 17.4448C115.5 17.4228 115.949 17.5073 116.361 17.6915C116.773 17.8757 117.135 18.1543 117.419 18.5048C117.75 18.1451 118.157 17.8635 118.61 17.6801C119.063 17.4968 119.551 17.4165 120.039 17.4448C120.475 17.4244 120.911 17.4947 121.319 17.6514C121.727 17.808 122.098 18.0475 122.409 18.3548C122.713 18.6753 122.948 19.0542 123.101 19.4685C123.254 19.8827 123.322 20.3238 123.299 20.7648V22.6948C123.299 23.0748 123.469 23.2648 123.789 23.2648C123.944 23.272 124.099 23.2552 124.249 23.2148C124.456 23.2148 124.566 23.2948 124.579 23.4548L124.669 24.7048Z" fill="#A1A1AA"/>
<path d="M7.41 16.3847C8.14777 13.4194 9.85643 10.7861 12.2639 8.90424C14.6714 7.02234 17.6393 6 20.695 6C23.7507 6 26.7186 7.02234 29.1261 8.90424C31.5336 10.7861 33.2422 13.4194 33.98 16.3847H32.78C30.7557 16.3549 28.7729 16.9599 27.11 18.1147C27.014 18.1842 26.9138 18.2477 26.81 18.3047H26.67C26.5662 18.2477 26.466 18.1842 26.37 18.1147C24.6924 16.9866 22.7166 16.3841 20.695 16.3841C18.6734 16.3841 16.6976 16.9866 15.02 18.1147C14.924 18.1842 14.8238 18.2477 14.72 18.3047H14.58C14.4762 18.2477 14.376 18.1842 14.28 18.1147C12.6171 16.9599 10.6343 16.3549 8.61 16.3847H7.41ZM30.62 22.6547C31.236 22.175 31.9995 21.924 32.78 21.9447H34.39V18.7347H32.78C31.4052 18.7181 30.0619 19.146 28.95 19.9547C28.3243 20.416 27.5674 20.6649 26.79 20.6649C26.0126 20.6649 25.2557 20.416 24.63 19.9547C23.4899 19.1611 22.1341 18.7356 20.745 18.7356C19.3559 18.7356 18.0001 19.1611 16.86 19.9547C16.2343 20.416 15.4774 20.6649 14.7 20.6649C13.9226 20.6649 13.1657 20.416 12.54 19.9547C11.4144 19.1356 10.0518 18.7072 8.66 18.7347H7V21.9447H8.61C9.39051 21.924 10.154 22.175 10.77 22.6547C11.908 23.4489 13.2623 23.8747 14.65 23.8747C16.0377 23.8747 17.392 23.4489 18.53 22.6547C19.1468 22.1765 19.9097 21.9257 20.69 21.9447C21.4708 21.9223 22.2348 22.1735 22.85 22.6547C23.9901 23.4484 25.3459 23.8738 26.735 23.8738C28.1241 23.8738 29.4799 23.4484 30.62 22.6547ZM30.62 28.3947C31.236 27.915 31.9995 27.664 32.78 27.6847H34.39V24.4747H32.78C31.4052 24.4581 30.0619 24.886 28.95 25.6947C28.3243 26.156 27.5674 26.4049 26.79 26.4049C26.0126 26.4049 25.2557 26.156 24.63 25.6947C23.4899 24.9011 22.1341 24.4757 20.745 24.4757C19.3559 24.4757 18.0001 24.9011 16.86 25.6947C16.2343 26.156 15.4774 26.4049 14.7 26.4049C13.9226 26.4049 13.1657 26.156 12.54 25.6947C11.4144 24.8757 10.0518 24.4472 8.66 24.4747H7V27.6847H8.61C9.39051 27.664 10.154 27.915 10.77 28.3947C11.908 29.1889 13.2623 29.6147 14.65 29.6147C16.0377 29.6147 17.392 29.1889 18.53 28.3947C19.1468 27.9165 19.9097 27.6657 20.69 27.6847C21.4708 27.6623 22.2348 27.9135 22.85 28.3947C23.9901 29.1884 25.3459 29.6138 26.735 29.6138C28.1241 29.6138 29.4799 29.1884 30.62 28.3947Z" fill="#A1A1AA"/>
</svg>
