<svg width="30" height="30" viewBox="0 0 30 30" fill="none" xmlns="http://www.w3.org/2000/svg">
<path d="M29.9994 10.1102C29.9995 8.11991 29.3985 6.17597 28.2751 4.53303C27.1517 2.89009 25.5582 1.62474 23.7035 0.902744C21.8488 0.180734 19.8192 0.0357343 17.8807 0.486724C15.9421 0.937714 14.185 1.96367 12.8394 3.43021H0.359375V29.7702H26.7094V17.4602C27.7436 16.5352 28.5712 15.4025 29.1381 14.136C29.705 12.8695 29.9985 11.4978 29.9994 10.1102ZM24.9294 10.1102C24.9314 11.0639 24.6504 11.9968 24.122 12.7908C23.5935 13.5847 22.8415 14.2041 21.9609 14.5704C21.0803 14.9368 20.1109 15.0337 19.1752 14.8488C18.2396 14.664 17.3798 14.2057 16.7047 13.532C16.0296 12.8583 15.5696 11.9995 15.3828 11.0642C15.196 10.129 15.2909 9.15931 15.6554 8.27801C16.0199 7.39667 16.6377 6.6433 17.4305 6.11323C18.2234 5.58316 19.1557 5.30022 20.1094 5.30021C21.386 5.30021 22.6105 5.80666 23.5141 6.70842C24.4178 7.61018 24.9268 8.83361 24.9294 10.1102ZM21.6394 24.7002H5.42938V8.50021H10.3694C10.274 9.03171 10.2238 9.57031 10.2194 10.1102C10.2221 12.7324 11.2649 15.2464 13.1191 17.1006C14.9732 18.9547 17.4872 19.9976 20.1094 20.0002C20.6221 19.9975 21.1337 19.954 21.6394 19.8702V24.7002Z" fill="#52525B"/>
</svg>
