<svg width="11" height="34" viewBox="0 0 11 34" fill="none" xmlns="http://www.w3.org/2000/svg">
<path d="M11.0011 5.98004C11.0011 4.53726 10.428 3.15357 9.40779 2.13338C8.38759 1.11318 7.00387 0.540039 5.56109 0.540039C4.11831 0.540039 2.73463 1.11318 1.71443 2.13338C0.694234 3.15357 0.121094 4.53726 0.121094 5.98004V22.43L4.60109 25.64V33.46H6.52109V25.64L11.0011 22.43V5.98004ZM9.08109 15.18L6.52109 17.74V15.34L9.08109 12.78V15.18ZM2.08109 12.78L4.64109 15.34V17.74L2.08109 15.18V12.78ZM9.08109 10.06L5.56109 13.58L2.04109 9.98004V7.58004L5.56109 11.1L9.08109 7.58004V10.06ZM5.56109 2.46004C6.33524 2.46346 7.08692 2.72057 7.70099 3.19197C8.31509 3.66337 8.75769 4.32307 8.96109 5.07004L5.56109 8.46004L2.16109 5.07004C2.35703 4.31564 2.79646 3.64699 3.41122 3.16785C4.02598 2.6887 4.78168 2.42583 5.56109 2.42003V2.46004ZM2.04109 21.46V17.86L4.60109 20.42V23.28L2.04109 21.46ZM6.52109 23.29V20.42L9.08109 17.86V21.45L6.52109 23.29Z" fill="#52525B"/>
</svg>
