<svg width="28" height="24" viewBox="0 0 28 24" fill="none" xmlns="http://www.w3.org/2000/svg">
<path d="M1.01937 10.5773C1.75714 7.61203 3.4658 4.97873 5.87327 3.09687C8.28078 1.21497 11.2487 0.192627 14.3044 0.192627C17.3601 0.192627 20.328 1.21497 22.7355 3.09687C25.143 4.97873 26.8516 7.61203 27.5894 10.5773H26.3894C24.3651 10.5475 22.3823 11.1525 20.7194 12.3073C20.6234 12.3768 20.5232 12.4403 20.4194 12.4973H20.2794C20.1756 12.4403 20.0754 12.3768 19.9794 12.3073C18.3018 11.1792 16.326 10.5767 14.3044 10.5767C12.2828 10.5767 10.307 11.1792 8.62938 12.3073C8.53338 12.3768 8.43318 12.4403 8.32938 12.4973H8.18937C8.08558 12.4403 7.98537 12.3768 7.88937 12.3073C6.22647 11.1525 4.24367 10.5475 2.21937 10.5773H1.01937ZM24.2294 16.8473C24.8454 16.3676 25.6089 16.1166 26.3894 16.1373H27.9994V12.9273H26.3894C25.0146 12.9107 23.6713 13.3386 22.5594 14.1473C21.9337 14.6086 21.1768 14.8575 20.3994 14.8575C19.622 14.8575 18.8651 14.6086 18.2394 14.1473C17.0993 13.3537 15.7435 12.9282 14.3544 12.9282C12.9653 12.9282 11.6095 13.3537 10.4694 14.1473C9.84368 14.6086 9.08677 14.8575 8.30937 14.8575C7.53197 14.8575 6.77507 14.6086 6.14937 14.1473C5.02378 13.3282 3.66117 12.8998 2.26937 12.9273H0.609375V16.1373H2.21937C2.99988 16.1166 3.76338 16.3676 4.37938 16.8473C5.51738 17.6415 6.87167 18.0673 8.25937 18.0673C9.64707 18.0673 11.0014 17.6415 12.1394 16.8473C12.7562 16.3691 13.5191 16.1183 14.2994 16.1373C15.0802 16.1149 15.8442 16.3661 16.4594 16.8473C17.5995 17.641 18.9553 18.0664 20.3444 18.0664C21.7335 18.0664 23.0893 17.641 24.2294 16.8473ZM24.2294 22.5873C24.8454 22.1076 25.6089 21.8566 26.3894 21.8773H27.9994V18.6673H26.3894C25.0146 18.6507 23.6713 19.0786 22.5594 19.8873C21.9337 20.3486 21.1768 20.5975 20.3994 20.5975C19.622 20.5975 18.8651 20.3486 18.2394 19.8873C17.0993 19.0937 15.7435 18.6683 14.3544 18.6683C12.9653 18.6683 11.6095 19.0937 10.4694 19.8873C9.84368 20.3486 9.08677 20.5975 8.30937 20.5975C7.53197 20.5975 6.77507 20.3486 6.14937 19.8873C5.02378 19.0683 3.66117 18.6398 2.26937 18.6673H0.609375V21.8773H2.21937C2.99988 21.8566 3.76338 22.1076 4.37938 22.5873C5.51738 23.3815 6.87167 23.8073 8.25937 23.8073C9.64707 23.8073 11.0014 23.3815 12.1394 22.5873C12.7562 22.1091 13.5191 21.8583 14.2994 21.8773C15.0802 21.8549 15.8442 22.1061 16.4594 22.5873C17.5995 23.381 18.9553 23.8064 20.3444 23.8064C21.7335 23.8064 23.0893 23.381 24.2294 22.5873Z" fill="#52525B"/>
</svg>
